/* XPM */
static char *out[] = {
/* columns rows colors chars-per-pixel */
"50 50 209 2 ",
"   c #660A0E",
".  c #66130D",
"X  c #69160E",
"o  c #6B190E",
"O  c #6F0614",
"+  c #700615",
"@  c #710A15",
"#  c #740518",
"$  c #7B041E",
"%  c #7C0D1A",
"&  c #6D1D13",
"*  c #731416",
"=  c #751F17",
"-  c #75111A",
";  c #7D121D",
":  c #77320D",
">  c #6D2513",
",  c #722115",
"<  c #742919",
"1  c #78281B",
"2  c #6D3612",
"3  c #6A3A10",
"4  c #7A3B13",
"5  c #7B381E",
"6  c #7F1926",
"7  c #6E4B0F",
"8  c #7E4C05",
"9  c #714F0F",
"0  c #6B4711",
"q  c #6E4A12",
"w  c #7A4613",
"e  c #734E12",
"r  c #755113",
"t  c #7A5311",
"y  c #7F5911",
"u  c #755419",
"i  c #7A551C",
"p  c #7B5C1D",
"a  c #7E5520",
"s  c #841D19",
"d  c #803018",
"f  c #821422",
"g  c #8C1423",
"h  c #8D1925",
"j  c #86192B",
"k  c #8C1A2E",
"l  c #921325",
"z  c #911829",
"x  c #941B29",
"c  c #8C1D31",
"v  c #951D34",
"b  c #991E37",
"n  c #A31B33",
"m  c #862522",
"M  c #893525",
"N  c #843C24",
"B  c #AD203E",
"V  c #814A0D",
"C  c #845806",
"Z  c #84530B",
"A  c #845E0D",
"S  c #824B15",
"D  c #825613",
"F  c #855C14",
"G  c #895E11",
"H  c #805D1A",
"J  c #8A5A1B",
"K  c #866806",
"L  c #8C6D05",
"P  c #856609",
"I  c #8B640D",
"U  c #8D6B09",
"Y  c #906F0E",
"T  c #8E7204",
"R  c #907509",
"E  c #8D6313",
"W  c #8B6B13",
"Q  c #82621E",
"!  c #8B661C",
"~  c #8E6A1B",
"^  c #906616",
"/  c #916B15",
"(  c #916B1A",
")  c #927413",
"_  c #947A13",
"`  c #94711C",
"'  c #874D27",
"]  c #885526",
"[  c #915E2F",
"{  c #965731",
"}  c #836524",
"|  c #886726",
" . c #866A26",
".. c #896B26",
"X. c #8E622D",
"o. c #8A6D29",
"O. c #916E21",
"+. c #936A2E",
"@. c #8D732C",
"#. c #957323",
"$. c #987624",
"%. c #92772E",
"&. c #93792C",
"*. c #9B7C2A",
"=. c #966333",
"-. c #936B31",
";. c #9C6A36",
":. c #9A7435",
">. c #9A7736",
",. c #957D31",
"<. c #A17F2D",
"1. c #A1713A",
"2. c #A37D3D",
"3. c #9E2341",
"4. c #9D3654",
"5. c #A22543",
"6. c #AD2141",
"7. c #A42B47",
"8. c #B52345",
"9. c #B82447",
"0. c #B7264A",
"q. c #BB2A4D",
"w. c #A9304D",
"e. c #BA2B53",
"r. c #B9315A",
"t. c #BA3A67",
"y. c #C42B56",
"u. c #C5315F",
"i. c #C63361",
"p. c #CC366A",
"a. c #CD386C",
"s. c #D13568",
"d. c #D2386C",
"f. c #D33C72",
"g. c #DA3E79",
"h. c #AB425A",
"j. c #A77F40",
"k. c #B85078",
"l. c #C4436B",
"z. c #CF4477",
"x. c #D1417A",
"c. c #DC417D",
"v. c #D04A7A",
"b. c #D15177",
"n. c #9B8122",
"m. c #9E842B",
"M. c #978034",
"N. c #9C8433",
"B. c #9D8639",
"V. c #9E893A",
"C. c #A2822C",
"Z. c #A28634",
"A. c #A18A36",
"S. c #A88D34",
"D. c #A58B3A",
"F. c #A38D3C",
"G. c #A5913E",
"H. c #AC923D",
"J. c #AA8242",
"K. c #A98C42",
"L. c #A69340",
"P. c #AA9543",
"I. c #AE9846",
"U. c #B19445",
"Y. c #B19946",
"T. c #B4934A",
"R. c #B49C4A",
"E. c #B89F4D",
"W. c #BBA04E",
"Q. c #BDA250",
"!. c #DC4380",
"~. c #DD4A86",
"^. c #D55887",
"/. c #E04685",
"(. c #E34B8C",
"). c #E64E92",
"_. c #E84F94",
"`. c #E55696",
"'. c #EB539A",
"]. c #E1669C",
"[. c #EE59A2",
"{. c #F05BA6",
"}. c #F35EAB",
"|. c #EB64A5",
" X c #F461AD",
".X c #E572A9",
"XX c #F562B1",
"oX c #F864B4",
"OX c #F26CB3",
"+X c #F967B8",
"@X c #FC6ABD",
"#X c #ED75B3",
"$X c #F378BC",
"%X c #FC73C3",
"&X c #F67BC2",
"*X c #FB7BC7",
"=X c #FC7DC9",
"-X c #DC95A9",
";X c #E7AABF",
":X c #FB84CD",
">X c #F68ACC",
",X c #FC8CD3",
"<X c #F591D0",
"1X c #FB92D5",
"2X c #FC96DA",
"3X c #FC9BDD",
"4X c #F7A9D4",
"5X c #F4B3D2",
"6X c #FCB4E2",
/* pixels */
"0 0 r ,.L.L.L.N.E E E E E ^ Z.R.Q.Q.W.G.#.A q 0 0 0 0 u ,.G.L.L.N.^ I G ^ G ( A.Y.Q.Q.R.G.` G q 0 0 ",
"t H @.D.R.I.P.A.*.( I I ` *.H.R.W.R.Y.Y.Z.O.y t t t H o.K.R.R.L.F.$.( E Y / *.H.R.W.R.R.I.Z.O.y t t ",
"( *.P.R.Q.E.I.L.F.#.I L n.P.W.Q.Q.I.I.R.P.V.( E G ^ <.H.R.W.E.P.G.G.#.I L n.H.W.W.W.Y.I.R.I.N.( E E ",
"U.U.R.Y.P.P.L.L.F. .r I C.R.W.Q.W.P.H.I.P.D.Z.#.( D.U.E.I.I.P.L.G.G...r G C.R.Q.Q.W.I.P.I.G.G.B.#.G ",
"Q.Q.Q.R.P.L.L.L.F.} q G C.R.R.R.R.L.L.L.L.L.L.o.! U.Q.W.R.P.L.L.L.F.} e G <.R.R.R.R.P.L.L.L.L.G.#.D ",
"Q.Q.W.Q.R.L.L.L.G.} r G *.H.P.P.P.L.L.P.K.V.V.} i J.E.Q.W.R.L.L.L.G.} e G *.G.P.P.P.L.L.L.P.L.G. .q ",
"Q.W.I.I.P.L.L.L.F.} e G *.L.R.R.R.P.P.I.[ 5 5 > > 5 ;.P.P.P.L.L.L.F.} e G $.P.R.R.R.P.P.R.R.R.L. .0 ",
"Q.R.P.L.L.L.L.V.,.p e G #.Z.Y.W.Q.I.K.1.M ; j j j % N -.V.L.L.L.V.,.p e G #.A.Y.W.W.R.Y.R.W.R.G. .0 ",
"Q.Q.R.P.L.L.G.,.i q r G ^ / Z.Y.Q.W.;.1 x 9.p.f.p.8.x < -.D.L.G.,.u q e G E ( D.I.Q.W.W.P.P.L.V.} 0 ",
"I.I.I.L.L.F.@.p q r A P U Y ` Z.K.=.M x 9.f.'.[.'.(.r.x N X.F.@.p e e G I U L ` N.I.I.P.L.L.V.o.u 0 ",
"V.V.L.L.F.,.p 7 e F ( _ P C Z J =.< f 9.s.).oX@X@X@X~.8.; < +.i 0 e ! / _ _ _ W O.N.M.M.M.M.@.q q e ",
"W *.L.L.%.u q 9 G &.A.A.] o o & &   k s.g.(.oX@X@X@X'.p.j . > 2 e F #.A.A.A.m./ F r u u u u r q t G ",
"U ~ ....p q r Q &.S.D.[ 1 O + + +   c f.c.(.oX@X@X@X X).r.v j , 2 : :.Y.R.P.F.*.! y t F  .o.o.o.! E ",
"L P 9 9 9 9 A ` D.R.J., + $ $ $ $ @ v f.g.(.}.@X@X@X@XoX).f.9.k - * { T.W.R.P.L.N.~ G O.K.L.L.L.*.E ",
"I I K K K K T _ G.R.J., + $ $ # + g 0.g.g./.(.{.@X@X@X@XXX}.'.x.e.n j ' T.W.E.P.A.N.p ..I.W.W.W.P.A.",
"#.) L L T T _ m.I.W.J., + $ # $ g 8.d.).'._.'.OX=X=X=X=X:X=X&X X(.d.5.m { j.R.P.L.F.p } P.R.R.R.I.L.",
"L.*./ L T T m.I.E.Q.J., O $ O g 8.d._.oX@X@X@X:X3X2X3X3X3X2X2X*X@X Xz.n * ] L.L.L.V.p } D.P.P.L.P.G.",
"L.A.m./ U R S.E.Q.Q.J.,   @ l 8.d._. X@X@X%X:X2X3X3X3X3X3X3X3X,X:X@X(.q.- ' L.L.L.V.p } U.E.R.L.G.L.",
"L.L.F.! A Y S.E.Q.E.2.,   @ B d._. X@X@X%X:X3X3X3X3X3X3X3X3X3X3X,X@X Xv.k N -.A.V.@.i } R.Q.W.I.I.I.",
"L.L.V.p t E m.I.Q.I.:.>   ; u.).oX@X@X%X:X3X3X3X3X3X3X3X3X3X3X3X,XOX>X.Xe.h < %.@.u q | R.Q.W.W.W.W.",
"L.L.V.p t E N.I.E.E.2., $ n p.'.@X@X%X:X2X3X3X3X3X3X3X3X3X,X:X6X4X`.~.z.s.b X i i q t ..P.Y.I.I.I.I.",
"L.L.V.p r E *.D.R.E.j., z y.!.[.@X@X*X2X3X3X3X3X3X3X4X3X3X:X|.4X-Xk.6.B d.5.. 3 q e A ~ ,.A.P.P.P.I.",
"P.L.B.i t G E #.L.L.:.& 3.g.{.oX@X@X*X2X3X3X3X3X3X3X3X3X3X$X~.l.w.6 - k p.3.X 2 r A U P p %.P.R.W.W.",
"L.M.p u r G U W }  .a X 5./.XX%X@X@X*X2X3X3X3X3X3X3X3X3X3X>X#X].^.k.k.t.y.v X w A L L L D Q %.P.R.Y.",
"B.} q u p W ) U r q 3 X 5./.}.@X@X%X*X2X3X3X3X3X3X3X3X3X3X3X3X3X3X2X=X|.y.g o D ) _ _ _ ~ y p ,.B.M.",
"u q r @.B.V.V.*.E G t X 5./.XX@X@X@X*X2X3X3X3X3X3X3X3X3X3X3X3X3X,X*X:X#Xq.g & -.H.H.Y.H.Z.( F i u u ",
"t p @.K.I.I.P.A.$.( V X 5./.XX@X@X@X*X3X3X3X3X3X3X3X3X3X3X2X1X6X4X|.`.^.u.v = 1.E.Q.E.R.I.Z.O.y t r ",
"( *.P.R.W.W.I.G.G.#.S X 3.g.{.+X@X@X*X3X3X3X3X3X3X3X3X3X3X:X%X5X;Xv.e.0.d.5., D.Q.Q.P.I.E.P.N.( E E ",
"H.R.W.I.I.P.L.L.F...0 . z y.c.[.+X@X%X2X3X3X3X3X3X3X3X3X3X$X(.b.w.c ; x a.5., J.Q.Q.U.H.P.L.G.B.#.G ",
"Q.Q.W.I.I.G.L.L.G.} 3 . $ n p._.@X@X%X:X2X3X3X3X3X3X3X3X3X>X|.^.k.h.4.4.i.b , 2.R.Y.I.G.L.L.L.G.#.A ",
"Q.Q.Q.W.I.P.L.L.G.} 3 .   ; u._.oX@X%X%X,X2X3X3X3X3X3X3X3X3X1X<X<X<X$X).9.h < >.I.L.G.G.L.L.L.F. .q ",
"Q.W.I.I.P.G.L.L.L.p 3 .   - 6.s._.XX@X@X%X:X3X3X3X3X3X3X3X3X3X3X2X2XOXx.k N -.P.R.W.P.P.R.E.R.L. .0 ",
"Q.E.P.L.L.L.L.V.,.p 3 .   + l 8.d.).XX@X@X%X,X2X3X3X3X3X3X3X3X3X2X,X`.r.@ S Z.R.E.W.R.I.R.R.R.G. .0 ",
"W.W.W.P.L.L.G.,.u q 3 . + $ @ g 8.d._.oX+X@X@X:X3X2X2X3X2X3X2X2X>XOXf.n * 8 O.Z.I.Q.W.R.P.I.L.F.} 0 ",
"R.I.I.L.L.F.%.p q e w X + $ + % g 8.d.).'.'.'.XX:X=X=X=X:X=X*XOX`.f.5.s d C Y ` Z.U.R.I.L.L.V...u 0 ",
"V.F.G.L.F.,.p q r Q D o + $ $ + + l 0.g.g.!.(.{.@X@X@X@X@X+X{.v.e.n m 4 W _ R W O.,.M.M.B.M.@.q q e ",
"/ *.G.G.&.u q e G &.-.& # $ $ $ # @ v f.c.~.}.+X@X@X@X@X@X{.c.3.- * ] B.A.F.N.( D u u u u u q q t G ",
"U W ....p 9 e Q $.H.K.[ m @ O + @   c f.g.).oX@X@X@X}.[.'.g.7.m 4 ' >.R.Y.I.F.m.! y t y  .o.o.o.! E ",
"L y 9 9 9 9 P #.D.R.Q.W.=., & , &   k p.g.).oX@X@X%X'.f.a.w.= V ` V.R.Q.W.R.P.G.N.^ E #.G.L.L.L.*.( ",
"I I K K K K K _ G.R.Q.Q.T.J.>.:.=.< f 9.s.(.oX@X@X@X/.9.k d C K _ G.R.Q.Q.W.R.I.F.N.p ..U.W.W.W.H.B.",
"$./ U T T T _ m.P.W.W.R.R.R.P.L.D.w = k 0.f.'.[.'.(.r.h : 8 T _ m.P.W.Q.R.R.I.P.L.V.p } I.R.R.R.P.L.",
"G.*./ L T T m.Y.W.W.W.P.L.L.L.L.V.p 2 = x 0.p.f.p.8.x , Z L T m.I.W.W.W.I.P.L.L.L.V.p } L.L.P.L.L.L.",
"L.F.m.( L R S.W.Q.Q.W.E.I.L.L.L.V.p H ;.M ; j c h ; M +.^ L R S.W.W.Q.Q.W.P.L.L.L.V.p } I.E.R.L.L.L.",
"L.G.D.! A R S.R.Q.W.R.E.P.L.G.V.@.u X.U.;.M N N ' 5 X.A.! A Y S.W.Q.W.R.R.I.L.L.V.@.u | T.Q.W.I.I.I.",
"L.L.V.p t E Z.Y.W.I.P.L.L.L.G.@.r q | R.E.T.T.T.K.D.F.B.p t I N.P.W.R.P.L.L.L.V.@.e q ..E.W.W.W.W.W.",
"L.L.V.p r E N.P.W.W.R.L.L.F.o.u q r ..P.I.I.I.I.I.L.L.V.p r E C.P.W.W.I.L.L.V.@.i q t O.P.I.I.I.I.I.",
"L.L.V.p t G *.D.R.W.R.L.V.@.u q e A ~ M.F.L.P.P.P.L.L.B.p r E $.D.R.W.I.L.B.%.r q r A ( ,.V.P.P.I.P.",
"G.G.B.p t G W #.F.G.G.G.@.r q r I L P i %.P.E.W.E.L.L.B.p r E ^ #.G.L.L.L.@.r q r G P P p %.P.E.W.E.",
"L.M.} q r E I W  . . . .u q t A L L K D Q %.P.Y.I.L.M.} e r G I W .. . . .i 0 t A L L K y Q %.P.R.I.",
"G.@.q q r I L K 7 0 0 0 0 e A I L T L I r p V.L.G.L.@.q 0 r E L K 7 0 0 0 0 q A U T T L G r p A.L.L."
};
