/* XPM */
static char *out[] = {
/* columns rows colors chars-per-pixel */
"50 50 181 2 ",
"   c #AE8336",
".  c #AE8337",
"X  c #AE8437",
"o  c #AF8438",
"O  c #AF8539",
"+  c #B1873B",
"@  c #B1883D",
"#  c #B2893E",
"$  c #B38A40",
"%  c #B48C42",
"&  c #B58D43",
"*  c #B58D44",
"=  c #B58E45",
"-  c #B68E45",
";  c #B68F47",
":  c #BE9349",
">  c #BE934A",
",  c #BF944B",
"<  c #BB954F",
"1  c #BF954C",
"2  c #C0974E",
"3  c #C1974F",
"4  c #C29A53",
"5  c #C39B54",
"6  c #C49C56",
"7  c #C49D57",
"8  c #C59E5A",
"9  c #C59F5A",
"0  c #C19F5C",
"q  c #C3A05E",
"w  c #CFA35A",
"e  c #CFA35B",
"r  c #CFA45C",
"t  c #D0A55D",
"y  c #D0A65E",
"u  c #D0A65F",
"i  c #C5A362",
"p  c #C5A363",
"a  c #C7A564",
"s  c #C6A565",
"d  c #C9A360",
"f  c #C9A562",
"g  c #CAA665",
"h  c #C8A869",
"j  c #C9A869",
"k  c #CCA969",
"l  c #CDAB6C",
"z  c #CCAC6E",
"x  c #CFAD6E",
"c  c #D1A761",
"v  c #D1A863",
"b  c #D3AB66",
"n  c #D3AB67",
"m  c #D7AB6B",
"M  c #D4AC69",
"N  c #D4AD6A",
"B  c #D7AC6D",
"V  c #D4AE6C",
"C  c #D5AF6D",
"Z  c #D7AD6E",
"A  c #D8AD6E",
"S  c #D8AE6F",
"D  c #D6B06F",
"F  c #CCAD70",
"G  c #D8AE70",
"H  c #D8AF70",
"J  c #CEB075",
"K  c #CFB176",
"L  c #CFB277",
"P  c #D6B271",
"I  c #D7B271",
"U  c #D7B373",
"Y  c #D1B174",
"T  c #D7B475",
"R  c #D9B174",
"E  c #DAB377",
"W  c #D8B577",
"Q  c #D9B577",
"!  c #D4B67B",
"~  c #D3B67D",
"^  c #DAB478",
"/  c #DBB57A",
"(  c #DBB67A",
")  c #DBB67B",
"_  c #DCB67C",
"`  c #DCB77D",
"'  c #DAB97C",
"]  c #DAB97D",
"[  c #DABA7E",
"{  c #D6B980",
"}  c #D6BC84",
"|  c #D7BC85",
" . c #DBBB83",
".. c #DDBA81",
"X. c #DDBB81",
"o. c #DDBB82",
"O. c #DABC83",
"+. c #DCBD83",
"@. c #DEBC83",
"#. c #D9BC84",
"$. c #D9BD84",
"%. c #DABD85",
"&. c #DABE87",
"*. c #DEBC84",
"=. c #DCBE84",
"-. c #DDBE85",
";. c #DEBE86",
":. c #DFBF87",
">. c #DAC08A",
",. c #DBC08A",
"<. c #DEC189",
"1. c #DFC28B",
"2. c #DBC28C",
"3. c #DBC28D",
"4. c #DCC28C",
"5. c #DFC38C",
"6. c #DEC38D",
"7. c #DCC38E",
"8. c #DFC590",
"9. c #DEC591",
"0. c #DFC692",
"q. c #DEC793",
"w. c #DFC896",
"e. c #E0C18A",
"r. c #E0C38C",
"t. c #E0C58E",
"y. c #E1C58F",
"u. c #E1C490",
"i. c #E0C590",
"p. c #E1C691",
"a. c #E1C792",
"s. c #E2C692",
"d. c #E2C794",
"f. c #E0C895",
"g. c #E3C895",
"h. c #E2C995",
"j. c #E0C896",
"k. c #E0C996",
"l. c #E1C996",
"z. c #E1C997",
"x. c #E2CA98",
"c. c #E3CB98",
"v. c #E2CB99",
"b. c #E2CB9A",
"n. c #E3CB9A",
"m. c #E4CB99",
"M. c #E4CB9A",
"N. c #E2CC9A",
"B. c #E3CC9A",
"V. c #E3CC9B",
"C. c #E4CC99",
"Z. c #E4CC9A",
"A. c #E4CC9B",
"S. c #E3CC9C",
"D. c #E3CD9C",
"F. c #E4CD9C",
"G. c #E5CD9C",
"H. c #E4CE9D",
"J. c #E5CE9D",
"K. c #E4CE9E",
"L. c #E5CF9E",
"P. c #E4CF9F",
"I. c #E5CF9F",
"U. c #E6CE9E",
"Y. c #E6CF9F",
"T. c #E5D09F",
"R. c #E5CFA0",
"E. c #E5D0A0",
"W. c #E5D0A1",
"Q. c #E6D0A0",
"!. c #E6D0A1",
"~. c #E6D1A1",
"^. c #E6D1A2",
"/. c #E6D1A3",
"(. c #E6D2A2",
"). c #E6D2A3",
"_. c #E7D2A3",
"`. c #E7D3A4",
"'. c #E7D3A5",
"]. c #E8D3A5",
"[. c #E8D4A6",
/* pixels */
"w w w w Q l.0                 s E.[.r.c w w w w w w w w w Q l.0                 s E.[.r.c w w w w w ",
"w w w w Q l.0                 < J k.r.c w w w w w w w w w W l.0                 < J k.r.c w w w w w ",
"w w e c ] z.0                 X = | r.c w w w w w w w e c ] z.0                 X = | r.c w w w w w ",
"w w c =.C.b.0                   % } r.c w w w w w w w c =.C.b.0                   % } r.c w w w w w ",
"w n ' C.[.S.0                   % } r.c w w w w w w n ' C.[.S.0                   % } r.c w w w w w ",
"c [ T.`.[.D.i @ .               % } t.b r w w w e u [ T.`.[.D.i @ .               % } t.b r w w w w ",
"r.c.'.[.[.^.2.j #               % } J.1.C w w w v +.c.'.[.[.^.2.j #               % } J.1.C w w w w ",
",.,.,.,.,.4.D.7.q *           * q 7.[.^.-.I I I T %.,.,.,.,.4.D.7.q *           * q 7.[.^.-.I I I I ",
"4 4 4 4 4 9 &.P.w.p + + + + + p j.^.[.'.Q.J.J.J.8.d 4 4 4 4 9 &.P.w.p + + + + + p j.^.[.'.Q.J.J.J.J.",
": : : : : 1 f { H.>.L L L L L >.).[.[.[.[.[.[.[.f.8 : : : : 1 f { H.>.L L L L L >.).[.[.[.[.[.[.[.[.",
": : : : : : : g D.[._.A.m.m.m.m.m.m.m.M.!.[.'.V.#.6 : : : : : : g D.[._.A.m.m.m.m.m.m.m.M.!.[.'.V.9.",
": : : : : : : g D.].Z.) R R R R R R R E s.].).! 5 , : : : : : : g D.].Z.) R R R R R R R E s.].).! 7 ",
": : : : : : : g B.g.o.S m m m m m m m B ` u.I.Y : : : : : : : : g B.g.o.S m m m m m m m B ` u.I.Y : ",
": : : : : : : g v.*.m m m m m m m m m m m ( A.Y : : : : : : : : g v.*.m m m m m m m m m m m ( A.Y : ",
": : : : : : : g v.@.m m m m m m m m m m m / A.Y : : : : : : : : g v.@.m m m m m m m m m m m / A.Y : ",
": : : : : : : g v.@.m m m m m m m m m m m / A.Y : : : : : : : : g v.@.m m m m m m m m m m m / A.Y : ",
": : : : : > 3 l n.@.m m m m m m m m m m m / A.Y : : : : : : > 3 l n.@.m m m m m m m m m m m / A.Y : ",
": : : : : 2 Y 0.R.@.m m m m m m m m m m m / A.Y : : : : : : 2 Y 0.R.@.m m m m m m m m m m m / A.Y : ",
"k k k k k x 9.[._.@.m m m m m m m m m m m / G.$.k k k k k k x 9.[._.@.m m m m m m m m m m m / G.$.k ",
"x.x.x.x.N.K.).[._.;.Z m m m m m m m m m B ` U.L.x.x.x.x.x.N.K.).[._.;.Z m m m m m m m m m B ` U.L.x.",
"Q Q Q Q <.(.[.[.'.m.:.H m m m m m m m B X.g.~.5.Q Q Q Q Q <.(.[.[.'.m.:.H m m m m m m m B X.g.~.5.Q ",
"w w w w D i.Y.[.[.[.G.../ ^ A m m m G _ g.!.a.U w w w w w D i.Y.[.[.[.G.../ ^ A m m m G _ g.!.a.U w ",
"w w w w t M y.'./.^.Q.F.A.d.E B B B ` Z.~.a.V y w w w w w t M y.'./.^.Q.F.A.d.E B B B ` Z.~.a.V y w ",
"w w w w w c r.q.F h h h h z  .e.e.e.d.Q.5.U y w w w w w w w c r.q.F h h h h z  .e.e.e.d.Q.5.U y w w ",
"w w w w u N O.K $         & ~ b.'.[.~.h.P w w w w w w w w u N O.K $         & ~ b.'.[.~.h.P w w w w ",
"w w w w P 6.a * o         O - F W.[.p.V u w w w w w w w w P 6.a * o         O - F W.[.p.V u w w w w ",
"w w w w Q l.0                 < J k.r.c w w w w w w w w w W l.0                 < J k.r.c w w w w w ",
"w w e c ] z.0                 X = | r.c w w w w w w w e c ] z.0                 X = | r.c w w w w w ",
"w w c =.C.b.0                   % } r.c w w w w w w w c =.C.b.0                   % } r.c w w w w w ",
"w n ' C.[.S.0                   % } r.c w w w w w w n ' C.[.S.0                   % } r.c w w w w w ",
"c [ T.`.[.D.i @ .               % } t.b r w w w e u [ T.`.[.D.i @ .               % } t.b r w w w w ",
"r.c.'.[.[.^.2.j #               % } J.1.C w w w v +.c.'.[.[.^.2.j #               % } J.1.C w w w w ",
",.,.,.,.,.4.D.7.q *           * q 7.[.^.-.P P P T %.,.,.,.,.4.D.7.q *           * q 7.[.^.-.P P P P ",
"4 4 4 4 4 9 &.P.w.p + + + + + p j.^.[.'.Q.J.J.J.8.d 4 4 4 4 9 &.P.w.p + + + + + p j.^.[.'.Q.J.J.J.J.",
": : : : : 1 f { H.>.L L L L L >.).[.[.[.[.[.[.[.f.8 : : : : 1 f { H.>.L L L L L >.).[.[.[.[.[.[.[.[.",
": : : : : : : g D.[._.A.m.m.m.m.m.m.m.M.!.[.'.V.#.6 : : : : : : g D.[._.A.m.m.m.m.m.m.m.M.!.[.'.V.9.",
": : : : : : : g D.].Z.) R R R R R R R E s.].).! 5 , : : : : : : g D.].Z.) R R R R R R R E s.].).! 7 ",
": : : : : : : g B.g.o.S m m m m m m m B ` u.I.Y : : : : : : : : g B.g.o.S m m m m m m m B ` u.I.Y : ",
": : : : : : : g v.*.m m m m m m m m m m m ( A.Y : : : : : : : : g v.*.m m m m m m m m m m m ( A.Y : ",
": : : : : : : g v.@.m m m m m m m m m m m / A.Y : : : : : : : : g v.@.m m m m m m m m m m m / A.Y : ",
": : : : : : : g v.@.m m m m m m m m m m m / A.Y : : : : : : : : g v.@.m m m m m m m m m m m / A.Y : ",
": : : : : > 3 l n.@.m m m m m m m m m m m / A.Y : : : : : : > 3 l n.@.m m m m m m m m m m m / A.Y : ",
": : : : : 2 Y 0.R.@.m m m m m m m m m m m / A.Y : : : : : : 2 Y 0.R.@.m m m m m m m m m m m / A.Y : ",
"k k k k k x 9.[._.@.m m m m m m m m m m m / G.$.k k k k k k x 9.[._.@.m m m m m m m m m m m / G.$.k ",
"x.x.x.x.N.K.).[._.;.Z m m m m m m m m m B ` U.L.x.x.x.x.x.N.K.).[._.;.Z m m m m m m m m m B ` U.L.x.",
"Q Q Q Q <.(.[.[.'.m.:.H m m m m m m m B X.g.~.5.Q Q Q Q Q <.(.[.[.'.m.:.H m m m m m m m B X.g.~.5.Q ",
"w w w w D i.Y.[.[.[.G.../ ^ A m m m G _ g.!.a.U w w w w w D i.Y.[.[.[.G.../ ^ A m m m G _ g.!.a.U w ",
"w w w w t M y.'./.^.Q.F.A.d.E B B B ` Z.~.a.V y w w w w w t M y.'./.^.Q.F.A.d.E B B B ` Z.~.a.V y w ",
"w w w w w c r.q.F h h h h z  .e.e.e.d.Q.5.U y w w w w w w w c r.q.F h h h h z  .e.e.e.d.Q.5.U y w w ",
"w w w w w c r.} %         ; 3.[.[.[.[.Q.Q w w w w w w w w w c r.} %         ; 3.[.[.[.[.Q.Q w w w w "
};
