/* XPM */
static char *out[] = {
/* columns rows colors chars-per-pixel */
"50 50 216 2 ",
"   c #0D0432",
".  c #100735",
"X  c #130A36",
"o  c #160D3B",
"O  c #1D1233",
"+  c #1A123D",
"@  c #291928",
"#  c #301E28",
"$  c #251A34",
"%  c #251936",
"&  c #251B3A",
"*  c #3A2727",
"=  c #2C213B",
"-  c #382B37",
";  c #452D1E",
":  c #4C321C",
">  c #573A1A",
",  c #452D24",
"<  c #49352A",
"1  c #543B26",
"2  c #463230",
"3  c #463837",
"4  c #5B4418",
"5  c #714E0F",
"6  c #6B4712",
"7  c #6D4912",
"8  c #684819",
"9  c #714D12",
"0  c #715210",
"q  c #755113",
"w  c #7A5311",
"e  c #7B5817",
"r  c #755419",
"t  c #7B5C1D",
"y  c #786009",
"u  c #54422F",
"i  c #54453C",
"p  c #58483A",
"a  c #69512C",
"s  c #755722",
"d  c #6A5A39",
"f  c #7C632B",
"g  c #776335",
"h  c #74643C",
"j  c #7C6C3C",
"k  c #190F40",
"l  c #1D1441",
"z  c #1F1845",
"x  c #231B46",
"c  c #241B4B",
"v  c #281F48",
"b  c #2B2243",
"n  c #27204B",
"m  c #2B244B",
"M  c #342B4A",
"N  c #3C3248",
"B  c #2C2552",
"V  c #2F2856",
"C  c #332C54",
"Z  c #302659",
"A  c #332A5B",
"S  c #383257",
"D  c #3A335B",
"F  c #362E60",
"G  c #392E64",
"H  c #3B3265",
"J  c #3E3A65",
"K  c #3E3668",
"L  c #3F3969",
"P  c #433747",
"I  c #463B53",
"U  c #423B5C",
"Y  c #433C64",
"T  c #423C6C",
"R  c #4C414A",
"E  c #544744",
"W  c #5D5144",
"Q  c #554B5A",
"!  c #655644",
"~  c #685B54",
"^  c #7B6746",
"/  c #474064",
"(  c #494365",
")  c #45416D",
"_  c #4A4469",
"`  c #4E486C",
"'  c #534C6C",
"]  c #5B536D",
"[  c #474371",
"{  c #4A4573",
"}  c #4C4975",
"|  c #4F4D78",
" . c #514C73",
".. c #544E7A",
"X. c #565174",
"o. c #595475",
"O. c #56527C",
"+. c #5A567C",
"@. c #5E597B",
"#. c #675C63",
"$. c #645C75",
"%. c #625D7D",
"&. c #68627C",
"*. c #746B79",
"=. c #845E0D",
"-. c #825B15",
";. c #895E11",
":. c #866805",
">. c #8C6D06",
",. c #826509",
"<. c #8B630D",
"1. c #8D6A09",
"2. c #8D7203",
"3. c #8E720A",
"4. c #90710C",
"5. c #8D6212",
"6. c #896719",
"7. c #906915",
"8. c #916919",
"9. c #927217",
"0. c #836524",
"q. c #886726",
"w. c #866A26",
"e. c #896B26",
"r. c #896E29",
"t. c #916E22",
"y. c #8C722C",
"u. c #957323",
"i. c #93772B",
"p. c #9B7C2A",
"a. c #83723D",
"s. c #8C793A",
"d. c #947C32",
"f. c #937F3A",
"g. c #A17F2D",
"h. c #816E46",
"j. c #887345",
"k. c #917B47",
"l. c #9B8229",
"z. c #9C8333",
"x. c #95823C",
"c. c #9A863B",
"v. c #9D893C",
"b. c #A2822C",
"n. c #A38934",
"m. c #A38D3C",
"M. c #A5913E",
"N. c #9C8743",
"B. c #A58D45",
"V. c #A68E4B",
"C. c #A69340",
"Z. c #AA9543",
"A. c #AF9846",
"S. c #A79049",
"D. c #AB934B",
"F. c #B19342",
"G. c #B09947",
"H. c #B49C4A",
"J. c #B89F4D",
"K. c #BBA04E",
"L. c #BDA351",
"P. c #5B5780",
"I. c #5D5B82",
"U. c #635E83",
"Y. c #656286",
"T. c #696588",
"R. c #6D6A8C",
"E. c #726D8B",
"W. c #77728D",
"Q. c #6F6D90",
"!. c #726E90",
"~. c #757293",
"^. c #797694",
"/. c #7E7B97",
"(. c #7C7A99",
"). c #827E99",
"_. c #85829C",
"`. c #8A869C",
"'. c #938E9F",
"]. c #8684A0",
"[. c #8987A2",
"{. c #8C8AA5",
"}. c #908CA3",
"|. c #918FA9",
" X c #9693A8",
".X c #9492AB",
"XX c #9C99AD",
"oX c #9D9BB2",
"OX c #A39EAE",
"+X c #A09DB2",
"@X c #A4A2B6",
"#X c #AAA7B5",
"$X c #A6A4B8",
"%X c #A8A6B9",
"&X c #ADABBC",
"*X c #B0AEBE",
"=X c #B1AFC0",
"-X c #B5B3C2",
";X c #B8B6C5",
":X c #BCB9C7",
">X c #BDBBC9",
",X c #C1BECC",
"<X c #C4C2CE",
"1X c #C9C6CF",
"2X c #C5C3D1",
"3X c #C9C7D1",
"4X c #CCCAD4",
"5X c #D0CED7",
"6X c #D1CFD9",
"7X c #D5D3DB",
"8X c #D7D5DB",
"9X c #D9D6DD",
"0X c #DEDCE2",
"qX c #E1DFE5",
"wX c #E5E3E9",
"eX c #F4F2F6",
/* pixels */
"6 6 q d.Z.C.C.z.7.5.;.5.5.8.n.G.L.L.H.M.9.;.7 * @ > 8 r d.C.C.C.z.7.;.5.5.5.7.n.F.L.L.J.M.u.=.6 6 6 ",
"w -.r.B.G.G.Z.n.p.8.<.1.9.p.M.J.L.J.H.F.n.f < Q *.2 8 r.B.G.A.Z.n.p.8.5.1.9.g.M.J.K.J.G.G.z.t.-.w w ",
"8.p.C.D.V.V.S.M.m.u.;.>.p.M.J.L.K.Z.F.K.A.j = `.1XS u B.H.K.J.Z.M.m.u.<.1.l.M.J.L.L.B.c.V.B.n.8.5.5.",
"F.G.V.p - 3 a.M.m.e.w 5.b.J.L.L.K.G.Z.M.C.j $ '.5XC p H.A.A.Z.Z.C.m.e.w ;.b.J.L.L.D.p - 3 j M.z.u.;.",
"L.L.V.- B $.~ d g 8 9 ;.g.H.H.H.H.Z.C.M.j W D OX9Xo.E ^ B.Z.Z.C.C.m.w.9 =.b.D.j.^ ^ #._ % d C.M.t.=.",
"L.L.V.3 $.;X$.= & < 7 e i.C.Z.Z.Z.M.Z.v.i m T.:XqX{._ = k.G.C.C.C.m.0.9 -.y.j.3 b D OX XN h C.M.e.7 ",
"L.J.Z.a.~ $.}.XXW.I @ * d M.G.J.K.Z.Z.S.3 C `.2X0X%Xo.$ j.Z.C.C.C.m.0.4 * * P &.`.XXE.#.h.B.G.M.0.6 ",
"L.J.A.M.d b XX9X,XE.S B E j j.N.K.G.B.j.R ' &X6X0X2X^.C d a.M.C.x.g a , M C { @X7X4X_ 3 V.J.G.S.e.6 ",
"L.L.J.Z.d b W.<XwX,X.X!.( & & W H.K.^ = ( ).<X8X8X7X+X@.M i x.v.h = % b &._.$X0X7XoXU 3 N.Z.C.B.0.6 ",
"G.G.A.C.s.d Q W.,X7X4X+X/.Y.` Q E p - X n / %.&.&.&.' C o O 3 i R / +.E.|.;X0X6XXX] W h m.M.c.w.r 7 ",
"z.v.C.C.m.s.- D .X4XqX2X-X$X{.+.n X . o l x x x z n z z + .   + J ^..X=X>X7X0X=X@.& d z.z.z.y.q 9 9 ",
"8.p.M.M.d.8 * B !.+X2XwX4X&X$X[.I.n + A | Y.Y.Y.Y.Y.Y.%.J n o ) ~.oX=X;XwX7X=X[.` O > r r r 9 9 w ;.",
"1.7.e.e.t 7 > 3 Y E.oX4X7X5X-X/.J C H O.(.|.|.|.|.|.|.[.Y.) V J %.@X<X0X7X-X_. .P < 9 -.q.r.r.e.6.;.",
"2.y 5 5 5 0 y 4 O / (.oX4XqX%X@.n J I.(.XX&X*X-X-X-X=X$X[.R.| n D [.3X0X&X[.U.x , 6.;.t.m.Z.Z.C.g.8.",
"<.<.:.:.:.:.>.0 O F U.(.oX$X` C J I.(.oX#X;X7X8X9X9X<X&X$X{.R.} D D ).-X{.R.{ l 3 d.-.r.G.J.J.J.F.z.",
"p.9.>.>.2.2.4.r.p P J R.R.@.V A | T.[.%X&X:X0XwXqXwX3X=X&X.X~.P.L c ( T.~.} S 3 h v.s 0.A.H.H.H.Z.C.",
"M.p.7.1.2.3.b.A.D.E c P.K z F L | Y.].oX%X>X9X0X0X0X3X=X$X|.Q.P.[ G c B P.H $ j M.v.t f m.Z.C.C.M.M.",
"M.m.p.9.2.3.n.J.H.i X c B Z K [ } O.Y.].oX=X;X>X>X>X-X$X|.~.P.| } T G B m + = a.M.v.t 0.A.J.H.C.Z.M.",
"C.C.m.6.<.4.n.J.H.E     z H [ } } Y.(.@X%X%XoXXXXXXXoX&X$X{.R.O.} { L Z X   O a.v.y.e w.H.L.K.A.A.A.",
"M.C.v.t w 5.b.C.D.3   . c H [ | I.|.,XwX2X@X].(.(.(.XX;XqX7X$XQ.| } L Z o   O j y.q 7 w.H.L.K.K.K.K.",
"Z.M.v.t w 5.g.k.E % X c G T { Y.{.2XwXeXwX6XoX^.T.{.;XqXeXeX7X$X~.P.T L B + X - 1 6 w e.Z.A.A.A.A.G.",
"M.Z.v.t 8 8 g ! M o o A T } } (.>X0X0X,X>X&X`.Y.O.~.oX:X>X4XqX4XoXP.} [ G x . x - > 8 s d.m.Z.Z.Z.Z.",
"Z.C.z.t , @ $ S %.A o A T { } .XqX2X].C B m n D ) n n M m +.=X0X>XI.} [ H c +  ./ O O * 8 d.C.J.K.K.",
"C.j u * 2 Y X.E.).Y k Z T } } .XqX].D + o.T.+ C J + / ~.m n I.,X2XI.} [ G c x ~./.%.` I * 2 d V.G.G.",
"a.! S S ] ].$X-X#X_ o A T { } |.7X'   + _.XXn V J k &.&XD   + #X2XI.} [ K z x `.=X=XXXR.D S R a.x.z.",
"= E.4X5X5X5X7X4X%X` o A T } } {.1X_   . v m X V J o z B +   & XX;XP.} [ G c c ].,X8X5X4X5X5X@XP 1 r ",
"; ~ `.'.|.oX&X%X|.Y o A T } } {.1XE.m         V ) k       l ( #X-XP.} [ H c z !.+X&X@XXX'.`.*.u 8 q ",
"7.u = $ M _ I.R.R.A o A T } { ].4XXXU.M b x x H ) n z n n _ _.>X=XP.} [ H c k P.R.T.O.D = % - t 5.5.",
"Z.N.k.j.p x c C } B o A T { T !.-X<X>X&X#XOX_.Y.O.^. X#X&X*X1X,X|.} T } H z o ) T m z N h j s.z.u.5.",
"K.L.K.A.j.u 3 N C l X c G { G O.[.:X8X0X7X,X}.U. .(.%X5X0X9X3XOXQ.L T T V + . B N 3 3 d v.M.Z.M.u.w ",
"L.L.L.K.A.N.v.j $ X     V { K T +.{.*X5X:X|.P.T K } ^.%X3X,X@XR.[ K L J k     + p x.c.N.M.Z.M.M.r.6 ",
"L.J.A.A.Z.C.C.x.h -     B { K G T o.Y.E.U.O.T H G K { U.R.R.@.[ K H ) J o   O ! N.H.Z.A.H.K.G.M.w.6 ",
"L.J.A.Z.M.M.Z.v.d.2     n T L K G G G G G G G G G G G G G G G G H K T H X   $ k.K.K.H.A.H.K.H.C.w.6 ",
"K.K.H.Z.M.M.M.d.8 * X X n H T L H H G G G G G G G G G G G G G G K T L Z + X & a.Z.K.K.H.Z.C.Z.v.q.6 ",
"G.G.G.Z.M.M.y.s * N  .&.L c K L T K G G G G G G G G G G H G H L T L Z B @.o./ R h Z.A.Z.Z.M.v.r.r 6 ",
"n.m.M.M.v.z.t : O [ _.@X!.D A H T K K K G G G G G G G G H K K T L A A  .XX}.Y.n 3 x.z.z.z.z.y.7 9 9 ",
"7.p.M.M.i.r 7 : O _ _.@X;X#XS c H T { [ T H G G G G H H T { [ K V x W.>X*X|.Y.x * 7 r q 0 r r 7 w ;.",
"1.7.r.r.t 8 : - U R.oX,X3X;XE./ c n A T T T ..o.P...{ T T H V c A o.XX4X1X&X_. .N , 8 -.w.r.w.w.6.5.",
"2.=.5 5 5 6 @ m ~.oX:X7X<X&X$X&.o   k Z H { I.Y.U.U...L A c     D |.#X-X7X1X&X[._ O 8 e.M.M.S.C.p.8.",
"<.,.:.:.:.y * S |.>X7X>X*X$X[.} .     o k l x c c c l l + X     B ^.XX&X-X4X5X&XU.O > e.G.K.K.K.Z.z.",
"p.9.1.2.y 4 P $.-X4X,XXX/.%.` R 3 * @ . v D D D D D D C + @ * u R ( +.Q.|.*X4X1X`.U - a Z.H.H.H.Z.Z.",
"m.p.7.1.4 $ o.XX4X-X X~.( = + E f.s 1 % _ T.!.(.^.^.R.+.b ; :.l.j = = M %._.@X4X=X~.M 3 N.C.Z.C.C.C.",
"M.n.p.8.4 & ).,X;XE.S M E h j x.c.-.s h.R ` }.=X>X@XY.M u 0 4.n.S.k.j.^ N A ( OX,X&XU 3 V.J.H.C.C.C.",
"M.Z.v.s p ] ).'.W.Q 3 - h M.M.c.i.r q.S.3 C [.,X7X$XX.O 8 ,.4.n.K.K.K.N.p - R &._.'.&.#.h.V.K.G.A.A.",
"Z.Z.x.- ' #X] & b ! N.c.v.M.M.y.q 7 w.S.i m T.&X4X].( $ > w 5.z.Z.K.A.C.v.c.j.N & N '.`.N ^ L.J.K.J.",
"M.M.x.- v ] ~ h ^ N.A.C.C.M.r.r 7 q e.C.a.d S ).$X` R d 8 w 5.b.A.K.K.A.M.M.x.4 , , Q U O h A.G.G.A.",
"M.M.x.< @ * g M.K.K.H.Z.v.d.r 7 q =.7.z.M.j $ o._.n i z.t q 5.p.M.G.K.H.Z.v.i.r 7 7 ; # # h C.A.Z.A.",
"M.M.z.a 8 w 5.9.m.M.M.M.r.0 7 0 <.>.y e d.j & ( Y.z u x.e w ;.5.u.M.C.C.B.y.9 6 w =.y 0 8 r.C.J.K.K.",
"M.z.f q 0 <.1.6.6.w.w.w.r 7 w =.>.>.:.-.6.f d I U p g f q 0 ;.1.1.w.w.w.w.r 7 w =.>.>.:.-.6.y.A.G.G.",
"C.y.7 6 w <.>.:.7 6 7 6 7 7 -.1.2.2.>.;.9 t x.u $ s.y.6 6 w ;.>.,.5 6 6 6 6 5 -.>.>.>.>.;.9 e m.C.C."
};
