/* XPM */
static char *out[] = {
/* columns rows colors chars-per-pixel */
"50 50 186 2 ",
"   c #6E4B0F",
".  c #714F0F",
"X  c #79530F",
"o  c #6B4711",
"O  c #6E4A12",
"+  c #734E11",
"@  c #755113",
"#  c #7A5311",
"$  c #7E5A12",
"%  c #755419",
"&  c #79571B",
"*  c #7B5C1D",
"=  c #845D0E",
"-  c #805711",
";  c #845C14",
":  c #895E11",
">  c #805D1A",
",  c #826506",
"<  c #866806",
"1  c #8C6C05",
"2  c #84650A",
"3  c #8B640D",
"4  c #876A0E",
"5  c #8D6B09",
"6  c #926C05",
"7  c #976B09",
"8  c #926E0E",
"9  c #8D7204",
"0  c #9A7206",
"q  c #9E7204",
"w  c #91750B",
"e  c #8D6313",
"r  c #8B6A13",
"t  c #82621E",
"y  c #8B661C",
"u  c #8E6A1C",
"i  c #906616",
"p  c #916B14",
"a  c #916B19",
"s  c #927413",
"d  c #937A13",
"f  c #94721C",
"g  c #9B761A",
"h  c #A67700",
"j  c #A57902",
"k  c #AB7D01",
"l  c #A57C0B",
"z  c #A57E14",
"x  c #836524",
"c  c #886726",
"v  c #866A26",
"b  c #896B25",
"n  c #896E29",
"m  c #916E21",
"M  c #8D732C",
"N  c #957323",
"B  c #987624",
"V  c #9D7B22",
"C  c #91762F",
"Z  c #94792C",
"A  c #9B7C2A",
"S  c #957D31",
"D  c #A17F2D",
"F  c #AC810C",
"G  c #B28300",
"H  c #B78800",
"J  c #BB8C00",
"K  c #B1860A",
"L  c #B58908",
"P  c #BF9001",
"I  c #BC920B",
"U  c #A68417",
"Y  c #B28B15",
"T  c #B8971E",
"R  c #9B8122",
"E  c #9D842B",
"W  c #978034",
"Q  c #9C8433",
"!  c #9D8739",
"~  c #9E893A",
"^  c #A78A25",
"/  c #A2822C",
"(  c #B59425",
")  c #B9972E",
"_  c #BC9C2A",
"`  c #A28634",
"'  c #A18B36",
"]  c #A88D34",
"[  c #A38D3C",
"{  c #A88D3A",
"}  c #AE9634",
"|  c #A5913E",
" . c #AA933D",
".. c #B39734",
"X. c #B19831",
"o. c #B0983F",
"O. c #B99A38",
"+. c #BCA22C",
"@. c #C29300",
"#. c #C79800",
"$. c #CB9C00",
"%. c #C49808",
"&. c #C69D10",
"*. c #C7A000",
"=. c #CEA300",
"-. c #CEA808",
";. c #D3A400",
":. c #D7A800",
">. c #DBAC00",
",. c #D4B403",
"<. c #DEB107",
"1. c #DCBB01",
"2. c #CCA512",
"3. c #D1A710",
"4. c #E3B400",
"5. c #E4BB00",
"6. c #EBBC00",
"7. c #E1B50C",
"8. c #C09B28",
"9. c #C1A32A",
"0. c #D3A924",
"q. c #DFC204",
"w. c #DBCA1D",
"e. c #E3C301",
"r. c #ECC000",
"t. c #E4CB00",
"y. c #EBCB01",
"u. c #F3C400",
"i. c #F8C700",
"p. c #F4CA00",
"a. c #FCCC00",
"s. c #E7D000",
"d. c #EDD300",
"f. c #EDD807",
"g. c #F0D400",
"h. c #FDD300",
"j. c #F7D800",
"k. c #FDDC01",
"l. c #F8D008",
"z. c #F8D908",
"x. c #E5C916",
"c. c #EDD312",
"v. c #F2D511",
"b. c #FEDF1C",
"n. c #FBE301",
"m. c #FDEB00",
"M. c #FDE50A",
"N. c #FEF401",
"B. c #FEFA02",
"V. c #FDE619",
"C. c #FDE91A",
"Z. c #FFF816",
"A. c #EED228",
"S. c #EDD133",
"D. c #F1D836",
"F. c #FBE929",
"G. c #FEF129",
"H. c #FCE938",
"J. c #FEF33C",
"K. c #FEF939",
"L. c #A69340",
"P. c #AA9543",
"I. c #AE9846",
"U. c #B19444",
"Y. c #B19946",
"T. c #B49C4A",
"R. c #B89F4D",
"E. c #B9A245",
"W. c #BBA04E",
"Q. c #BDA351",
"!. c #C0A64A",
"~. c #F6DD40",
"^. c #F2D44F",
"/. c #ECCA51",
"(. c #FCEF4F",
"). c #FEFC50",
"_. c #E2D768",
"`. c #FBDE6C",
"'. c #FEF36C",
"]. c #FFFC69",
"[. c #FCFB75",
"{. c #FEF47C",
"}. c #F6E887",
"|. c #FAEC84",
" X c #FEFB96",
".X c #FDF9E3",
/* pixels */
"o o % S L.L.L.Q e e e e 3 i ` Y.Q.Q.T.L.N ;   o o o o + S L.L.L.Q i 3 : i : e ' I.Q.Q.T.| f ; O o o ",
"# > n { Y.Y.P.[ A u 3 3 f A P.R.Q.T.Y.Y.` m $ # # # > n L.T.Y.P.' A a e 6 p A P.R.Q.R.Y.I.` m $ # # ",
"a A P.T.R.R.P.L.{ N 3 5 R P.R.Q.Q.I.P.R.P.` a e : i D P.T.Q.R.P.| | N 3 5 V P.R.Q.Q.I.P.W.I.! u e e ",
"U.U.T.Y.P.P.P.L.[ b @ 2 / R.W.!.W.P.P.P.P.| Q N a { U.T.I.P.P.P.| [ b @ 3 / W.Q.Q.Q.I.L.P.L.| Q N : ",
"Q.Q.W.T.P.L.L.L.[ x O : D T.T.T.Y.P.L.L.L.L.L.n c U.Q.W.T.P.L.L.L.| x + : D T.Y.Y.T.P.L.L.L.L.| m - ",
"Q.Q.Q.W.T.L.L.L.| x @ : A L.P.P.P.P.L.L.P.L.L.v & U.Q.W.W.Y.L.L.L.[ x + : A L.P.L.P.L.L.L.P.L.| c   ",
"Q.R.I.I.P.L.L.L.[ x + : B P.Y.R.T.P.P.T.T.I.L.v & U.R.I.I.P.L.L.| [ x + : A P.Y.R.Y.P.P.T.T.Y.L.v O ",
"Q.T.I.L.L.L.L.~ S * + : N ` Y.W.W.Y.Y.R.R.T.L.v & U.T.I.L.L.L.L.[ S * + : m ` Y.Q.W.T.I.R.R.Y.P.v o ",
"Q.Q.R.P.L.| | S & O @ : r a [ Y.Q.Q.T.P.L.L.[ x & U.Q.R.P.L.L.[ S & O . : e f ' I.W.W.T.P.L.L.L.v o ",
"I.Y.I.L.| | M * O @ - < 5 5 f ` P.Y.P.L.L.! n % % L.Y.P.L.L.[ C * O @ = 3 5 8 f ` U.T.I.L.L.! n % o ",
"! ~ L.L.[ S *   O e f d d w 3 b W W W Q ] ^ s 5 i ^ ) X.} ' S * o + e a d w d 4 m S S S S ! n O O + ",
"p A | L.C %   . : Z ' ' ] ` a ; @ * U ,.y.z.k.k.a.i.u.4.5.<.I e + : Z [ ' ] Q u - % % % % % % O # : ",
"5 r b b * + X t Z { T.T.P.| E u w >.z.H.'.J.m.m.m.k.h.a.u.u.a.6.I B ] Y.T.P.L.A b # # > x n n c y e ",
"9 $ .   . @ $ f [ T.Q.Q.T.P.| ( y.V.{.|.D.t.q.1.e.r.p.h.a.6.6.M.M.w.E.Q.Q.Y.P.L.E a : m L.L.P.L.A e ",
"3 3 < < < < 1 d | T.W.W.W.T.+.y.m.C.A.,.,.q.t.s.e.*.@.>.i.u.5.S.[.[._.!.Q.Q.T.P.[ S > b T.R.R.R.P.` ",
"B s 1 9 9 9 d E  .W.W.W.T.O.e.n.n.e.,.c.(.K.B.m.m.h.6.#.@.>.5.6.f.Z.B.w.T.T.Y.P.L.L.> c U.T.T.T.P.P.",
"{ A p 5 9 w / P.W.Q.W.P. .2.g.n.q.1.H. X].G.d.,.5.h.a.a.>.H ;.4.4.i.a.p.9.P.L.L.L.~ * x L.P.L.L.L.L.",
"L.[ E r 1 w ] R.Q.Q.Q.R._ 4.j.t.,.F.).Z.M.~.y.;.:.a.a.a.a.;.H :.4.>.u.u.7.o.L.L.L.~ * x U.R.T.L.| L.",
"L.L.[ u = 8 ] T.Q.R.R.Y.3.4.u.-.n.B.N.k.b.|.l.$.;.a.a.a.a.6.J @.>.;.>.>.>._ | L.! M % c T.!.W.Y.I.I.",
"L.L.~ * X e ` I.W.Y.P.X.>.5.#.1.N.N.k.F.}..X`.0.;.h.a.h.a.6.>.G $.;.;.4.4.3.| { M % O v T.W.W.W.W.R.",
"L.L.~ & @ e E P.W.R.Y.T ;.>.H n.N.k.k.y.x.`.i.=.;.h.a.a.u.6.6.H @.$.$.4.<.>.] n & O # m P.I.I.I.I.I.",
"L.L.~ * # e A { T.R.T.&.#.@.;.B.k.a.u.q.&./.i.=.:.a.a.a.6.6.6.=.k $.$.>.4.<.U % O + = a S [ P.P.P.I.",
"L.L.~ & @ : e N | L. .%.@.H e.N.a.a.1.=.%.S.a.=.;.a.a.6.6.6.6.>.k @.$.;.>.4.l O # = 5 2 & C P.T.W.W.",
"L.! * % # : 5 r v b m $.P G s.k.a.a.u.u.u.^.a.%.;.i.6.6.6.6.6.4.k G #.=.>.>.k # = 5 1 < $ t C P.Y.Y.",
"! x O % & u w 4 + O @ $.J G q.y.a.a.a.a.i.v.a.$.=.6.6.6.6.6.6.4.G G #.@.@.@.k y g d d s u $ & S ! ! ",
"% O + C Q { ' A e : 3 $.H k 1.6.6.u.i.i.u.g.i.$.$.6.6.6.6.6.4.>.k G @.@.@.@.l S { O.Y.P.` a ; * % % ",
"@ * M [ Y.I.P.[ B a 3 $.H k ;.6.6.6.6.6.4.g.a.$.$.6.6.6.6.4.4.;.k G @.@.J @.Y P.R.W.R.Y.I.` b - @ # ",
"a E P.T.Q.W.P.[ | B 3 @.H k $.4.6.6.6.6.5.d.i.$.=.6.6.6.4.4.>.$.k H @.J @.@.Y R.W.W.Y.P.R.P.` a e e ",
"P.I.W.Y.P.P.P.L.[ b X H J k @.:.6.6.6.6.4.d.i.$.$.6.4.4.>.>.>.@.k G @.@.@.@.) Q.!.Q.P.P.P.L.[ Q f : ",
"Q.Q.W.Y.P.L.L.L.| x + F @.k k ;.>.6.6.6.6.d.u.$.$.4.>.>.>.>.$.H k H @.@.@.J ..T.R.Y.P.L.L.L.L.L.N $ ",
"!.Q.Q.W.Y.L.L.L.[ x + 7 @.k k @.$.:.4.6.4.h.6.#.#.>.>.>.>.$.#.k G J @.J H L | P.P.L.L.L.L.P.L.L.v O ",
"!.T.I.I.P.L.L.L.{ x + i @.H k k $.#.$.;.>.p.6.$.#.>.>.>.$.$.H k G @.G G k z L.Y.R.R.P.P.T.R.Y.L.v o ",
"Q.R.P.L.L.L.L.~ S * . : F @.G h G $.$.$.#.r.u.#.@.=.$.$.$.@.h k @.@.k k k g ` Y.R.Q.Y.I.R.R.I.L.v o ",
"Q.Q.R.P.L.L.L.S % O . : p J H G h @.#.$.#.6.4.@.@.#.$.#.#.k k G @.G G k q e a [ Y.W.W.R.P.P.L.L.c o ",
"I.I.I.L.L.[ C * O + = 3 5 q @.G k k H $.#.=.#.H @.$.#.@.k k k J J k G k 1 5 5 f ` Y.Y.P.L.L.! v % o ",
"` L.L.L.[ S * o + t a d d s k @.G k k k H @.@.#.@.H k h k k J @.G k k g d d s r m S S Q W W C O O + ",
"y A | | S % + + ; B ' [ ' Q f k @.k k k k h j k h h k G G J J G k k V [ ' ' E a ; % % % % % % o # : ",
"3 y n v * O + > Z { T.Y.P.| E u 0 @.@.k G G k k G k G G @.H k k j D { T.T.I.| E c $ # > v n n v y e ",
"9 , . . + . = f | T.Q.Q.T.P.L.Q i p K @.J J H H H @.@.J h h 6 6 p ' T.!.W.W.| | A i : m { P.L.P.A i ",
"3 3 < < < < 1 d ] T.Q.Q.W.T.P.[ Q > c O.O.8.8.( Y l 0 6 6 6 < 1 g | T.W.W.W.W.P.{ Q > c I.R.R.R.P.' ",
"B f 5 9 9 9 d / I.W.W.W.T.Y.P.L.~ * x U.T.T.T.P.[ A a 5 9 9 9 d E P.T.W.T.T.I.P.L.~ * v I.T.T.T.P.L.",
"| A p 5 9 w E P.W.W.W.P.L.| L.L.L.* * L.P.L.L.L.| | A p 1 9 w ^ I.W.Q.W.I.P.L.L.L.~ * * L.L.P.L.L.L.",
"| [ A r 9 w ] W.W.Q.Q.T.P.L.L.L.~ * x U.R.T.L.L.| L.[ A r 5 w ] W.Q.Q.Q.T.I.L.L.L.~ * c I.R.T.L.L.L.",
"| | [ y 2 8 ] R.W.W.T.W.I.L.L.~ C % c T.Q.W.I.I.I.L.L.[ y 2 r ] W.Q.W.R.T.I.L.L.~ M & v T.Q.W.I.I.P.",
"P.L.~ * # e Q Y.W.Y.P.L.L.L.[ M @ O c T.Q.W.W.W.W.P.| ~ * X e / P.W.T.L.L.L.L.[ M + + c T.Q.W.W.Q.W.",
"| | ~ * @ e E P.W.W.Y.P.L.[ n % O # b P.I.I.I.I.P.L.L.~ * X e Q P.Q.W.T.L.L.[ n % O # b P.U.I.I.I.I.",
"L.L.~ * # e B | T.W.Y.P.~ C % O + : p W ~ P.L.P.P.L.L.~ * + e B { T.T.T.L.~ M % O @ : u S ~ L.U.P.I.",
"L.| ! * @ : r N [ L.L.| n @ O @ 2 1 , * C P.W.W.W.L.| ~ * @ e i N | L.| | M @ o # : 5 2 * C L.R.R.Q.",
"L.W x @ @ : 5 r b v v c % O @ = 1 1 < $ t C P.Y.I.L.S x % + e 3 r v v v x & O X = 1 1 < - t M P.Y.Y.",
"| M o o @ 3 1 ,   o o o o + : 3 9 9 1 3 X * ! L.L.L.M O o + : 6 ,   o   o o   ; 3 9 9 1 3 # * ~ L.L."
};
