/* XPM */
static char *out[] = {
/* columns rows colors chars-per-pixel */
"50 50 242 2 ",
"   c #180E03",
".  c #1D1305",
"X  c #0F0F15",
"o  c #320E01",
"O  c #2C1202",
"+  c #241905",
"@  c #281907",
"#  c #25100A",
"$  c #371704",
"%  c #2B260C",
"&  c #36270A",
"*  c #373D03",
"=  c #34320F",
"-  c #2C2611",
";  c #2B2716",
":  c #312913",
">  c #3D2E13",
",  c #272A2D",
"<  c #411B02",
"1  c #4D1903",
"2  c #571E04",
"3  c #651F03",
"4  c #48290A",
"5  c #493708",
"6  c #56380A",
"7  c #4C3313",
"8  c #672504",
"9  c #752E05",
"0  c #763604",
"q  c #5A323E",
"w  c #5A4207",
"e  c #4C4512",
"r  c #53451B",
"t  c #5E5714",
"y  c #6A480F",
"u  c #704E0F",
"i  c #775609",
"p  c #654713",
"a  c #6B4711",
"s  c #6E4A12",
"d  c #714D13",
"f  c #6B501A",
"g  c #755113",
"h  c #7A5311",
"j  c #7C5914",
"k  c #755419",
"l  c #7A5B1D",
"z  c #786A10",
"x  c #584B24",
"c  c #5E5831",
"v  c #655626",
"b  c #735B26",
"n  c #65413D",
"m  c #58642A",
"M  c #76632A",
"N  c #0E1B41",
"B  c #172842",
"V  c #3E4649",
"C  c #6C6B4E",
"Z  c #812905",
"A  c #8A3405",
"S  c #923604",
"D  c #994A0A",
"F  c #845E0D",
"G  c #99520D",
"H  c #855C13",
"J  c #915310",
"K  c #A54806",
"L  c #A6520A",
"P  c #B4580A",
"I  c #846706",
"U  c #8C6D05",
"Y  c #8B630D",
"T  c #8D6A09",
"R  c #8D7203",
"E  c #8D6212",
"W  c #886819",
"Q  c #906916",
"!  c #916919",
"~  c #8A7714",
"^  c #927217",
"/  c #B6670E",
"(  c #AF710F",
")  c #BC6810",
"_  c #945A2B",
"`  c #836624",
"'  c #866A26",
"]  c #896C26",
"[  c #896E29",
"{  c #8A6E29",
"}  c #8C722C",
"|  c #947527",
" . c #9B7C2A",
".. c #897834",
"X. c #937D33",
"o. c #A1772E",
"O. c #C56B0F",
"+. c #C6700F",
"@. c #C56E10",
"#. c #C87613",
"$. c #D17E14",
"%. c #FC730C",
"&. c #FA7C0D",
"*. c #FC651E",
"=. c #FA7314",
"-. c #FA6F26",
";. c #F37336",
":. c #FB3371",
">. c #FC585C",
",. c #F07341",
"<. c #F64373",
"1. c #E57377",
"2. c #91990F",
"3. c #A9A718",
"4. c #9B8426",
"5. c #938036",
"6. c #9D8434",
"7. c #96843A",
"8. c #9A863C",
"9. c #9D893B",
"0. c #A48E29",
"q. c #A28934",
"w. c #A38D3C",
"e. c #A5913E",
"r. c #9AB02F",
"t. c #C69900",
"y. c #C68517",
"u. c #D58316",
"i. c #D48914",
"p. c #DA8916",
"a. c #DA9519",
"s. c #FA800E",
"d. c #F8920F",
"f. c #E49816",
"g. c #E19B1B",
"h. c #F79511",
"j. c #FC9B17",
"k. c #D4AF08",
"l. c #F7AE0E",
"z. c #F8AC0C",
"x. c #EBB402",
"c. c #FABC05",
"v. c #F6B609",
"b. c #E7A719",
"n. c #F6AA17",
"m. c #ECB21F",
"M. c #F6B71B",
"N. c #DA8F27",
"B. c #FB9527",
"V. c #EC9732",
"C. c #DCAC25",
"Z. c #D8AE2F",
"A. c #EBB320",
"S. c #F3BB22",
"D. c #EEAF32",
"F. c #B4CC05",
"G. c #B5CF05",
"H. c #D5D010",
"J. c #FCC301",
"K. c #FBC507",
"L. c #FAC91C",
"P. c #E6D516",
"I. c #FCD317",
"U. c #CDEB04",
"Y. c #CBE908",
"T. c #D1E807",
"R. c #D3EB0B",
"E. c #DCE21D",
"W. c #E3EA1C",
"Q. c #CEC32B",
"!. c #D5C223",
"~. c #DBCD32",
"^. c #EAC62C",
"/. c #F5C424",
"(. c #F9C522",
"). c #FBCD26",
"_. c #F4C92B",
"`. c #EAD92C",
"'. c #FBD328",
"]. c #F8D52A",
"[. c #FCDB2E",
"{. c #E2D233",
"}. c #EADA35",
"|. c #F9D833",
" X c #CDEA23",
".X c #CEEC39",
"XX c #E8E725",
"oX c #FBE32D",
"OX c #FBE434",
"+X c #F5EA32",
"@X c #FAE936",
"#X c #FCEB39",
"$X c #9A8942",
"%X c #A38C45",
"&X c #A69340",
"*X c #AA9543",
"=X c #AE9846",
"-X c #AD9449",
";X c #B29442",
":X c #B19947",
">X c #B49C4A",
",X c #B89F4D",
"<X c #BBA04E",
"1X c #BDA351",
"2X c #999F6E",
"3X c #E68F4D",
"4X c #CEB74D",
"5X c #E3B355",
"6X c #E78E6D",
"7X c #F4DB55",
"8X c #FBEA50",
"9X c #EDDD6B",
"0X c #E6E067",
"qX c #2D4A92",
"wX c #FC1C8E",
"eX c #F71C93",
"rX c #F72887",
"tX c #F4288D",
"yX c #FC03A5",
"uX c #F624AC",
"iX c #DE7889",
"pX c #DE7495",
"aX c #DD739C",
"sX c #E27985",
"dX c #9CB1B9",
"fX c #E28288",
"gX c #D6C691",
"hX c #D1EE87",
"jX c #D1EF97",
"kX c #E8E18B",
"lX c #E7E398",
"zX c #D8E8A1",
"xX c #E3E6AC",
"cX c #E29ECE",
"vX c #B7CFD8",
"bX c #D5EFD7",
"nX c #DCECD6",
"mX c #DAD3F0",
"MX c #D4ECED",
"NX c #D5F1EB",
"BX c #D6F1F4",
"VX c #D5F2FB",
/* pixels */
"a a k X.*X*Xw.q.E E E H E ! q.-X1X1X>Xe.^ H s a a a a k 5.&X&X&X6.Q Y E E H Q q.:X4X,X>Xe.| F s a a ",
"k H [ w.:X:X*Xq. .! Y T ^  .&X,X1X>X:X:X6.| H h h h l { w.:X:X*Xw.| ! Y T ^ o.w.>X,X,X-X*Xq.! H h k ",
"!  .*X>X,X,X*X&Xe.| Y U 4.e.4X<X,Xw.8.%X7.} j j g h W X.%X%X%X7.7.e.| Y T  .e.:X4X,X-X-X,X=X6.! E Y ",
";X:X>X:X=X*X*X&Xw.' h Y o.<X,X<X-Xx - : % % + + + + @ ; ; : : ; r 5.' h Y q.<X4X,X,X=X*X*X*Xe.6.| J ",
"1X1X<X>X*X&X&X&Xw.` u F  .-X..M b 4 $ 6 w t t c c c c t t w 6 $ > x e 6 H 6.>X,X-X>X*X&X&X&X&X&X| H ",
"1X1X<X<X:X&X&X&Xe.` s j [ ..: . @ 8 G #.C.^.}.0XkXkX0X}.^.C.y.D 8 + . O s ' $X%X*X-X&X&X&X*X*Xw.' s ",
"1X<X=X=X=X&X&X&Xe.` y & : > 4 0 ( y.C.^.|.OX#X8X8X8X8X#XOX|.^.b.y.( y 1 $ & r $X>X>X*X-X>X>X:X&X' a ",
"1X>X=X&X&X&X&X9.} f 4 O $ 4 J y.S.|.|.OX[.].^._.}.|._.^.|.[.OX[.'.M.i.J 5 $ $ b $X,X:X:X>X,X:X*X' a ",
"1X1X,X*X&Xe.e.X.f & O 8 G y.D.|.OX#X|.'._.Z.Z.N.N.N.a.a.b.L.].[.OXOX|.^.y.G 8 @ x -X,X:X*X*Xe.%X` a ",
"=X=X=X&X&Xw.} f & < 8 / a.^.@X@X[.[.7XlXxXgXgXgXgX!.k.H.H.P.P.XX[.[.OXOX^.a./ 8 4 x 7.*Xe.e.9.' k a ",
"q.9.e.&X9.X.f 4 O 8 P b.'.#X[.8X7X7XkXMXVXVXVXbXjX XU.U.U.U.U.XX[.[.OX#X#X].b.P 8 @ v ..7.6.} s s u ",
"!  .e.&XX.s % O 8 / b.|.OX#X'.9XnXnXMXVXVXVXBXhX XY.U.U.U.T.T.W.OXOX#X#X#XOX|.b./ 9 $ = s k k s h H ",
"T W ] ] H p + $ G a./.|.[.8X9XnXVXVXVXVXVXbXjX.XU.U.U.U.U.R.XX+X#X#X#X#X#XoX[.(.p.G $ - l ' } ' W E ",
"R z u u a 6 O 6 y.A.'.'.|.7XnXVXVXVXMXvXvXzX XY.U.U.G.F.F.H.+X@X#X#X#X#XOX[.'.'.A.y.4 > ..8.&X&X .! ",
"Y T I I w + 1 J b.).'.|.9XnXMXVXVXVXdXV , m G.U.U.U.2.* * z }.#X#X#X#XOXI.I.].'._.A.G 1 : ..,X<X*Xq.",
"| ^ U U w   9 ( /.].|.9XnXVXVXVXVXVXdXC ; * G.U.U.U.r.m X t }.#X#X#XoXI.K.K.I.'.]._.) 9 X M :X:X;X&X",
"e. .Q z w @ J b._.'.7XnXVXVXVXVXVXNXxXgXc = F.U.Y.U..X1XV t }.#X#XoXI.J.J.J.K.I.'.).g.J @ v 7.&X*Xe.",
"e.w.| 5 $ 8 ( b.).'.7XbXVXVXVXVXNXhX4Xo.> * F.Y.U.XXZ._ # f }.#XoXI.K.J.J.J.K.L.'.).m.) 8 4 r 7.e.e.",
"e.e.5.- $ S i.L.).7XkXNXVXVXVXbXjX.X3.n # * F.R.W.+X;Xq X t }.oXI.K.J.J.J.J.K.L.).).(.i.S $ - 7.:X:X",
"e.*X5.% < L g.).|.lXNXVXVXVXNXjX XY.r.qXN * F.E.+X#X2XqXN t `.I.J.J.J.J.J.J.c.l.M.).).b.L < : %X<X,X",
"*X*X5.- 4 ) m.).'.lXVXVXVXNXhX.XY.U.2.B X *  X+X+X8X$XN X y H.J.c.c.J.J.J.c.z.h.n.'.'.A.) 4 - 8.:X=X",
"e.e.5.- 6 i.L.].|.xXVXVXmXcX5XZ.C. X2.e e z {.#X@X+X3.e & U v.n.B.B.B.B.v.z.h.&.j.).'.S.i.6 % 7.*X=X",
"e.e.5.- 6 a.(.'.|.xXVXBXcXuXtXtX<.Z.G.G. X~.+X+X#X#X}.Q.k.x.z.>.wXwXwX<.B.h.=.%.j.).'.(.g.6 : %X<X<X",
"&X5.b . y g.(.).'.lXMXhXsXyXyXyXeXZ.R.XX2.4.}.8X#X#XZ.~ k.J.v.:.yXyXyXrX-.s.%.%.j.).'.(.b.w : 8.:X:X",
"9.M r # w b.L.).'.kXjX X3XtXtXtX<.Z.W.}.z t 3.Q.Q.Z.~ 5 t.J.v.>.rXwXwX:.*.%.%.%.j.).].(.b.w % ..6.8.",
"k g w . p f.L.).].XX XY.H.!.!.!.!.XX+X@X{.r.7 % % - z t.c.J.c.l.B.B.-.*.=.%.%.%.j.'.'.(.a.w . p k k ",
"j l l . 6 a.S.].].E.U.U.U.U.U.R.XX+X#X#X8X~.~ z z i 2.c.J.J.J.c.l.h.&.%.%.%.*.;.V.'.'.M.a.6 . y h h ",
"Q 4.5.- 6 y.m.).I.P.U.U.U.U.Y.W.@X#X#X@X@XOXoXL.J.x.J.J.J.J.c.z.h.&.%.%.%.=.;.1.6X_.).m.y.6 + j E E ",
"e.:X%X: 5 #.b.M.M.H.U.U.U.R.W.+X#X#X#X#X#XoXI.K.J.J.J.J.J.c.z.d.&.%.%.%.=.;.1.pX6XM.M.n.#.6 % { | Y ",
"4X1X%X: 4 O.f.n.z.H.U.U.R.W.+X#X#X#X#X#XoXI.K.J.J.J.J.J.c.z.h.&.%.%.%.=.;.1.aXaX6Xn.n.f.) 4 % X.| j ",
"<X<X%X: < K i.z.l.H.U.R.W.#X@X#X#X#X@XOXI.J.J.J.J.J.J.c.l.h.&.%.%.%.=.;.sXpXaXpX6Xn.n.u.L < - X.' y ",
"1X>X8.- $ S O.p.f.b.P.XX+X#X#X#X#X@XoXI.K.J.J.J.J.J.c.l.d.s.%.%.%.%.,.1.pXaXpX3XN.p.f.O.S o - X.' y ",
"1X>X%Xr & 8 L #.u.f.A.[.8X#X#X#XOXoXI.J.J.J.J.J.J.c.z.h.&.%.%.%.=.;.1.aXaXaXsXN.a.u.#.L 8 4 r $X' s ",
"1X1X>X$Xv + 0 P $.u.g.|.@X#X#X#XOXI.K.J.J.J.J.J.c.z.d.&.%.%.%.=.;.sXpXaXaXaXiX;.p.y.P 0 # v 7.7.` a ",
":X;X-X&Xv   8 L $.$.a.S.[.#X#XoXI.K.J.J.J.J.J.c.z.d.&.%.%.%.%.,.1.pXaXaXaX6X3XN.u.#.K 8 . v 8.' k a ",
"q.w.&X&Xb + 1 A @.$.p.f.S.[.oXI.J.J.J.J.J.J.c.z.h.&.%.%.%.=.;.1.aXaXaXpXsX3Xh.p.$.@.A 1 + v } f s d ",
"!  .e.e.} 6 @ < K O.u.p.b.M.K.K.J.J.J.J.J.c.l.d.&.%.%.%.%.;.sXpXaXaXaXsXV.N.$.$.O.K < @ 6 s g s h H ",
"T W ] ] b p + O A P O.$.p.f.l.c.J.J.J.J.c.z.h.s.%.%.%.%.,.1.aXaXaXaX6X3Xg.p.$.O.P A O % M { [ [ W E ",
"U F u u u y & O 3 S K #.$.p.f.v.K.K.K.c.z.h.=.%.%.%.=.;.1.aXsXfXsXfX3Xh.p.$.#.P A 3 O 7 8.*X*X&X .! ",
"E T I I U I i w O 3 S P @.p.p.b.L.).L.l.d.&.%.%.%.%.,.sXpX6X3XD.5X_.D.p.p.O.P S 2 O 4 b :X,X,X,X*Xq.",
"| ^ T R R R ~ W r 4 3 A P O.O.p.m.m.m.M.n.j.j.j.j.j.3X6X6X5XS.A.m.m.u.O.O.P S 3 4 7 p ` -X:X>X>X=Xe.",
"e. .Q U R R 0.=X-Xx $ 3 A S K ) $.u.f./.(././._.(.(.)._.(./.(.g.$.$.P K S A 3 # r X.l ` w.*X*X&X&X&X",
"e.w.6.Q T R q.<X1X%Xb # o < Z K P P +.a.g.a.g.g.g.g.g.g.g.g.g.+.P P D 9 1 O @ v ..9.b ` =X,X:X*Xe.&X",
"e.e.w.W Y ^ 0.<X1X<X8.r : > 1 3 9 S K P ) O.@.O.+.+.O.O.) O.P K S 0 8 1 > > e X.9.} j ' >X1X1X-X=X:X",
"e.e.w.l h E 6.=X<X:X&X7.8...@   + 2 Z Z Z A D K K K K K A Z Z Z 3 # # : ..7.7.9.} g s ' >X<X<X<X,X,X",
"*Xe.9.l h Q o.:X<X,X>X*X&X7.r 4 4 $ o o o o < < < < < $ o o o o 4 b M ..9.&Xw.[ l s h ] &X:X:X:X=X=X",
"&X&Xw.l h H  .w.>X,X:X*Xw.} k a y & + . @ : : : ; ; % - . . O + r %X>X>X*X9.} g s g F ! X.q.*X*X=X=X",
"&Xe.6.l h F Q | w.e.*Xe.[ g a g I i i y M 7.%X%X%X7.X.} f y g H ` w.&X%X*X[ g s h F T Y k X.*X>X,X,X",
"&X5.` g g H T Q ' ' ' ' k s h F T U I H H | =X:X=X&XX.` g g F T Q ' ` ' ' k s h F T U I H W } *X>X:X",
"e.} s a g Y U I s y y y s s H T U R U Y g b 9.*X&X&X} s a h H U I u y y a a s H T R R U H d l w.e.*X"
};
