/* XPM */
static char *out[] = {
/* columns rows colors chars-per-pixel */
"50 50 159 2 ",
"   c #6E4B0F",
".  c #714F0F",
"X  c #6B4711",
"o  c #6E4A12",
"O  c #734D11",
"+  c #755113",
"@  c #7A5311",
"#  c #7D5913",
"$  c #755419",
"%  c #79571B",
"&  c #7B5C1D",
"*  c #845D0E",
"=  c #805711",
"-  c #855D13",
";  c #885E11",
":  c #805D1A",
">  c #826506",
",  c #866805",
"<  c #8C6D06",
"1  c #84650A",
"2  c #8B640D",
"3  c #876A0E",
"4  c #8D6B09",
"5  c #906F0E",
"6  c #996E0B",
"7  c #8D7204",
"8  c #9F7100",
"9  c #927409",
"0  c #9C7A0D",
"q  c #866111",
"w  c #8D6313",
"e  c #8B6A13",
"r  c #82621E",
"t  c #8B661C",
"y  c #8E6A1B",
"u  c #906616",
"i  c #906B15",
"p  c #986E11",
"a  c #916B1A",
"s  c #927413",
"d  c #9C7612",
"f  c #947A13",
"g  c #94711C",
"h  c #997419",
"j  c #A57B02",
"k  c #AA7C00",
"l  c #A1770A",
"z  c #A77E13",
"x  c #A07C19",
"c  c #836524",
"v  c #886726",
"b  c #866A26",
"n  c #896B25",
"m  c #896E29",
"M  c #916E21",
"N  c #8D732C",
"B  c #957424",
"V  c #987624",
"C  c #9E7D22",
"Z  c #90762E",
"A  c #94782B",
"S  c #9B7C2A",
"D  c #957D31",
"F  c #A17F2D",
"G  c #A18103",
"H  c #AF8100",
"J  c #AF8804",
"K  c #AD840C",
"L  c #B28400",
"P  c #B68902",
"I  c #BB8C00",
"U  c #B68B08",
"Y  c #B49005",
"T  c #BF9201",
"R  c #BF9409",
"E  c #AB8718",
"W  c #B38D14",
"Q  c #B28F1C",
"!  c #9C8122",
"~  c #9D842B",
"^  c #978034",
"/  c #9C8333",
"(  c #9D8739",
")  c #9E893A",
"_  c #AB8D27",
"`  c #A2832C",
"'  c #AB8D2A",
"]  c #AE9027",
"[  c #B29122",
"{  c #B89422",
"}  c #B0972D",
"|  c #A28634",
" . c #A18A36",
".. c #A88D33",
"X. c #A38D3C",
"o. c #A88D3A",
"O. c #AC9336",
"+. c #A5913E",
"@. c #AC923C",
"#. c #B39B33",
"$. c #C19200",
"%. c #C79801",
"&. c #CC9D00",
"*. c #CCA000",
"=. c #CFA800",
"-. c #D2A300",
";. c #D7A900",
":. c #DCAC00",
">. c #D1A40A",
",. c #D2B600",
"<. c #DEB100",
"1. c #D9BC01",
"2. c #C8A61F",
"3. c #E2B200",
"4. c #E8B700",
"5. c #E5BA01",
"6. c #EABA00",
"7. c #E7BD12",
"8. c #CFBD22",
"9. c #DEC001",
"0. c #E5C500",
"q. c #EBC200",
"w. c #EEC900",
"e. c #E7CC0D",
"r. c #F5C500",
"t. c #F5C802",
"y. c #FCCC00",
"u. c #F5D401",
"i. c #FFD700",
"p. c #F5DA00",
"a. c #FDDE00",
"s. c #F9D908",
"d. c #EDD31F",
"f. c #F1DC19",
"g. c #FEE200",
"h. c #FDEA00",
"j. c #FDF002",
"k. c #F9F40F",
"l. c #FFFC0F",
"z. c #EFD622",
"x. c #FBF22B",
"c. c #FEF334",
"v. c #FEF33D",
"b. c #A69340",
"n. c #AA9543",
"m. c #AE9846",
"M. c #B19543",
"N. c #B19946",
"B. c #B49C4A",
"V. c #B89F4D",
"C. c #BBA04E",
"Z. c #BFA94E",
"A. c #BDA250",
"S. c #EFD749",
"D. c #E9D05D",
"F. c #FDED5C",
"G. c #E0C56E",
"H. c #FEFD77",
"J. c #FCF8E7",
/* pixels */
"X X $ D n.b.b./ u 2 w u ; u | B.A.A.B.+.V - . X X X X + D b.b.b.| u w u ; 2 a | B.A.A.B.+.g = o X X ",
"@ : m X.N.N.n. .A a 2 2 i F @.V.C.B.B.N.| n # @ @ @ : m b.N.N.n. .A a ; 4 i S @.B.C.B.B.N.| B = @ @ ",
"a S n.B.C.V.n.b.X.B 2 < ! n.V.A.C.m.n.V.n.| a w ; u F n.B.C.V.n.b.X.B 1 4 F @.V.A.A.m.m.V.m./ a w ; ",
"M.M.B.N.n.n.n.b.X.b @ 2 ` V.C.A.A.n.n.n.b.+.| g a ..M.V.N.n.n.n.b.X.v @ 2 ` V.C.A.C.n.n.n.+.+.( B w ",
"A.A.A.N.n.b.b.b.X.c O ; F B.B.B.B.n.b.b.b.b.+.N v N.A.C.N.n.b.b.b.X.c O ; F B.B.B.B.n.b.b.b.b.+.M = ",
"A.A.A.C.B.b.b.b.+.c O - S +.n.n.n.b.b.n.n.b.+.b % M.A.C.C.B.n.b.b.b.c O ; A b.b.b.n.b.b.b.n.b.+.b O ",
"A.B.m.m.n.b.b.b.X.v O ; S +.B.B.B.n.n.B.B.B.b.b % M.B.m.m.n.b.b.b.X.c O ; S n.B.B.B.n.n.B.V.B.b.b X ",
"A.B.m.n.b.b.b.) D & O ; B | N.V.C.B.m.B.B.B.b.b % M.B.m.b.b.b.b. .D & . ; B | B.C.A.B.m.B.B.B.b.b X ",
"A.A.B.m.b.b.b.D $ o O ; e a  .N.A.C.B.n.b.n.X.b % M.A.C.n.b.b.+.D % o @ * u g | m.C.V.B.b.b.b.X.b X ",
"N.N.m.n.b.X.N & o O = 3 4 4 B | n.m.m.n.b.( b $ $ b.m.N.b.b.+.N & o O = , 4 4 B | m.m.m.b.b.( m $ X ",
") ) b.b.X.D & O O q g 9 f 9 i a ^ ^ ^ ^ ^ Z q * ; ' } #.b.) D & o O q g s f 9 4 M D D ( ( ^ N o o O ",
"i A X.b.D $ o O - V X.X. .| a - $ $ $ $ % $.4.4.4.3.y.t.2.D $ o O - A | o. ./ a : $ $ $ $ $ $ o @ ; ",
"4 e n n & o O : A o.B.B.n.+.S n # @ : b W t.y.y.y.s.v.h.t.y o @ q A X.B.N.m.b.S y # # : v v v v t ; ",
"7 # . . . . 1 g X.B.A.A.B.n.b.~ u w M O.e.g.g.g.u.F.d.0.u.U   * g X.B.A.A.N.n.b.S a ; M b.n.n.b.S a ",
"4 , , , , , 7 f +.B.C.A.C.B.n.+./ : v Z.H.H.H.H.f.z.1.1.;.3., < h +.B.A.A.C.B.n.X.D : v N.V.V.V.n.| ",
"V g 4 < 7 7 f ~ M.C.C.B.B.B.+.+.X.& c 8.l.l.l.k.p.9.x.h.-.<.G f ~ n.C.A.B.B.m.n.n.b.: c M.B.B.N.n.n.",
"+.S i < 7 7 ~ N.C.A.C.m.b.b.b.b.) & v 1.i.i.i.w.u.z.c.=.t.&.Y ~ m.C.C.C.m.n.b.b.b.) & c b.n.b.b.b.b.",
"b. .~ i 4 9 ..V.A.A.A.B.m.b.b.b.) & n 7.r.r.r.6.9.F.u.*.y.&.R ..C.A.A.C.B.m.b.b.b.) & c N.V.N.n.b.+.",
"b.b.X.t 1 i ..V.A.C.B.B.m.b.b.) Z $ a :.3.3.3.;.0.j.S.>.u.-.%...B.C.C.B.B.m.+.b.( N $ b B.A.V.N.n.m.",
"b.b.) & @ w / N.C.m.n.n.b.+.X.N + O h 3.3.3.3.:.,.v.J.G.y.;.%.~ m.C.B.@.n.b.+.+.N $ o v B.A.A.V.C.C.",
"b.b.) & @ w / n.C.C.B.b.+.X.m $ o + z 3.3.3.3.;.0.a.D.*.y.:.$.` n.C.V.B.n.n.) v % o @ M n.m.n.B.m.m.",
"b.b.( & @ w V o.B.B.B.b.) Z $ o @ = K 3.3.3.<.&.p.q.;.-.y.4.I C X.B.V.B.b.) Z $ o O 1 a D X.n.n.m.n.",
"b.b.( & . ; u B X.b.b.+.m + X @ ; 4 J 3.3.3.:.$.p.5.&.*.t.4.I p A X.b.b.b.m $ o @ * 4 1 % D n.B.C.C.",
"b.^ c O @ ; 4 e b b b b % X @ * 4 < P :.:.:.:.I p.r.7.-.6.4.I 6 e c b b b % o + * 4 < , # : Z n.N.B.",
"( c o $ & a s 3 @ O o O O O t h f 0 k $.$.$.$.P w.y.w.&.6.4.I 0 3 O O O O O O w s 0 0 s a @ & D ( ( ",
"$ o O Z ( | | S ; ; = ; - w S +.M.M.{ $.$.$.I L 5.r.q.*.6.4.P ' S w - = ; - w ~ +.M.M.n. .a - + $ $ ",
"$ : m X.N.m.n.X.A a 2 4 g S @.B.C.C.{ $.$.$.$.P <.6.5.*.6.:.P O. .A a w 4 g S +.V.A.B.B.N.| M # @ @ ",
"a S n.V.C.C.n.+.X.B ; 4 ! n.V.A.C.m.[ I $.$.I P :.6.5.&.6.;.P O.b.X.B 1 4 C @.C.A.C.m.m.V.n.( a w ; ",
"n.N.C.m.m.n.b.b.+.b @ 2 ` V.A.A.C.m.] T I $.T I ;.6.5.&.3.;.L O.b.X.n @ 2 ` B.A.A.C.n.n.n.n.b.( g w ",
"A.A.A.m.m.+.b.b.+.c . * F B.B.B.B.n.] $.$.T $.I %.6.5.&.:.-.L o.b.X.c O ; ` B.B.B.B.n.b.b.b.b.X.B # ",
"A.A.C.C.m.b.b.b.X.c O ; A @.b.n.n.b.' I I I I I P :.4.%.:.%.U +.+.X.c O ; A b.n.n.n.n.b.b.b.b.b.b o ",
"A.V.m.m.m.b.b.b.X.b O ; A n.B.B.B.n.O.H L L k L I &.:.%.;.I U +.b.X.v O ; S b.B.B.B.n.n.B.B.N.b.b X ",
"A.V.n.n.b.b.b.) D & O ; B | N.C.C.B.@.L H L L P L &.-.%.&.P W b. .D & O ; B | N.C.A.B.N.B.C.m.+.b X ",
"C.C.V.n.b.b.X.D % o O ; u i  .N.A.V.B.K L k k P k $.-.$.%.H Q X.D $ o O ; w a | m.C.C.B.n.n.b.X.v X ",
"N.m.m.n.b.X.Z & o . * , 4 5 g | N.B.n.E H H H L P L %.I I H _ N & o + = 4 4 5 g | m.N.m.b.b.) b % X ",
"| X.+.+.X.D & o + r a s f s 2 M D ^ ( ! H L L k P k I I k P S & o O - g s f 9 e M ^ ^ ^ ^ ^ N + X O ",
"a S +.+.A $ O O q V X. ...~ a - $ $ $ @ k L k k P L k k k K % o @ - A X. . ./ i - + $ $ $ $ $ X @ ; ",
"4 e m m &   . r A o.B.B.n.+.S y = @ : b d k k k k I L k P i O . - A o.B.B.m.+.~ y # @ : b m b b t w ",
"< # . . . . 1 B X.B.A.A.B.n.n.^ u ; M o.o.l 8 8 8 k $.I k . . * g X.B.A.C.B.n.b.S a ; M +.n.n.b.S u ",
"2 2 , , , , , f X.B.A.A.C.B.n.X.| : v B.V.M.' ` x 6 j j 4 , , < f X.B.A.A.C.B.n.X./ : v B.B.C.C.n. .",
"V a < 7 7 7 f ` @.C.C.B.B.B.b.b.( & c n.N.B.B.n.X.A a 4 7 7 7 f ~ n.V.A.B.B.B.b.b.) & v m.B.B.B.n.b.",
"+.S e 4 7 9 ~ n.C.C.C.n.b.b.b.b.b.& c b.n.n.b.b.+.b.S e < 7 9 ~ m.A.A.B.n.b.b.b.b.X.& & b.n.n.b.b.b.",
"n. .~ a 7 9 ..C.A.A.C.C.m.b.b.b.) & c N.B.B.b.b.n.+.X.~ i 4 9 ..C.C.A.A.B.B.b.b.b.) & v m.V.B.b.b.b.",
"b.b.) t 1 5 o.B.A.C.C.B.m.b.+.) N $ v B.A.C.N.M.n.n.b. .t 1 5 ..C.C.A.B.B.m.b.b.( N $ v B.A.C.m.N.n.",
"b.b.) & @ w / N.C.m.n.n.b.+.X.N + o v B.A.C.C.C.B.n.+.) & @ w ` m.C.N.n.b.b.b.b.N $ o v B.A.C.C.A.C.",
"b.b.) & @ w ~ n.C.C.B.b.b.X.m % o @ M n.m.m.m.m.m.n.b.) % @ w / m.C.C.m.b.b.) m % o + M n.M.m.m.n.B.",
"b.+.) & O w V +.C.C.m.b.) Z $ o O * g ^ X.b.n.n.n.+.b.) & + w A o.B.B.B.b.( Z + X O 1 a D ) n.n.n.n.",
"b.+.( & @ w e B X.X.b.+.m + o + 2 , > % Z n.B.C.C.n.+.) & @ ; w V X.b.b.b.N + o @ ; 3 q % Z n.B.V.V.",
"b.^ c + @ ; 4 e b b b b %   @ * 4 < , * : Z n.B.m.b.D c + O ; 4 e b b b b %   @ * , < , = r Z n.B.B.",
"+.N X X + q 4 >   X X X X   = 4 7 7 < ; @ & ( b.b.b.N o o + w 4 >   X X X X O = 4 7 7 < ; @ &  .b.b."
};
