/* XPM */
static char *out[] = {
/* columns rows colors chars-per-pixel */
"50 50 125 2 ",
"   c #6E4B0F",
".  c #714E0F",
"X  c #74510E",
"o  c #6B4711",
"O  c #6E4A12",
"+  c #734D11",
"@  c #755113",
"#  c #7A5311",
"$  c #7E5912",
"%  c #755419",
"&  c #79571B",
"*  c #7B5C1D",
"=  c #845D0E",
"-  c #805711",
";  c #855C13",
":  c #895E11",
">  c #805D1A",
",  c #826506",
"<  c #866805",
"1  c #8C6D06",
"2  c #85640B",
"3  c #8B640D",
"4  c #876A0E",
"5  c #8D6B09",
"6  c #946B05",
"7  c #9B6E01",
"8  c #906E0E",
"9  c #986E0B",
"0  c #8E7204",
"q  c #9F7100",
"w  c #907409",
"e  c #8D6313",
"r  c #8B6A13",
"t  c #82621E",
"y  c #8B661C",
"u  c #8E6A1B",
"i  c #906616",
"p  c #916C14",
"a  c #916B1A",
"s  c #927413",
"d  c #9B7715",
"f  c #947A13",
"g  c #94711B",
"h  c #9F7B18",
"j  c #A07200",
"k  c #A67A04",
"l  c #AA7C00",
"z  c #A27709",
"x  c #A57A09",
"c  c #836524",
"v  c #886726",
"b  c #866A26",
"n  c #896B25",
"m  c #896E29",
"M  c #916E21",
"N  c #8D732C",
"B  c #957424",
"V  c #987624",
"C  c #91772F",
"Z  c #94792C",
"A  c #9B7C2A",
"S  c #957C31",
"D  c #A17F2D",
"F  c #AF8203",
"G  c #AC820D",
"H  c #B08200",
"J  c #BB8D00",
"K  c #BF9001",
"L  c #AD8612",
"P  c #AB891D",
"I  c #B18C17",
"U  c #B08D1C",
"Y  c #B3901B",
"T  c #9B8122",
"R  c #9D842B",
"E  c #978034",
"W  c #9C8333",
"Q  c #9D8739",
"!  c #9E893A",
"~  c #A78320",
"^  c #A88925",
"/  c #A2822B",
"(  c #A28634",
")  c #A28A35",
"_  c #A88D33",
"`  c #A38D3C",
"'  c #A88D3A",
"]  c #AD9330",
"[  c #A5913E",
"{  c #AC933D",
"}  c #C29200",
"|  c #C19C1A",
" . c #D7A800",
".. c #DCAD01",
"X. c #D9AD08",
"o. c #C6A21E",
"O. c #E2B200",
"+. c #E7B904",
"@. c #EABB01",
"#. c #C7A422",
"$. c #CBA524",
"%. c #CAAD22",
"&. c #C3AC2C",
"*. c #CFBC2E",
"=. c #E8CE0A",
"-. c #F1C100",
";. c #F2CB02",
":. c #FECD00",
">. c #FED600",
",. c #F0E60E",
"<. c #FFE509",
"1. c #FFF90F",
"2. c #A69340",
"3. c #AA9543",
"4. c #AE9846",
"5. c #B19544",
"6. c #B19946",
"7. c #BB9F46",
"8. c #B49C4A",
"9. c #B89F4D",
"0. c #BBA04E",
"q. c #BDA250",
"w. c #D0BE54",
"e. c #EDE75E",
"r. c #FFFD6C",
/* pixels */
"o o % S 2.2.2.W i e 3 e e i ( 5.q.q.8.2.V - + o o o o @ S 2.2.2.W i e : i : a ( 4.q.q.8.[ V = o o o ",
"# > m ' 8.4.3.) Z a : 5 p D 2.6.q.9.6.5.( M $ # # # > m 2.6.6.3.) A a 3 5 p A { 8.q.8.8.4.( M $ # # ",
"a A 3.8.0.9.4.2.` V 3 1 A { 0.8.0.4.5.9.4.W a e : i A 3.8.0.9.5.[ ` B 2 6 A 3.0.q.q.4.4.8.4.W a e i ",
"5.5.8.6.3.3.2.2.` b @ 3 / 9.0.w.0.4.2.3.3.` Q M a ' 5.9.4.3.4.2.3.` b # 3 / 9.0.q.0.3.3.3.3.[ W B : ",
"q.q.q.8.3.2.2.2.` c + : D 8.8.8.8.3.2.2.2.2.[ N v 5.q.q.8.3.2.2.2.2.c + : D 8.8.8.8.3.2.2.2.2.[ M - ",
"q.q.0.9.8.2.2.2.` c + : A [ 3.3.3.2.2.3.2.2.2.b & 3.q.q.0.8.2.2.2.` c O : A 2.3.2.3.2.2.3.2.2.[ b o ",
"q.9.4.4.3.2.2.2.` c . : A 3.8.8.8.3.3.8.8.4.2.b & 5.8.4.4.3.2.2.2.` c + : V 3.8.8.8.3.3.8.8.8.2.b o ",
"q.8.4.3.2.2.2.! S * + : B ( 6.9.0.8.4.8.0.8.2.b & 5.8.4.2.2.2.2.! S * + : B ( 6.0.q.8.4.8.0.8.[ b o ",
"q.q.9.3.2.[ [ S & O @ : e g ) 6.q.9.8.3.2.3.` b & 5.0.9.3.2.2.2.S & O + : e g ) 4.0.0.8.3.3.2.2.b o ",
"4.4.4.2.2.[ N * O @ - < 5 5 B ( 4.8.3.3.2.Q b % % 2.4.5.2.2.2.N * O @ = 3 5 5 g ( 4.4.4.2.2.Q b & o ",
"Q ` 2.2.` S &   . t g s f w i a S E S E E N # = e ^ ] 2.2.2.S & O + e p f f w r M S S E S Q N O O + ",
"i Z 2.2.Z % O . : A ) ) ) ( i ; % % % % % % 5 +.@.@.X.' 2.C % O O : Z ` ! ) R g > % % % % % @ O # : ",
"5 r n m * O @ t V ' 5.6.3.2.A n # # > b m m P :.:.:.+.m b * O @ ; V ` 8.6.4.` S M # - > v n b b y : ",
"0 = X     X ; g ` 8.8.w.6.2.3.S a : B ' 2.3.&.<.<.<.=.X O O X = g [ 8.q.q.8.3.2.A u : M 2.3.3.3.A i ",
"3 3 , < < < 0 f [ 8.0.0.q.9.3.2.W > b 6.0.9.w.r.r.r.e.1 < < < 1 f [ 8.q.q.q.8.3.' S > m 6.9.0.8.3.Q ",
"V s 1 0 0 0 f R 3.9.0.9.8.6.2.2.` * c 5.8.8.*.1.1.1.,.w 0 0 0 f / 3.9.q.8.8.8.3.2.` > c 3.8.8.8.5.{ ",
"[ A i 1 0 w R 4.0.q.0.3.2.2.2.2.! * c 2.3.3.%.>.>.>.;.s 5 0 0 R 3.0.q.0.3.2.2.2.2.! * * ` 3.3.2.2.2.",
"[ ` R p 5 0 _ 9.q.q.q.9.4.2.2.2.! * c 5.9.8.#.-.-.-.@./ p 5 w ] 0.q.q.q.9.4.2.2.2.! * b 4.9.8.2.2.2.",
"[ 2.` y = 8 _ 9.q.9.9.8.4.2.2.! N & c 8.q.9.#.O.O.O..._ y 2 8 _ 9.0.0.8.8.4.2.2.! N & b 8.q.0.4.4.4.",
"2.2.! * # e ( 4.0.4.3.2.2.[ ` N % o v 8.q.9.$.O.O.O...) * # e W 4.0.8.2.2.2.2.` N % O n 8.q.q.0.9.9.",
"2.2.! * # e W 4.0.9.8.2.2.` m % o @ n 3.6.6.o.O.O.O...( * @ e ( 3.0.9.8.3.2.` m & O # n { 6.4.4.6.4.",
"2.2.! * + e V ' 8.9.8.2.! C % O + : u R ` [ o.O.O.+...) * @ e V ' 8.9.8.2.Q C % O + = u E ! 2.3.4.3.",
"2.2.Q * # : e B ` 2.2.[ N + O + : 5 2 & Z 3.#.O.O.O...( * # : e B ' 2.2.` N + o # : 5 2 & Z 3.9.9.9.",
"2.Q * @ # : 5 r b b b b & o # = 5 6 < # t C | ...... .n @ # : 5 r b v b b &   @ = 5 1 < $ t Z 3.8.8.",
"Q c O % * a s 4 + + + O O + y s w f s u $ * L } } } K X % * p s 4 + O O . + # y s f f s u $ * S Q E ",
"% O + C W ) ) A : : : : : e A { 7.7.{ ) M - z } } } K # N Q ) ) A e : ; - : e S ' 5.7.{ ( a : & % % ",
"# t N ` 8.4.3.) A u : 5 a A 3.8.9.8.8.5.( M x } } } K B [ 4.6.3.) A a e 5 g A { 9.0.8.8.4.( n - # # ",
"u A 2.8.0.9.3.2.` B 3 1 T 3.0.q.0.4.3.9.4.W G K } } K { 8.0.0.3.[ ` B 3 1 T 3.9.0.0.4.4.8.4.) a e e ",
"3.8.8.4.3.3.3.2.` n @ 3 / 0.0.q.0.4.3.3.3.[ I } } } } { 4.3.4.2.2.` b @ e D 9.0.w.9.3.3.3.3.` W B e ",
"q.q.q.8.3.3.2.2.[ c . : / 8.8.8.8.3.[ [ 2.2.Y } } } } 0.8.4.2.2.2.` c + ; A 8.9.5.5.3.2.2.2.2.[ B # ",
"q.q.q.0.4.2.2.2.` c + : A 2.3.3.3.2.2.3.3.2.U J J J J 0.0.8.2.2.2.2.v + : A 2.3.3.3.2.2.3.2.2.[ b O ",
"q.8.4.4.3.2.2.2.` c + : A 2.8.8.8.3.3.8.8.8.P H H H H [ 4.3.2.2.2.` c + : V 2.4.9.8.3.3.8.8.8.[ b o ",
"q.9.4.2.2.2.2.! S * + : B ( 6.0.q.8.4.8.9.8.P H H H F { 2.2.2.2.! S * + : B W 6.0.0.6.6.8.0.8.[ b o ",
"q.9.9.3.2.[ [ S & O + : e a ) 6.0.9.8.3.2.[ ^ H H H H 8.3.2.2.2.S % O + : e a ) 6.0.0.8.4.2.2.` v o ",
"4.6.4.3.[ [ N * O . = 5 5 5 g ( 6.8.4.3.2.! d H H H H 4.3.2.` N * O @ - 5 5 5 g ( 6.6.4.2.2.! b % o ",
"( ` ` 2.` E * O @ t p s f s 3 M E E S E E N 3 H H H F [ 2.` S * O O e g s f f 5 M E E E E W N O + + ",
"a A [ [ S % O + : Z ` ) ) R a ; + % % % % + = F H F l [ [ S % + @ ; Z _ ` ) W u ; % % % % % O O # : ",
"5 y n n *   + t V ' 6.8.4.[ R u - - > v m m g l l l k m m * O . t V ' 6.6.3.` R y - # > m m m m y : ",
"1 $ X   . X $ g [ 8.q.q.8.2.2.E u : M ` 3.3./ q j j 7 . . . . = g ` 8.q.q.0.2.[ A a : M ` 2.3.2.A a ",
"5 3 < < < < 0 f [ 8.q.q.0.9.3.' W > n 6.9.9.6.~ h 9 6 < < < < 5 f ` 8.q.q.0.0.3.` W > b 8.0.9.9.3.W ",
"V s 5 0 0 0 f R 3.0.0.8.8.6.3.2.! * c 5.8.8.8.4.` A g 5 0 0 0 f R 3.9.q.9.8.4.3.2.` * b 4.8.8.8.3.2.",
"[ A p 5 0 0 R 4.0.0.0.3.2.2.2.2.` * * 2.3.3.2.2.[ [ A a 1 0 w R 4.0.q.0.3.3.2.2.2.! * * 2.3.3.2.2.2.",
"2.) A a 1 w _ 9.0.q.0.0.4.2.2.2.` * c 5.9.8.2.2.[ 2.) A p 5 w _ 0.0.q.q.9.4.2.2.2.! * c 4.9.8.2.2.2.",
"2.2.` y = w _ 9.0.0.0.8.4.2.[ ! N & v 8.0.0.4.4.4.2.2.` y 2 5 _ 0.0.0.8.8.4.2.2.Q N & v 8.q.0.4.4.4.",
"2.2.! * # e ( 4.q.4.3.2.2.[ [ N @ O b 8.0.0.0.0.8.3.2.! * # e ( 4.0.6.3.3.2.2.` N @ + n 8.0.q.0.0.0.",
"2.2.! * + e R 4.0.0.4.3.2.! m & O @ n 3.4.4.4.4.4.2.2.! * # e W 3.0.0.4.2.2.! m & O # n 3.5.4.4.4.4.",
"2.2.! * # e V ' 0.0.8.2.! C % O @ = p E ` 2.3.4.3.2.2.! * + e V ' 8.0.8.2.Q C % O + : u S ! 2.3.3.4.",
"2.2.Q * @ 2 u V ! [ [ [ m @ O @ 3 1 2 & C 3.8.0.0.2.[ ! * # : e V [ 2.[ 2.N + O + : 5 2 & C 3.9.0.0.",
"2.S c % + 3 5 e b b b b & O + = 5 1 < = > C 3.8.6.2.E c @ @ e 5 4 b b b b % O # = < 1 < - t C 3.8.4.",
"2.N o o @ : 1 , O o o o o . : 5 1 0 5 3 @ * Q [ 2.2.N o o @ : 1 ,   o o o o O : 5 0 0 1 : # * ) 2.2."
};
