/* XPM */
static char *out[] = {
/* columns rows colors chars-per-pixel */
"50 50 175 2 ",
"   c #6E4B0F",
".  c #714F0F",
"X  c #77510F",
"o  c #6B4711",
"O  c #6E4A12",
"+  c #724D11",
"@  c #755113",
"#  c #7A5311",
"$  c #7F5911",
"%  c #755419",
"&  c #79571B",
"*  c #7B5B1D",
"=  c #835D0E",
"-  c #805711",
";  c #855C13",
":  c #885E11",
">  c #805D1A",
",  c #826506",
"<  c #866806",
"1  c #8C6D06",
"2  c #84650A",
"3  c #8B640C",
"4  c #876A0E",
"5  c #8D6B09",
"6  c #956E03",
"7  c #996E07",
"8  c #906708",
"9  c #926F0E",
"0  c #8D7204",
"q  c #907509",
"w  c #9B710B",
"e  c #8D6313",
"r  c #8B6A13",
"t  c #82621E",
"y  c #8B661C",
"u  c #8E6A1C",
"i  c #906616",
"p  c #916B15",
"a  c #916B19",
"s  c #927412",
"d  c #937A13",
"f  c #94711C",
"g  c #A77A02",
"h  c #AA7C00",
"j  c #A07608",
"k  c #A37C0D",
"l  c #836524",
"z  c #886726",
"x  c #866A26",
"c  c #896B25",
"v  c #896E29",
"b  c #916E21",
"n  c #8D732C",
"m  c #957424",
"M  c #987624",
"N  c #90772E",
"B  c #94782B",
"V  c #9B7C2A",
"C  c #957D31",
"Z  c #A17F2D",
"A  c #AF8100",
"S  c #AD8108",
"D  c #B28400",
"F  c #B78802",
"G  c #BB8C00",
"H  c #B28B0A",
"J  c #BF9001",
"K  c #BA930B",
"L  c #A48310",
"P  c #AB8619",
"I  c #BE9411",
"U  c #B69019",
"Y  c #BF981B",
"T  c #9B8122",
"R  c #9D832B",
"E  c #978034",
"W  c #9C8433",
"Q  c #9D8739",
"!  c #9E893A",
"~  c #A38523",
"^  c #A98C26",
"/  c #A2822D",
"(  c #BF9C25",
")  c #B2952E",
"_  c #BC9A2C",
"`  c #A28634",
"'  c #A18A36",
"]  c #A88D34",
"[  c #A38D3C",
"{  c #A88D3A",
"}  c #AD9231",
"|  c #A5913E",
" . c #AC923D",
".. c #BB9D3C",
"X. c #C29300",
"o. c #C69A01",
"O. c #CA9B00",
"+. c #C0940A",
"@. c #C2990A",
"#. c #C09D1C",
"$. c #CCA301",
"%. c #CEAD00",
"&. c #D4A500",
"*. c #D5A902",
"=. c #DBAB00",
"-. c #D1A60A",
";. c #D3A80D",
":. c #D6B302",
">. c #DAB700",
",. c #DDBA01",
"<. c #CCA416",
"1. c #CDAE15",
"2. c #E3B300",
"3. c #E4BA00",
"4. c #EBBC00",
"5. c #C09A24",
"6. c #D3AF2A",
"7. c #E6BF21",
"8. c #DFC202",
"9. c #E3C302",
"0. c #EDC300",
"q. c #E4CC00",
"w. c #E9CC03",
"e. c #E7C108",
"r. c #E5C80C",
"t. c #F4C400",
"y. c #F8C700",
"u. c #F5C900",
"i. c #FCCC00",
"p. c #EBD100",
"a. c #EBD10E",
"s. c #FDD400",
"d. c #F5DC02",
"f. c #FCDB01",
"g. c #F6D90C",
"h. c #F8DA08",
"j. c #F7C911",
"k. c #F1CD1D",
"l. c #EEE20E",
"z. c #FCE300",
"x. c #FDEB00",
"c. c #FEE40B",
"v. c #F8E80C",
"b. c #FDF301",
"n. c #FEF80D",
"m. c #FFF012",
"M. c #FDF01B",
"N. c #EACD2B",
"B. c #ECD124",
"V. c #F2DF31",
"C. c #FADF31",
"Z. c #FDF63B",
"A. c #A69340",
"S. c #AA9543",
"D. c #AE9846",
"F. c #B19544",
"G. c #B19946",
"H. c #B49C4A",
"J. c #B89F4D",
"K. c #BCA343",
"L. c #BBA04E",
"P. c #BDA351",
"I. c #C2B348",
"U. c #E9CD4E",
"Y. c #F5E142",
"T. c #FEF940",
"R. c #FEF348",
"E. c #FDF050",
"W. c #F7DA66",
"Q. c #F6E362",
"!. c #F8E463",
"~. c #FDF16E",
"^. c #FDFC6D",
"/. c #FEFA7B",
"(. c #F9F2C6",
/* pixels */
"o o % C A.A.A.W e e e e 8 i ` G.P.P.J.{ m = + o o o o % C A.A.A.R e e e e : a ` D.P.P.H.| M ; + o o ",
"# > v { H.D.S.[ V u e 3 a V S.J.P.H.H.D.` b # # # # > v A.F.G.S.Q V a e 8 s V  .J.P.H.H.G.` b # # # ",
"a V S.H.L.J.S.| [ m 2 1 T S.J.P.P.S.S.J.D.W a e e i V S.H.L.J.F.A.| m 3 5 T S.J.P.P.S.S.J.S.W a e : ",
"F.F.H.F.S.S.S.A.{ c @ 3 / J.P.P.P.D.A.S.A.| Q f a ] F.J.D.D.S.A.A.[ x # e / J.L.P.P.D.S.S.A.| W m : ",
"P.P.P.H.S.A.A.A.| * @ : Z H.H.H.H.S.A.A.A.A.| n z F.P.P.H.S.A.A.A.[ l O : Z H.H.H.H.S.A.A.A.A.A.m - ",
"P.P.L.L.H.A.A.A.| l @ : V S.S.S.A.A.A.S.A.A.A.x & S.P.P.L.H.A.A.A.[ l @ : V | S.S.A.A.A.S.A.A.| x + ",
"P.L.D.D.S.A.A.A.[ l + : M S.G.H.H.S.S.H.J.H.A.x & F.H.D.S.S.A.A.A.[ l + : M S.H.J.H.S.S.H.H.D.A.x o ",
"P.H.D.A.A.A.A.! C * + : m ` G.L.P.D.H.H.H.H.A.l & F.J.S.S.A.A.A.[ C * + : m ' G.J.L.H.D.J.J.H.A.x o ",
"P.P.J.S.A.| | C & O + e e f ' H.P.L.H.S.S.A.[ x & F.P.J.S.A.| | C & O @ : e a ' D.L.L.H.S.A.A.A.z o ",
"D.D.D.A.A.| n * O @ = 3 5 5 f ` S.H.S.A.A.! x % % A.H.F.S.| | n * O + - 5 5 9 f Q D.F.D.A.A.Q v % o ",
"Q [ A.A.[ C * o . t r d d q e a E E E W W ~ q e i ^ ) ) } } C * O + t p s d q e b C C Q C E n O O O ",
"p B | A.N % O . : M [ ' ' ' a ; % % % L 9.h.d.s.4.4.4.y.t.t.@.@ + 2 M ! ' ' Q s > % % % % % % o # : ",
"5 r x x * . + t M { H.H.S.| V c # # K g.E.R.b.x.f.i.t.t.i.s.i.$.t B { H.H.S.[ V b # # > z z z v y e ",
"0 $ X   . @ 2 f { H.P.P.H.A.A.R a H h.~.Q.r.,.8.0.i.i.4.h.c.c.c.r.| H.P.P.H.S.A.V i : b A.S.S.A.V i ",
"3 3 < < < < 1 d | H.P.P.L.H.S.| ^ q.c.B.:.8.p.q.$.O.y.4.N.^.^.^.^.K.H.P.P.P.H.S.{ C t z F.J.J.J.S.Q ",
"M s 1 0 0 0 d R S.L.L.H.H.H.A.| 1.z.p.,.V.Z.b.z.u.=.@.2.3.v.n.n.n.l.K.P.H.H.H.S.S.[ * z F.H.H.H.S. .",
"A.V r 5 0 0 / S.L.P.L.S.A.S.| ) e.d.>.Y./.M.p.:.i.i.&.X.2.3.s.s.s.s.6.P.S.S.A.A.A.! * * A.S.S.A.| S.",
"A.{ V p 5 q } J.P.P.P.L.D.A.A.#.w.9.a.T.m.h.9.O.t.i.i.G &.=.4.t.4.4.2.P.J.D.A.A.A.! * v F.H.G.A.| | ",
"A.A.[ y = q ] J.P.L.H.H.D.| | -.4.>.b.b.h.!.k.o.i.i.i.=.X.&.&.2.2.2.=...H.S.S.A.Q n & v H.I.L.G.S.G.",
"A.A.! * # e W H.L.D.S.S.A.| ] =.*.9.b.z.C.(.W.@.t.i.i.2.D &.&.2.2.2.2.( S.A.A.! n % O z H.P.L.L.L.L.",
"A.A.! * # e W S.L.L.H.A.A.[ M =.o.d.x.s.w.U.j.o.y.i.4.4.G o.O.2.2.2.2.<.S.A.[ v & o @ b S.S.S.G.G.D.",
"A.A.! * X e M { H.H.H.A.[ N k O.J x.s.u.>.-.t.o.y.i.4.4.&.F o.=.2.2.=.;.A.! n % O + 3 u C [ S.S.S.D.",
"A.A.Q & @ : e m [ A.A.| v @ g X.%.x.i.3.&.*.u.X.t.4.4.4.=.h o.=.2.2.2.*.| n + O # : 1 2 * N S.H.L.J.",
"A.E * % # : 5 r x x x x & O S G %.d.i.t.t.7.j.o.4.4.4.4.4.h X.&.*.=.*.&.c % O # ; 1 1 , $ t N S.D.H.",
"! x O % * i s 4 + + + + + + H F %.u.i.i.i.e.u.X.4.4.4.4.2.h X.X.X.X.X.X.+ + + e s d d s a # * B Q Q ",
"% O + n W [ ' V e = ; = ; e K D o.4.4.t.y.3.u.X.4.4.4.4.=.h X.X.X.X.X.G : ; t R { ..G. .[ a ; * % % ",
"# * n A.H.D.S.' V u 3 3 a V +.F X.3.4.4.4.3.u.o.4.4.4.=.&.g G X.X.X.X.G 3 a V  .J.L.J.H.S.` c - # # ",
"a V S.H.J.L.S.| [ m e 1 T S.Y F G 2.4.4.4.,.u.X.2.4.2.=.O.g X.G G X.X.G 6 T S.L.P.P.D.F.J.S.' a e : ",
"S.D.L.S.S.S.S.A.| x X 3 / H.5.F D =.2.4.4.2.u.X.2.2.=.=.X.h X.X.X.X.G D 3 / J.P.P.L.S.S.S.S.[ W m e ",
"I.P.P.H.S.A.A.A.| l + : Z H._ G h &.2.4.4.>.u.X.=.=.=.=.G h X.X.X.X.X.g : Z H.H.H.H.S.A.A.A.A.| m # ",
"L.L.P.L.H.A.A.A.[ l + : V | } J h X.&.2.4.>.4.X.=.=.=.O.h h X.F G G F 6 : V A.S.S.S.S.| S.A.A.| x O ",
"L.J.D.D.S.A.A.A.| l + : M S.F.+.A D O.O.=.=.t.X.&.=.O.O.h G F h D D h = ; V A.H.H.H.S.S.H.H.H.| x o ",
"P.J.F.A.A.A.A.! C * . : m ` F.#.F h X.O.O.&.4.X.o.O.o.h D J D A A A g X : f ` F.P.P.H.G.H.L.H.| x o ",
"P.L.J.S.A.A.[ C & O . : i p ` ) +.h h o.o.&.2.X.X.O.X.h D G A A D A 8 + : i a ' D.L.L.H.S.S.A.! l o ",
"D.F.F.A.A.[ N * O @ = 3 5 5 f ` I D h D o.o.O.F X.X.h h G F A A A h = = < 5 5 f ` G.G.D.A.A.! x & o ",
"Q A.A.A.[ C * o + t p d d s 8 b ~ G D h h G X.X.F h h F G A A A A 7 ; u d d s r b C E E W E n @ O + ",
"y V | | C % + + : M [ ' [ W a ; & j F D h h g g h h h X.D h D A g e V ! ' ' W p ; % @ % % % O O # : ",
"5 y c x *   . t V { H.G.S.{ R u # ; h G D h D h h F X.h h D D h 9 M { H.H.S.| R u # # > x v v v y e ",
"1 = X   . . 2 m ! H.P.P.H.S.A.W i : f U X.G G G X.X.h g h g h 7 f { H.P.L.L.A.| W i e b [ S.S.A.V a ",
"3 3 < < < < < d | H.P.P.L.H.S.[ W > b F.H.5._ ) P w 7 6 6 6 6 1 d | H.P.P.L.L.A.[ W * z H.J.J.J.S.W ",
"M s 5 0 0 0 d / S.L.L.H.H.H.S.| ! * z F.H.H.H.S.{ V a 5 0 0 0 d R S.L.L.H.H.H.S.A.! * x D.H.H.H.S.A.",
"A.V p 5 0 q R S.L.L.L.S.A.| A.A.! * * A.S.S.A.A.| | V r 1 0 0 R S.L.L.L.S.A.A.A.A.! * * A.A.S.A.A.A.",
"A.[ V a 1 q ] J.L.P.P.L.D.A.A.A.A.& l F.J.H.S.A.A.A.[ R p 5 q ] L.P.P.P.L.D.A.A.A.[ * l D.J.H.A.A.A.",
"A.A.! y 3 q ] J.L.L.L.H.D.A.| ! n % z H.P.J.D.D.S.A.A.! y 3 9 ] L.P.L.H.L.S.A.A.Q n & z H.P.L.D.H.S.",
"A.| ! * # e W G.L.H.S.A.A.A.| n @ O x H.P.P.L.L.L.S.A.! * X e / S.L.L.A.A.A.A.! n @ + c H.P.L.L.P.J.",
"A.A.! * # e R S.L.L.D.A.A.! v % O @ b S.D.D.D.D.S.A.A.! * # i W S.L.L.D.A.A.! n & O X c A.G.G.G.S.H.",
"A.A.! * X e M | H.L.L.A.! N % O + : p E ! S.A.S.S.A.A.! * . e V { H.L.D.S.! N % O @ = u N A.A.S.S.S.",
"A.| Q * @ e r m ! | | | v @ O @ 2 1 2 % C A.L.L.L.A.| ! * # : i m | A.A.{ n + O X = 3 3 & N S.J.L.J.",
"A.C l @ @ : 3 r x x x x * o # = 5 1 < = > N S.G.D.A.C l % + : 3 4 x x x x & O X = 1 1 < $ t N S.G.H.",
"A.n o o @ 3 1 ,   o o o o . = 3 0 0 1 : # * ! A.A.A.n O o + 3 5 ,   o O o o . ; 5 1 0 5 3 X * Q A.A."
};
