/* XPM */
static char *out[] = {
/* columns rows colors chars-per-pixel */
"50 50 232 2 ",
"   c #6E4B0F",
".  c #714F0F",
"X  c #6B4711",
"o  c #6E4A12",
"O  c #734E11",
"+  c #755113",
"@  c #7B5411",
"#  c #7F5911",
"$  c #755419",
"%  c #7B5C1D",
"&  c #7C5C26",
"*  c #825D0D",
"=  c #805711",
"-  c #855C13",
";  c #885E11",
":  c #805D1A",
">  c #836507",
",  c #866805",
"<  c #8C6D06",
"1  c #8B640D",
"2  c #8D6B09",
"3  c #8D7203",
"4  c #8D720C",
"5  c #90720A",
"6  c #8D6212",
"7  c #89681A",
"8  c #906616",
"9  c #926B14",
"0  c #916B19",
"q  c #927413",
"w  c #967A14",
"e  c #94711B",
"r  c #836624",
"t  c #866A26",
"y  c #896B25",
"u  c #876829",
"i  c #896E29",
"p  c #916E21",
"a  c #8D732C",
"s  c #957323",
"d  c #967929",
"f  c #9B7C2A",
"g  c #957131",
"h  c #957D32",
"j  c #A17F2D",
"k  c #957C54",
"l  c #9D8317",
"z  c #A78812",
"x  c #AF941D",
"c  c #B6A316",
"v  c #9C8227",
"b  c #978034",
"n  c #9C8434",
"m  c #9D8739",
"M  c #9E893A",
"N  c #A2842B",
"B  c #AB952A",
"V  c #A28634",
"C  c #A18A36",
"Z  c #A88D35",
"A  c #A38E3C",
"S  c #A5913E",
"D  c #AC983A",
"F  c #B29E38",
"G  c #BBA52D",
"H  c #BDAD3A",
"J  c #C1A619",
"K  c #F8B602",
"L  c #F8BC03",
"P  c #F8B50D",
"I  c #F8BB0C",
"U  c #F8BC14",
"Y  c #F8B818",
"T  c #C9B829",
"R  c #CEBD35",
"E  c #C3B33C",
"W  c #F8BD26",
"Q  c #F6BF33",
"!  c #F8C306",
"~  c #F8C30C",
"^  c #F8CD0B",
"/  c #F8D004",
"(  c #F8C817",
")  c #F8D111",
"_  c #F8D913",
"`  c #F8D418",
"'  c #F8DB1B",
"]  c #F8E21C",
"[  c #D8C92C",
"{  c #D5C83B",
"}  c #F8CA26",
"|  c #F8D523",
" . c #F8DC23",
".. c #F8DC29",
"X. c #F8C53B",
"o. c #E5DA3B",
"O. c #F8D935",
"+. c #F8E124",
"@. c #F8E42C",
"#. c #F8F02E",
"$. c #EEE433",
"%. c #F8E233",
"&. c #F8E639",
"*. c #F8EC39",
"=. c #A69340",
"-. c #AA9543",
";. c #AE9946",
":. c #AA934F",
">. c #AB974C",
",. c #B19342",
"<. c #B19A46",
"1. c #B49C4A",
"2. c #B89F4D",
"3. c #A48756",
"4. c #B9A748",
"5. c #BBA14E",
"6. c #BEB04F",
"7. c #BDA351",
"8. c #B5A359",
"9. c #BEB05F",
"0. c #AD996C",
"q. c #AB987B",
"w. c #B09E7A",
"e. c #B8A661",
"r. c #BFB175",
"t. c #C1A94B",
"y. c #CAB847",
"u. c #C2AB57",
"i. c #CCBD53",
"p. c #C5AF69",
"a. c #C3B367",
"s. c #C1A671",
"d. c #C6B67B",
"f. c #D9CD4A",
"g. c #DED051",
"h. c #F8C342",
"j. c #F7C948",
"k. c #F8C84C",
"l. c #E5D94A",
"z. c #F8DD47",
"x. c #F8D34C",
"c. c #F8CB56",
"v. c #E4DB5A",
"b. c #F8DD54",
"n. c #EBE243",
"m. c #F7E746",
"M. c #F8E94B",
"N. c #F8F142",
"B. c #F8F14B",
"V. c #ECE253",
"C. c #F8E659",
"Z. c #F3EB5D",
"A. c #F8EB5B",
"S. c #F8F354",
"D. c #F8F45C",
"F. c #D3C668",
"G. c #D0C472",
"H. c #F8D269",
"J. c #F8D96B",
"K. c #F8D87A",
"L. c #EAE16B",
"P. c #F7EF66",
"I. c #F8E568",
"U. c #F8F364",
"Y. c #F8F46C",
"T. c #EDE779",
"R. c #F8EA76",
"E. c #F4EC79",
"W. c #F8F474",
"Q. c #F8F47B",
"!. c #CABC87",
"~. c #C8BCA3",
"^. c #CDC286",
"/. c #CEC398",
"(. c #D5C89B",
"). c #E8D784",
"_. c #F8D885",
"`. c #EAD597",
"'. c #F8DF95",
"]. c #F8DE99",
"[. c #ECE883",
"{. c #F8ED84",
"}. c #F7E889",
"|. c #F8F484",
" X c #F4F18A",
".X c #F8F68C",
"XX c #EFE898",
"oX c #F7E897",
"OX c #F8F696",
"+X c #F7F59A",
"@X c #F8F49C",
"#X c #D7CDAD",
"$X c #DDD3AA",
"%X c #E5DDAA",
"&X c #F1DCA6",
"*X c #E4DDB4",
"=X c #F6E9A7",
"-X c #F8EBA4",
";X c #F8F4A2",
":X c #F5F1A8",
">X c #F8F6AD",
",X c #F8F8AB",
"<X c #E9E3BC",
"1X c #F6E9B5",
"2X c #F4EBBC",
"3X c #F8F5B4",
"4X c #F8F7BB",
"5X c #E4DFC7",
"6X c #EAE4C4",
"7X c #ECE6CB",
"8X c #F6EFC0",
"9X c #F8ECC1",
"0X c #F8F4C3",
"qX c #F8F8C1",
"wX c #F7F2C9",
"eX c #F8F6CA",
"rX c #F8F8CC",
"tX c #EAE4D2",
"yX c #EEE9D5",
"uX c #F4ECD2",
"iX c #F1EBD8",
"pX c #F4F1D5",
"aX c #F8F5D3",
"sX c #F8F6D8",
"dX c #F8F8DC",
"fX c #EFECE1",
"gX c #F8F6E3",
"hX c #F8F8E3",
"jX c #F8F7E9",
"kX c #F8F8EA",
"lX c #F8F8F5",
"zX c #F8F8F8",
/* pixels */
"X X $ h -.=.=.f 7 6 6 6 6 8 V <.7.u.1.A s * O X X X X + h =.=.=.n 8 6 6 6 6 7 V <.7.7.1.S s * O X X ",
"@ : i A <.<.-.A f 0 1 1 9 j -.1.2.1.1.<.V v x :.q.q.>.B D 1.1.-.C f 0 1 1 0 f ,.1.7.1.1.<.V p = @ + ",
"0 f -.1.2.2.;.=.A s * < v D 2.7.2.;.-.2.;.H n. XpXpX Xn.y.4.1.;.S A s 1 < v D 2.7.2.;.;.1.;.n 0 6 ; ",
",.<.1.<.;.-.=.=.A y @ 1 N 2.7.7.5.-.-.<.R V.:X.XD.D. X:XV.{ <.=.S A y + 1 N 2.7.7.2.;.-.-.-.A m p 6 ",
"7.7.2.1.-.=.=.=.S r O ; j 1.1.1.1.-.F E v.|.@XY.N.N.W.@XQ.v.R <.=.A t O ; f 1.1.1.1.-.=.=.=.=.=.s = ",
"7.7.7.7.1.=.=.=.A r O ; f S -.-.-.-.H n.+X3XB.D.W.W.D.B.>X@Xn.E =.S r O ; f =.-.-.-.=.=.-.=.=.A u O ",
"7.1.;.;.-.=.=.=.A r O ; f =.1.1.1.-.a.:X|.Y.D.OXrXrXOXD.U. X-X9.S A r O ; f =.1.1.1.-.-.1.2.1.=.t X ",
"7.1.-.-.=.=.=.M h % O ; s V <.5.5.H G.pXW.N..XrXzXlXrX.XN.W.dXG.F h % O ; s V 1.2.7.1.<.1.1.1.=.t X ",
"7.7.1.-.=.=.A h $ o O ; 6 e C <.4.o.E.wXY.D.rXlXzXzXlXrXD.Y.rXE.T % o . 1 6 e C ;.7.5.1.-.-.=.A r X ",
"1.;.;.-.=.=.a % o + - 1 2 5 e V 5.).}.J.C.Q.gXzXzXzXlXhXQ.Z.J.}.G.% + # 1 2 2 e V ;.;.;.=.=.M u $ o ",
"M M =.=.C h % X   7 q q q 4 1 N 6.<X-X` C.>XkXzXzXzXzXkX,XC.` =X#Xh 0 9 q l 4 1 p h b b b b a O o O ",
"0 f A =.h $ o . - d A C Z V 9 x o.2X-X..}.jXlXzXzXzXzXlXkX}. .-X2Xo.G Z C C n q ; $ $ $ $ $ O o @ ; ",
"2 7 y i % o . 7 s Z <.<.,.S h u.[.}.b.@.;XzXzXzXzXzXzXzXzX@X@.b.}.{.a.<.1.-.S f 7 # @ : y i i u 7 ; ",
"< > . . . . * e A 4.u.p.e.8.8./.pXx.) *.,XzXzXzXzXzXzXzXzX>X*.` k.aX%Xp.p.e.8.4.V 0 ; p A -.-.-.f 0 ",
"1 1 , , , , , w S { l.<XtX6XtXiXsXm.] U.qXzXzXzXzXzXzXzXzX4XU.] z.dXfXtXtXtX*Xl.T n : y <.4.7.1.-.V ",
"s q 2 3 z c 4.r.!.).Q.}.oX'.}.oX}.M.Z.;XsXzXzXzXzXzXzXzXzXsX;XA.M.}.}.}.'.oX}.{.).!.w.e.y.t.1.>.<.A ",
"=.f 0 e G n.oXuXuXaX:X} ( `  ...O.P.;XgXlXzXzXzXzXzXzXzXzXlXgX;XU.O... .( ( } =XaXuXuXoXV.y.1.=.S S ",
"=.C =.!.<X1XI.j.x.x.m.] %.A.oX:X>X0XdXlXzXzXzXzXzXzXzXzXzXzXzXdX0X>X:XoXA.&.+.&.b.x.x.J.:X<X(.8.S S ",
"=.8.!.`.oXoXb.O.x.b.C.P.|.,XjXzXzXzXlXzXzXzXzXzXzXzXzXzXzXzXzXzXzXzXzXgX,X|.Y.C.b.k.O.b.oX-X`.!.e.<.",
"=.!.7Xk.( ' M..XaXgXgXjXgXlXzXzXzXzXzXzXzXzXzXzXzXzXzXzXzXzXzXzXzXzXzXzXkXkXgXgXgXaX.XM.` ( k.7X(.5.",
"=./.uXh.K ^ M.OXjXzXzXzXzXzXzXzXzXzXzXzXzXzXzXzXzXzXzXzXzXzXzXzXzXzXzXzXzXzXzXzXzXkXOXM.^ L h.uX/.<.",
"=.!.2XH.} I O.Q.eXjXzXzXzXzXzXzXzXzXzXzXzXzXzXzXzXzXzXzXzXzXzXzXzXzXzXzXzXzXzXzXkXeXQ.O.I } H.2X^.,.",
"S F. X2X_.I ^ @.Q.0XlXzXzXzXzXzXzXzXzXzXzXzXzXzXzXzXzXzXzXzXzXzXzXzXzXzXzXzXzXzXqXQ.@.^ U _.0X XF.5.",
"S S 8.5X].U L ) %.Q.4XjXzXzXzXzXzXzXzXzXzXzXzXzXzXzXzXzXzXzXzXzXzXzXzXzXzXzXkX4XQ.%.^ L P ].7XF.6.<.",
"n r & ~.`.Q P K / %.Q.eXkXlXzXzXzXzXzXzXzXzXzXzXzXzXzXzXzXzXzXzXzXzXzXzXzXkXeXQ.%.! K P Q `.#X:.n n ",
"$ o $ :.!.1Xh.K L ^ @.Q.qXlXzXzXzXzXzXzXzXzXzXzXzXzXzXzXzXzXzXzXzXzXzXzXzX4XQ.@.^ K K h.&Xs.i % $ $ ",
"@ % a A p.(.).k.K L ) m.|.qXkXzXzXzXzXzXzXzXzXzXzXzXzXzXzXzXzXzXzXzXzXkXqX|.N.) L P k._.(.8.0 # @ @ ",
"0 f -.1.7.p.#X&XX.P L ] N.|.aXzXzXzXzXzXzXzXzXzXzXzXzXzXzXzXzXzXzXzXzXsX|.N.] ! P Q &X#Xu.:.m 0 6 6 ",
",.1.1.;.,.<.e.!.&Xk.K ^  .S.rXzXzXzXzXzXzXzXzXzXzXzXzXzXzXzXzXzXzXzXzXeXS.' ^ K k.&X^.e.;.=.A m s 6 ",
"7.7.7.1.-.=.-.e.XXK.k.~ _ N.eXzXzXzXzXzXzXzXzXzXzXzXzXzXzXzXzXzXzXzXzXeXN._ ~ j.K.XX9.=.=.=.=.=.s # ",
"7.7.7.1.1.=.S H o.@X1X} _ N.rXzXzXzXzXzXzXzXzXzXzXzXzXzXzXzXzXzXzXzXzXeXB._ } 1XXXn.H =.=.-.=.S t X ",
"7.1.;.;.-.=.-.F E %X0X| @.Y.aXzXzXzXzXzXzXzXzXzXzXzXzXzXzXzXzXzXzXzXzXaXY.@.| 0X%Xy.4.-.1.1.1.S t X ",
"7.1.;.=.=.=.=.D 6.$X8X+.M.:XhXzXzXzXzXzXzXzXzXzXzXzXzXzXzXzXzXzXzXzXzXhX;XM...0X%Xy.4.;.1.1.1.=.u X ",
"7.7.1.-.=.=.M H o.+X8X+.E.kXlXzXzXzXzXzXzXzXlXlXlXkXlXzXzXzXzXzXzXzXzXlXkXR...0X:X$.y.1.-.=.=.A u X ",
";.1.1.=.-.=.a Z V.3X0X*. XlXzXzXzXzXzXlXzXlXlXrX,X,XrXlXlXlXzXzXzXzXzXzXlX{.*.0X3XZ.y.-.=.=.m u $ X ",
"V C S =.M b % h T.>X;XB.OXlXzXzXzXzXzXlXzXlXdXOXD.U.OXdXlXzXzXlXzXzXzXzXlXOXB.;X>X[.5.b b b a + o O ",
"0 f S S h $ o k 6XR.%.D.>XzXzXzXzXzXzXlXlXsX.XS.#.#.S..XdXlXlXlXzXzXzXzXzX,XD.O.R.6X3.$ $ $ + o @ ; ",
"2 7 y y %   + 3.tXI.@.+XaXzXzXzXzXzXhX4X@XR.m.| ) ) | z.R.+X4XdXzXzXzXzXlXdX+X@.I.tX3.: u i i i 7 6 ",
"< # . . . . > :.7XI.O.aXzXzXzXzXzXkX4XY.*.' ~ U } W U L ' *.Y.4XkXlXzXzXzXzXaX%.I.tX3.s S -.=.=.f 0 ",
"1 1 , , , , < :.tXI.%.aXzXzXzXzXkX,XY.*.` L L H.9X9XH.K L ` *.W.,XkXzXzXzXzXaX%.I.tXk i <.1.7.1.S m ",
"s q 2 3 3 3 w 8.yXI...;XsXlXzXdX3XW.*.' I Y c._.@X@X}.c.Y L ` *.W.3XdXzXzXsX;X..J.tXk r ,.1.1.1.;.=.",
"S f 9 2 3 4 v r.uXH.( U.>XjXgX3XY.*. .Y Y j.2XE.$.$.E.1Xk.W ( | *.P.>XgXgX,XU.( H.tXk % =.=.-.=.=.=.",
"=.A b 9 2 5 Z d.iXH.~ %.Y..XY.m.| ~ X.=X1XoXY.f.E H f.I.oX1XoXj.( ` m.W.OXU.&.~ H.tXk r ,.1.>.-.=.=.",
"=.S A 7 1 4 Z !.iXH.L _ ..m. .^ ~ X.K.8X6X`.l.E -.S E f.!.#X2X_.X.I ^ ' m.%._ L H.tXk r 1.u.2.<.;.;.",
"=.=.M % @ 6 n p.7XH.P L ! ! U U W oX1XE.F.9.t.4.2.-.D S u =.T.1X].W U I ~ ! ! P H.6Xk t 1.8.7.2.2.2.",
"=.=.M % + 6 n 6.R.}.K.Y L Y K.].].E.L.i.5.;.1.;.,.-.S M % 7 D v.{.].].K.U K U K.}.L.N y ,.,.<.<.;.;.",
"=.=.M % @ 6 f G [ [.-Xc.h.k.-X<X$Xf.T n M S =.-.-.S S M % . 9 J g.*X9X-Xk.h.c.-XT.T z 0 h M =.-.;.;.",
"=.S m % + ; 6 s F { Z.2XuX2XP.R N w 3 % a -.5.5.5.-.S M % @ ; 9 N >.f.A.2XuX2XA.T w 5 > % g -.2.2.2.",
"=.h r O + ; 1 9 y l B 0.q.0.G z 2 3 , # 7 a -.>.1.=.b r + + ; 2 1 y l B 0.q.0.G z 5 < , * 7 a ;.1.;.",
"=.a o X + 1 < >   X X X X o ; 1 3 3 2 6 O % M =.=.=.a X X + ; < >   X X o X X : 2 2 3 2 ; O % M =.=."
};
