/* XPM */
static char *out[] = {
/* columns rows colors chars-per-pixel */
"50 50 184 2 ",
"   c #6E4B0F",
".  c #714F0F",
"X  c #7A530F",
"o  c #6B4711",
"O  c #6E4A12",
"+  c #734E11",
"@  c #755113",
"#  c #7A5311",
"$  c #7E5912",
"%  c #755419",
"&  c #79571B",
"*  c #7B5C1D",
"=  c #845D0E",
"-  c #8A5F0F",
";  c #805711",
":  c #845C14",
">  c #895E11",
",  c #805D1A",
"<  c #826506",
"1  c #866806",
"2  c #8C6D06",
"3  c #84650A",
"4  c #8B640D",
"5  c #876A0E",
"6  c #8D6B09",
"7  c #926C0C",
"8  c #9A6F0A",
"9  c #8D7204",
"0  c #977305",
"q  c #90750B",
"w  c #9E740B",
"e  c #8D6313",
"r  c #8B6A13",
"t  c #82621E",
"y  c #8B661C",
"u  c #8E6A1C",
"i  c #916715",
"p  c #916B15",
"a  c #916B19",
"s  c #927413",
"d  c #937A13",
"f  c #94721C",
"g  c #9B7618",
"h  c #A47602",
"j  c #A67902",
"k  c #AB7D01",
"l  c #A07A10",
"z  c #A17F1E",
"x  c #836524",
"c  c #886726",
"v  c #866A26",
"b  c #896B25",
"n  c #896E29",
"m  c #916E21",
"M  c #8D732C",
"N  c #957323",
"B  c #987624",
"V  c #91762F",
"C  c #94792C",
"Z  c #9B7C2A",
"A  c #957D31",
"S  c #A17F2D",
"D  c #AE8100",
"F  c #AB800B",
"G  c #B28300",
"H  c #B78801",
"J  c #BC8D00",
"K  c #B38709",
"L  c #B98E0A",
"P  c #BF9000",
"I  c #A4811D",
"U  c #B58D12",
"Y  c #B08B18",
"T  c #BA961E",
"R  c #9B8122",
"E  c #9D842B",
"W  c #978034",
"Q  c #9C8433",
"!  c #9D8739",
"~  c #9E893A",
"^  c #A2842D",
"/  c #AF8A29",
"(  c #B18D24",
")  c #B59D27",
"_  c #B99827",
"`  c #B79F2D",
"'  c #BB9B2B",
"]  c #A28634",
"[  c #A28B36",
"{  c #A88D34",
"}  c #A38D3C",
"|  c #A88D3A",
" . c #A5913E",
".. c #AB933D",
"X. c #B19433",
"o. c #B59B34",
"O. c #B0913C",
"+. c #B89D3F",
"@. c #BBA33A",
"#. c #C39300",
"$. c #C79900",
"%. c #CB9C00",
"&. c #C39A0C",
"*. c #CCA100",
"=. c #CFAB00",
"-. c #CBA008",
";. c #D4A400",
":. c #D1AD00",
">. c #DBAB00",
",. c #D3A70A",
"<. c #D1B200",
"1. c #DFB000",
"2. c #DBBB01",
"3. c #DBBC0C",
"4. c #CEA511",
"5. c #D0A611",
"6. c #D4AC12",
"7. c #D3AA1B",
"8. c #DBB613",
"9. c #E2B300",
"0. c #E8B700",
"q. c #E7BB00",
"w. c #EBBB00",
"e. c #DFC000",
"r. c #EBC300",
"t. c #E5CC00",
"y. c #ECCD00",
"u. c #E4C708",
"i. c #E8CB0B",
"p. c #F4C400",
"a. c #F8C700",
"s. c #F4CB02",
"d. c #FDCC00",
"f. c #F2C70E",
"g. c #F8CA0F",
"h. c #EED100",
"j. c #ECD20E",
"k. c #F3D300",
"l. c #FDD400",
"z. c #F6DA01",
"x. c #FDDB01",
"c. c #F0D10E",
"v. c #F5DB11",
"b. c #EDE30B",
"n. c #FDE400",
"m. c #FDEB00",
"M. c #FDE309",
"N. c #FDED0A",
"B. c #FDF202",
"V. c #FEF901",
"C. c #FEF41B",
"Z. c #FACF20",
"A. c #F3D921",
"S. c #E9CE34",
"D. c #EDD639",
"F. c #F4DB30",
"G. c #FDE821",
"H. c #FFFB29",
"J. c #F9E83A",
"K. c #A69340",
"L. c #AA9543",
"P. c #AE9846",
"I. c #B19444",
"U. c #B19946",
"Y. c #B49C4A",
"T. c #B89F4D",
"R. c #BDAB45",
"E. c #BBA04E",
"W. c #BDA351",
"Q. c #C0A247",
"!. c #F0D043",
"~. c #F5DF51",
"^. c #FBE246",
"/. c #FEF952",
"(. c #FEF25D",
"). c #F7F167",
"_. c #FEF261",
"`. c #F1ED73",
"'. c #FEFD74",
"]. c #FEF783",
"[. c #FEFD83",
"{. c #FEEB9E",
"}. c #FCF392",
"|. c #FAF4C9",
/* pixels */
"o o % A K.K.K.Q e e e e 4 i ] P.W.W.Y.K.N :   o o o o @ A K.K.K.E i > e - i a ] U.W.Q.T. .N ; O o o ",
"# , n | U.U.L.} Z u 4 4 a Z L.T.W.Y.U.U.] m $ # # # , n K.U.U.L.[ Z a e 4 p Z ..T.T.T.Y.P.] N $ # # ",
"a Z L.Y.T.T.L. .| N 4 2 R L.E.W.E.P.P.Y.L.] a e e i Z L.Y.E.T.L. . .N 4 2 R L.T.W.E.L.P.Y.P.! u e > ",
"I.I.Y.U.L.L.L.K.} b @ 4 ^ T.W.Q.E.P.L.L... .! N i | I.T.P.P.L.L. .} b % 4 ^ T.E.W.E.P.K.L.L.| ! N - ",
"W.W.E.Y.L.K.K.K. .x O > S U.Y.Y.Y.L.K.K.K.K.K.n c I.W.W.Y.L.K.K.K.} x + > S Y.Y.Y.Y.L.K.K.K.K.} N ; ",
"W.W.W.E.Y.L.K.K. .x @ = Z L.L.L.L.K.K.L.L.K.K.n & L.W.W.E.U.K.K.K. .x + > Z K.L.K.L.K.K.L.K.K.} v + ",
"W.Y.P.P.L.K.K.K.| x + > Z L.U.Y.Y.L.L.Y.Y.Y.K.x & I.T.L.P.L.K.K.K.} x + > Z L.U.T.Y.L.L.Y.Y.Y.K.v o ",
"W.Y.L.K.K.K.L.~ A * + ; N ] U.W.E.U.P.T.Y.Y.K.x & I.T.L.K.K.K.K.~ A * + - m ] U.E.E.Y.P.T.T.Y.K.v o ",
"W.W.E.L.K.K.} A % O + > e f [ U.W.W.Y.L.L.K.} x & I.W.Y.L. . . .A % + + > i f [ U.E.E.Y.L.K.K.K.c o ",
"U.U.L.K.K.K.V * O + ; 5 6 6 f ] L.U.L.K.K.! n % % K.U.P.L.L. .M * + + ; 1 6 6 f ] P.P.L.K.K.! n % o ",
"~ ~ K.L.} A * + + e f q d q r a W W ! W E R e 4 i / ` o.o.| A * O . , f s d q i m A A ! A A n @ O O ",
"p C  .K.V % O + : C [ | [ ] a : % & l -.9.9.r.k.x.x.x.x.s.q.&.5 . = Z [ [ [ ] a , % % % % & @ o # > ",
"6 r b b * O + , B | Y.U.L. .Z b 7 ;.a.a.s.x.G._.(.B.B.m.x.l.d.w.L B | Y.U.L.K.Z m # # , c c n n y e ",
"2 < . . . . 3 f } Y.W.W.Y.L.L.) j.M.z.k.M.(.}.~.i.e.2.e.q.s.l.d.p.5.+.W.W.Y.L.K.Z i > m K.L.L.K.Z i ",
"4 1 1 1 1 1 9 d  .Y.W.W.E.Y.R.`.'.).j.n.N.F.3.<.2.t.t.t.=.P *.p.p.w.6.E.W.W.Y.L.| A t c U.T.T.T.L.! ",
"B f 6 2 9 9 d E L.E.E.Y.Y.@.b.V.B.i.z.m.y.<.u.J./.V.B.m.x.a.;.J >.0.w.7.Y.Y.U.L.L.} * c L.Y.Y.Y.L.L.",
"| Z p 9 9 9 ^ L.E.W.E.P...8.l.d.r.r.m.y.<.A.].[.C.n.y.<.r.d.d.q.H %.9.0._ I.K.K.K.~ * * K.L.L.K.K.K.",
"K.} E u 6 q { T.E.W.E.T.' w.p.w.>.y.k.:.v./.H.m.x.k.y.$.1.d.d.d.0.H %.9.,.O.K.K.K.~ * v U.Y.U.K.K. .",
"K.K.~ u 4 6 { T.W.E.Y.T.6.9.1.>.9.p.=.h.V.V.n.x.^.D.d.#.9.d.l.d.w.;.H ;.;._ L.K.~ M * c Y.W.E.P.L.P.",
"K.K.~ * # e ] U.E.U.L.X.>.9.>.>.1.>.$.B.B.n.x.G.|.{.g.#.>.d.d.d.w.0.H $.;.&.| } M @ O c Y.W.W.E.E.E.",
"K.K.~ * + i Q L.E.E.U.4.1.0.>.;.1.J t.V.n.x.x.y.S.Z.a.$.9.d.d.a.w.w.%.k -.%.] n & O # m L.P.P.U.P.P.",
"K.K.! * # e B | Y.Y.Y.4.1.1.;.%.%.H m.m.d.d.r.e.#.p.a.#.>.d.d.p.w.w.9.k #.%.z % O + = u A } L.L.L.L.",
"K.K.! * + > i B  . .K.-.1.1.;.$.J *.B.l.d.p.2.%.;.j.a.#.1.d.p.w.w.w.0.H H $.w O @ = 6 3 & C L.Y.E.E.",
"K.W x O X 4 4 5 b n n -.>.;.;.#.G <.m.d.d.d.p.p.f.!.a.#.>.w.w.w.w.w.w.#.k #.h # : 6 9 1 $ t M L.P.Y.",
"! x O % * e s 5 + O @ J #.#.%.#.D =.y.a.d.d.d.d.a.c.a.#.;.w.w.w.w.w.0.#.k #.k y f w d s a ; & A ! ! ",
"& O O V ! } [ Z e > 4 J #.#.%.J k *.r.w.p.p.a.a.r.h.a.#.;.w.w.w.w.0.1.#.j #.K Z ..+.U...[ m ; % % % ",
"% * M | U.U.L.[ C a e J #.J %.J k #.q.w.w.w.w.w.w.h.a.#.;.w.w.w.0.1.>.J k #.U | Y.E.Y.Y.U.] m $ @ # ",
"a Z ..Y.W.E.L. .} B 4 H J #.#.#.G J >.w.w.w.w.w.q.h.p.#.;.w.w.w.1.1.;.k k #.T T.E.E.U.L.T.L.! a e e ",
"L.P.E.P.L.L.K.K. .v # G #.J #.#.G G ;.9.w.w.w.w.q.k.p.#.;.0.9.>.>.>.;.k G #.' W.Q.W.P.L.L.K.K.Q f e ",
"W.W.E.U.L.L.K.K.} x + j #.#.J #.G j %.;.q.w.w.w.q.s.p.#.;.>.>.>.>.;.#.h G #.o.Y.Y.Y.L.K.K.K.K.K.N ; ",
"W.W.E.E.Y.K.K.K.} x + 8 H J J #.H k H %.;.9.0.q.9.y.p.#.%.>.1.>.;.%.G k G &. .L.L.L.K.K.L.K.K.K.v O ",
"W.E.P.P.L.K.K.K.} x + e k k G J J k k #.$.$.;.>.>.s.w.#.%.>.;.;.$.#.k k J U L.U.Y.Y.L.L.Y.Y.P.K.v o ",
"W.Y.P.L.K.K.K.~ A * + > l k G G #.k k k $.$.%.%.;.s.0.#.$.%.%.%.$.k k H #.g [ U.E.W.U.U.Y.Y.Y.K.c o ",
"E.E.E.L.K.K.} A * O + - e k G k J #.H k H $.%.%.$.w.1.#.#.$.$.$.G j k #.k e a [ U.E.E.Y.P.L.K.} c o ",
"U.P.P. .K.} V * O + = 1 6 8 k G G #.H k j k $.%.#.;.$.H #.$.#.k j G H J 2 6 7 f ] U.U.P.K.K.! v % o ",
"[ ~  .L.} A * o O t a d d q w G k H #.H k k j k #.$.#.#.J G j k G G J l d d s 5 m A W W W A M % + + ",
"a Z  . .A % + + > C [ } [ E a w k k H #.G G k k h h k h j k D G H J I } [ [ Q a : % % % % % @ O X > ",
"6 r n b * O . , B | Y.U.L. .Z u 7 j k k #.J G G G k k G k G G J H S | U.Y.L.} E m # # , v n n v y e ",
"2 = .   . . 3 N } Y.W.W.Y.L.L.E a e 8 h h G J #.#.H G H J P H h g } Y.W.W.Y.L. .Z i > m K.K.L.K.Z a ",
"4 1 1 1 1 1 6 d  .Y.W.W.E.Y.L.} Q , c | X./ / ( Y k k F j 0 2 2 s | Y.W.W.E.E.L.| Q , c U.E.E.Y...! ",
"B f 6 9 9 9 d ^ L.E.E.Y.Y.P.K.K.~ * c L.T.Y.Y.L.} Z f 6 9 9 9 d E L.E.E.Y.Y.P.L.K.~ * v P.Y.Y.Y.L.K.",
" .Z p 2 9 q E L.E.E.E.L.L. .K.K.~ * * K.L.L.K.K. . .Z r 9 9 q E P.E.E.E.L.L.K.K.K.~ * * K.L.L.K.K.K.",
" .| Z p 2 q { T.E.E.W.E.P.K.K.K.} * c I.T.Y.K.K. . .} Z r 6 q { E.E.W.W.E.L.K.K.K.~ * x P.Y.Y.K.K.K.",
" . .} y = q { T.E.E.E.Y.P.K.K.~ M % c Y.W.T.P.P.L.L. .} y 4 7 { E.E.E.Y.E.L.K.L.! V & c Y.W.E.P.P.P.",
"L. .~ * X e ] P.E.P.L.K.L. . .M % O c Y.W.W.E.E.E.L. .~ & X e ] P.E.Y.K.L.K. .} M + + b Y.W.E.E.E.E.",
" .L.~ * @ e E L.E.E.P.L. .} n % O @ b ..P.P.P.P.L.L. .~ * X e Q L.E.E.E.K.K.~ n % O # b L.P.P.P.P.U.",
"K. .~ * @ e C | Y.E.U.L.! V % O + > p W ~ K.K.L.L. .L.~ * . e Z  .U.Y.P.L.~ M % O @ > u A ~ L.L.L.P.",
"K. .! * # 4 e N  . . . .M % O . 3 2 3 * C L.Y.E.E.L. .! * @ e e N  .L. .} n % O # > 4 3 & V L.T.T.T.",
"K.W * % % e 1 r v v v v & O X = 4 9 1 ; t V L.U.P.L.A x % . - 4 5 b v v v * o X = 6 2 1 = t V L.U.U.",
"K.n O o X 4 6 <   o o o o . = 4 9 9 2 - @ * }  .K. .M o o # - 6 <   o o o o + = 4 2 9 2 - @ * ~ K.K."
};
