/* XPM */
static char *out[] = {
/* columns rows colors chars-per-pixel */
"50 50 177 2 ",
"   c #6E4B0F",
".  c #714F0F",
"X  c #6B4711",
"o  c #6E4A12",
"O  c #734D11",
"+  c #755113",
"@  c #7B5311",
"#  c #7F5A12",
"$  c #755419",
"%  c #79571B",
"&  c #7B5C1D",
"*  c #845D0E",
"=  c #805711",
"-  c #855C13",
";  c #895E11",
":  c #805D1A",
">  c #826506",
",  c #866806",
"<  c #8C6D06",
"1  c #85630C",
"2  c #8B640D",
"3  c #8D6B09",
"4  c #936C0C",
"5  c #8D7204",
"6  c #907509",
"7  c #9A7509",
"8  c #876211",
"9  c #8D6313",
"0  c #8B6A13",
"q  c #82621E",
"w  c #8B661C",
"e  c #8E6A1C",
"r  c #906616",
"t  c #916C15",
"y  c #916B19",
"u  c #927413",
"i  c #997515",
"p  c #937A13",
"a  c #94721C",
"s  c #A17504",
"d  c #A67A01",
"f  c #AB7D00",
"g  c #A57B0B",
"h  c #A67F1E",
"j  c #836524",
"k  c #886726",
"l  c #866A26",
"z  c #896B26",
"x  c #896E29",
"c  c #916E21",
"v  c #8D732C",
"b  c #957323",
"n  c #987624",
"m  c #977A26",
"M  c #9D7B23",
"N  c #91772F",
"B  c #94792C",
"V  c #9B7C2A",
"C  c #957D32",
"Z  c #A17F2D",
"A  c #A78202",
"S  c #AF8100",
"D  c #AA820C",
"F  c #B28300",
"G  c #B68901",
"H  c #BB8C00",
"J  c #B48A0C",
"K  c #BF9001",
"L  c #BE940C",
"P  c #AB8516",
"I  c #AE8D10",
"U  c #AA841A",
"Y  c #B59017",
"T  c #B7941B",
"R  c #9B8122",
"E  c #9D832B",
"W  c #978034",
"Q  c #9C8333",
"!  c #9D8739",
"~  c #9E893A",
"^  c #A58423",
"/  c #A88B25",
"(  c #A2822C",
")  c #AE8A28",
"_  c #AF942D",
"`  c #B49929",
"'  c #A28634",
"]  c #A18B36",
"[  c #A88D34",
"{  c #A38D3C",
"}  c #A88D3A",
"|  c #B08E30",
" . c #AF9632",
".. c #A5913E",
"X. c #AD943D",
"o. c #B29939",
"O. c #B7A131",
"+. c #C19300",
"@. c #C79800",
"#. c #CA9B00",
"$. c #CDA400",
"%. c #CCA800",
"&. c #CDA10C",
"*. c #D3A300",
"=. c #D4AC00",
"-. c #DCAC00",
";. c #D6AB0B",
":. c #D1B000",
">. c #D8B600",
",. c #D7B805",
"<. c #D9B900",
"1. c #CCA919",
"2. c #E3B300",
"3. c #E8B700",
"4. c #E4BD00",
"5. c #EBBB00",
"6. c #C19D26",
"7. c #CDA720",
"8. c #C6A331",
"9. c #DDC101",
"0. c #E2C400",
"q. c #EFC100",
"w. c #E4CB00",
"e. c #EACB02",
"r. c #E3C50C",
"t. c #F4C400",
"y. c #F4CB00",
"u. c #FDCD00",
"i. c #EDD10F",
"p. c #F5D500",
"a. c #FCD600",
"s. c #FDDB00",
"d. c #FFD00E",
"f. c #FBDD0A",
"g. c #E6C91E",
"h. c #E8DE10",
"j. c #FCE200",
"k. c #FEEC01",
"l. c #FDE20B",
"z. c #FEF300",
"x. c #FEFB00",
"c. c #F8F10F",
"v. c #FFFC0F",
"b. c #FBE012",
"n. c #FFE01D",
"m. c #EBD023",
"M. c #F9D12C",
"N. c #F5E228",
"B. c #FCE72E",
"V. c #FFEB33",
"C. c #A69340",
"Z. c #AA9543",
"A. c #AE9846",
"S. c #B19444",
"D. c #B19946",
"F. c #B49C4A",
"G. c #B89F4D",
"H. c #BBA04E",
"J. c #BDA351",
"K. c #DABA4F",
"L. c #F2CF4C",
"P. c #FFFD44",
"I. c #FEF14C",
"U. c #F3E959",
"Y. c #FFF952",
"T. c #FEF55F",
"R. c #DFC576",
"E. c #FEEB67",
"W. c #FAE76A",
"Q. c #FEF168",
"!. c #F1EB74",
"~. c #FEFE76",
"^. c #F8EB89",
"/. c #FEF695",
"(. c #FFFD95",
"). c #FFEDA8",
"_. c #FAF4D4",
/* pixels */
"X X $ C C.C.C.Q r 9 ; 9 9 r C F.J.J.G.C.m = O X X X X O C C.C.C.E 9 9 ; r ; r ] F.J.J.F...n * O X X ",
"@ : x } D.D.Z.{ n e 9 3 t V C.F.J.F.F.S.' c @ @ @ @ : x C.F.F.Z.{ V y 9 3 t V X.F.H.G.D.A.' c @ @ @ ",
"y V Z.F.G.G.Z.C.{ m 1 < R A.G.F.H.A.Z.G.Z.' y 9 ; r Z Z.F.H.F.Z.C.{ b 1 < M A.G.J.J.Z.A.F.A.Q e 9 ; ",
"S.S.F.D.Z.Z.Z.C.{ z @ 8 ( G.G.K.H.S.C.Z.Z.{ ! c y } S.G.F.Z.Z.Z.C.{ z @ 2 ( G.H.J.J.Z.Z.Z.Z...! b ; ",
"J.J.J.D.Z.C.C.C.{ j O ; V G.D.G.F.Z.C.C.C.C...v k S.J.J.F.A.C.C.C...j O ; Z F.F.F.D.Z.Z.C.C.C.{ b = ",
"J.J.J.H.D.Z.C.C.{ j O ; V C.Z.C.C.C.C.Z.C.C.C.l % Z.J.H.F.D.C.C.C.{ j O ; V ..Z.Z.Z.C.C.Z.C.C.C.l O ",
"J.F.A.A.A.C.C.C.{ j O ; V Z.D.G.F.A.Z.F.G.D.C.l % S.G.A.A.Z.C.C...{ j O ; V Z.D.G.D.Z.Z.F.F.D.C.l X ",
"J.G.A.C.C.C.C.~ C & O ; b ' D.H.H.F.A.F.G.D.C.l % S.G.Z.C.C.C.C.{ C & O ; c ] D.G.J.F.D.F.G.F.C.l X ",
"J.H.F.A.C...{ C % o O ; 9 a ] A.H.J.G.Z.Z.C.{ l % S.J.H.Z.C.C.C.C % o O ; 9 y ] A.H.H.F.Z.C.C.C.j X ",
"D.D.A.C.Z.{ N & o + # 3 < 3 a ' Z.D.Z.Z...! l $ $ { A.D.C.C...v & O O = 2 < 4 a ' A.D.A.C.C.! k % X ",
"! { C.C.{ C & o O - t p p p 9 c C W C W Q m 8 ; r / ` O. ...C & o O : y p p p 0 c C C C C ! v + o O ",
"0 B ..C.N $ o . - m { ] [ Q y - $ % - P *.>.2.4.t.p.a.a.y.q.L 8 O - n ! ] ] E y : $ $ $ $ $ o o @ ; ",
"3 0 z z & o O q m } A.F.Z.C.V e @ 4 -.u.u.y.p.l.I.T.z.z.k.s.u.q.J m } C.D.A.{ V c @ @ : k l x x w ; ",
"5 * . . . . 1 a { D.G.F.F.C...E I p.j.s.p.p.V./.W.i.0.0.e.q.a.u.5.1.D.K.J.F.Z.C.V r 9 c C.Z.Z.C.V r ",
"2 , , , , , 5 p ..F.J.K.G.F.Z.F.!.~.~.U.p.k.B.g.:.,.9.w.9.K #.t.t.5.7.J.J.J.G.Z.} C : x S.H.H.F.Z.' ",
"n a 3 < 5 5 p E A.G.H.F.F.F.A.h.v.v.c.i.j.j.<.<.N.Y.x.z.k.u.-.H -.3.4.8.F.F.D.Z.Z.{ & j Z.F.F.F.Z.Z.",
"{ V 0 < 5 6 E D.H.H.H.A.C.Z.1.a.a.s.5.p.j.<.r.Q.(.Y.j.0.%.u.u.5.G #.3.;.o.Z...C.C.~ & j { Z.Z.C.C...",
"..{ E a 3 6 [ G.J.J.H.H.Z.o.5.t.t.5.>.p.0.9.I.P.k.Q.e.e.G u.u.u.3.G *.2.6.Z.C.C.C.{ & j F.F.F.C.C...",
"..Z.] w * 4 [ G.J.H.F.F.D.6.2.2.-.-.3.5.=.k.x.k.f.^.m.5.f u.u.u.t.@.+.-.&.S...C.! v $ j F.H.J.D.Z.D.",
"C...~ & @ 9 Q D.H.D.X.....;.-.2.-.-.2.*.4.x.k.n.E._.).L.J u.a.u.t.2.F #.*._ ....v + o x F.J.J.G.H.H.",
"C.C.~ & O 9 ' Z.H.H.D.C. .-.2.2.-.*.-.H k.k.s.s.e.^.d.5.F u.u.u.5.5.+.H *.T { x % o @ z X.D.A.A.A.A.",
"C.C.~ & @ 9 n } F.F.F.Z.` -.2.2.*.*.@.$.z.a.u.y.0.R.u.5.F u.u.t.5.5.*.S #.L v $ o O 1 e C { Z.Z.Z.A.",
"C.C.! & + ; 9 b { C.C...Y 2.2.2.*.@.G 0.k.u.u.4.=.K.f.5.f u.t.5.5.5.2.S +.H $ o @ ; 3 1 $ N Z.G.G.J.",
"C.W j O @ 8 3 0 l l l l J -.-.-.*.+.F w.s.a.u.5.5.M.U.5.F t.5.5.5.5.5.F G +.O @ * 3 < , * q v Z.D.D.",
"! j o + & e 6 8 O O O o s +.H +.#.K S 9.t.u.u.u.u.u.b.5.F 5.5.5.5.5.3.F G +.@ 9 i i p u e @ & C ! ! ",
"$ o + v ! { ] V - ; ; ; f H +.+.#.H S >.5.5.t.t.t.5.j.5.F 5.5.5.5.5.-.F F +.r V X.o.D.X.] c ; % $ $ ",
"@ : v { D.A.Z.{ V y 2 2 D +.+.+.#.H f *.5.5.5.5.5.5.s.5.f 5.5.5.5.2.-.f G +.Z Z.F.H.F.D.Z.' b @ @ @ ",
"e V Z.F.H.H.Z...{ b 2 < D +.+.+.+.+.f @.3.5.5.5.5.5.j.5.F 5.5.3.-.-.*.f F +.X.G.H.H.A.A.G.D.Q y 9 ; ",
"S.D.H.A.A.A.C.....l @ 1 P +.+.+.+.+.f +.-.5.5.5.5.5.j.5.F 5.3.-.-.-.@.f F L G.H.K.G.A.C.Z.Z...Q b 9 ",
"H.J.H.A.Z.C.C.C.{ j O ; h +.+.+.K +.F f *.-.5.5.5.4.s.5.S -.-.-.-.*.H f H Y F.F.Z.A.Z.C.C.C.C...b @ ",
"J.J.H.H.F.C.C.C.{ l O ; M J G G H +.G d +.*.-.4.3.2.j.5.f -.-.-.-.@.f f +.U C.Z.Z.Z.C.C.C.C.C...l o ",
"H.H.A.A.Z.C.C.C.{ j O ; n P F F F H H f F @.#.#.-.-.s.3.F -.-.*.#.+.f F H Z Z.F.F.F.Z.Z.F.G.D.C.l X ",
"J.H.Z.C.C.C.C.~ C & O ; c ^ f F F F +.F f +.#.#.#.#.s.2.F *.@.#.@.f F H S b ' D.G.G.F.D.F.G.D.C.k o ",
"J.H.H.Z.C.C...C % o . ; r t g F F F +.G f d +.#.#.@.y.-.f #.#.@.f f F +.4 9 y { D.J.H.F.Z.Z.C.{ j X ",
"A.A.A.....{ N & o . * 3 3 4 i F F F F @.F f f +.@.@.*.+.G #.@.f f F H d 3 3 6 a ' D.D.A.C.Z.~ l $ o ",
"] ....C.{ C & o O q y p p 6 9 i f F f H +.f f f f +.+.+.H G d f f G G a u p u 2 c C W W W W v O o . ",
"r V ....B $   . ; m ] { ] E y ; 4 f f f G +.F f f f d d f f F F G H M { ] [ Q y - $ + $ $ + $ X @ ; ",
"3 0 x z & o + q m { F.D.A...E w = 4 f f f G +.G F F F F F f F H G M { F.F.Z.{ E e = @ : l x x x e 9 ",
"5 # . . . . 1 b { D.J.J.F.Z.C.Q r ; y g s s d H +.+.G G H +.G s a { F.J.H.F.Z.C.V y ; c C.C.C.C.V y ",
"2 2 , , , , , p { G.J.J.H.F.Z.{ ' : k S.X.| ) ^ h g d A d 7 < < i ..F.J.J.H.H.C.{ W & k F.H.G.G...! ",
"b a < 5 5 5 p E A.G.H.F.F.F.Z.C.~ & j Z.F.F.F.Z.{ V y < 5 5 5 R E Z.H.J.G.F.A.C.Z.~ & j S.F.F.F.A...",
"..V r < 5 5 E A.H.H.H.A.C.C.C.C.{ & j C.C.Z.C.C...C.V 0 < 5 5 E A.H.H.H.A.C.Z.C.C.{ & j C.C.Z.C.C.C.",
"..{ V t < 6 [ G.J.J.J.G.A.C.C.C.~ & j S.G.F.C.C.C.C.{ V 0 < 6 [ H.H.J.J.F.A.C.C.C.~ & j A.G.D.C...C.",
"C...{ e ; 6 [ G.J.G.F.F.A.C.C.! N % k F.J.H.A.A.Z.Z.C.{ w 1 4 [ H.H.H.F.F.A.C.C.! v % j G.J.H.D.A.A.",
"C...~ & @ 9 Q Z.H.F.Z.Z...C...v + X l S.J.H.H.H.F.Z.C.~ & @ 9 E A.H.A.Z.C.C.C.{ v + o z F.H.H.H.H.H.",
"..Z.~ & O 9 ' A.H.H.A.C.C.~ x $ o @ z A.A.A.A.A.A.C.C.~ % + 9 ' A.H.H.A.C.C.~ v $ o @ z Z.S.A.A.A.A.",
"C...~ & @ 9 V } F.F.F.C.~ v $ o + * 0 W { C.Z.Z.Z...C.~ % @ 9 m { F.H.A.C.! v + o + * e C ~ Z.Z.Z.A.",
"C...! & @ 8 9 b { C.....v + o + ; 3 , & N Z.F.H.H.Z...~ & @ ; r n ..C.C.C.v + o @ ; 3 8 % N Z.G.H.H.",
"C.W j + + 8 3 9 l l l l % o @ * 3 < , * : N Z.D.D.C.C j + + ; 9 2 z z z j & X @ * 3 < , # q B Z.D.D.",
"..v o X + 1 3 ,   X X X X . * 2 5 5 < ; + & ~ C.C.C.v o X + 1 3 >   X X X X   - 3 5 5 < ; + & ! C.C."
};
