/* XPM */
static char *out[] = {
/* columns rows colors chars-per-pixel */
"50 50 179 2 ",
"   c #6E4B0F",
".  c #714F0F",
"X  c #78520F",
"o  c #6B4711",
"O  c #6E4A12",
"+  c #724D11",
"@  c #755113",
"#  c #7B5311",
"$  c #7F5911",
"%  c #755419",
"&  c #79571B",
"*  c #7B5B1D",
"=  c #845D0E",
"-  c #805711",
";  c #855C13",
":  c #885E11",
">  c #805D1A",
",  c #826506",
"<  c #866806",
"1  c #8C6D06",
"2  c #84650A",
"3  c #8B640C",
"4  c #876A0E",
"5  c #8D6B09",
"6  c #906F0E",
"7  c #8D7204",
"8  c #997305",
"9  c #907509",
"0  c #9B7108",
"q  c #8D6313",
"w  c #8B6A13",
"e  c #82621E",
"r  c #8B661C",
"t  c #8E6A1C",
"y  c #906616",
"u  c #916B14",
"i  c #916B19",
"p  c #927412",
"a  c #9A7214",
"s  c #937A13",
"d  c #94711C",
"f  c #A77A01",
"g  c #AB7C01",
"h  c #A1760B",
"j  c #836524",
"k  c #886726",
"l  c #866A26",
"z  c #896B25",
"x  c #896E29",
"c  c #916E21",
"v  c #8D732C",
"b  c #957424",
"n  c #987624",
"m  c #90772E",
"M  c #94782B",
"N  c #9B7C2A",
"B  c #957D32",
"V  c #A17F2D",
"C  c #A68102",
"Z  c #AF8100",
"A  c #AB830C",
"S  c #B18300",
"D  c #B68801",
"F  c #BB8C00",
"G  c #B48B0C",
"H  c #BF9000",
"J  c #AB8516",
"K  c #B78E11",
"L  c #B18A1C",
"P  c #B59613",
"I  c #BC951A",
"U  c #9C8122",
"Y  c #9D832B",
"T  c #978034",
"R  c #9C8433",
"E  c #9D8739",
"W  c #9E893A",
"Q  c #AC8B26",
"!  c #A2822D",
"~  c #B89827",
"^  c #A28633",
"/  c #A18A36",
"(  c #A98D33",
")  c #A38D3C",
"_  c #A88D3A",
"`  c #B18F31",
"'  c #AB9234",
"]  c #A5913E",
"[  c #AD923C",
"{  c #B59D31",
"}  c #B89B3C",
"|  c #B9A330",
" . c #C29300",
".. c #C79900",
"X. c #CA9B00",
"o. c #C69B0C",
"O. c #C39813",
"+. c #CEA000",
"@. c #D4A500",
"#. c #D5AC00",
"$. c #DCAC00",
"%. c #D2A80A",
"&. c #D4B303",
"*. c #DEB200",
"=. c #D7B800",
"-. c #DCBD01",
";. c #DBB609",
":. c #C6A31B",
">. c #D0A512",
",. c #DDBF18",
"<. c #E2B300",
"1. c #E3BD00",
"2. c #EBBB00",
"3. c #F0BF00",
"4. c #C79E22",
"5. c #C5A12D",
"6. c #DEC201",
"7. c #D7C717",
"8. c #E6C700",
"9. c #ECC300",
"0. c #E2C800",
"q. c #E8CA07",
"w. c #F3C300",
"e. c #F4CB01",
"r. c #FDCC00",
"t. c #F6C709",
"y. c #FECF0A",
"u. c #ECD203",
"i. c #F3D300",
"p. c #FDD400",
"a. c #F6DB00",
"s. c #FCDB02",
"d. c #E8C811",
"f. c #E5CA1B",
"g. c #F8DE1B",
"h. c #FDE301",
"j. c #FDEE00",
"k. c #FDE50A",
"l. c #FCF100",
"z. c #FCF50B",
"x. c #FFF80D",
"c. c #FCE515",
"v. c #FFF017",
"b. c #F7CD27",
"n. c #E5CF32",
"m. c #F5DA32",
"M. c #FFED22",
"N. c #FEF62C",
"B. c #FEF638",
"V. c #A69340",
"C. c #AA9543",
"Z. c #AE9846",
"A. c #B19543",
"S. c #B19946",
"D. c #BA9E44",
"F. c #B49C4A",
"G. c #B89F4D",
"H. c #BBA04E",
"J. c #BDA351",
"K. c #F9DC48",
"L. c #F2E449",
"P. c #FBE858",
"I. c #FEF25F",
"U. c #F7DF7B",
"Y. c #ECE664",
"T. c #FEFD6D",
"R. c #FFEC72",
"E. c #F5E17B",
"W. c #FEFA76",
"Q. c #E3CF94",
"!. c #FCE786",
"~. c #FDF381",
"^. c #FDF791",
"/. c #F4E5AF",
"(. c #FCF7CF",
"). c #F8F1DC",
"_. c #FDF9E6",
"`. c #FDFCF7",
"'. c #FEFDFB",
/* pixels */
"o o % B V.V.V.R q q q y : y / S.J.J.G.] b ;   o o o o @ B V.V.V.R y q : y : y / S.J.J.F.] b = O o o ",
"# > x _ S.S.C.) N i 3 3 u V [ G.H.F.S.S./ i $ # # # > x V.S.S.C./ N i 3 6 u N C.G.H.F.F.Z.^ c $ # # ",
"i N C.F.G.G.C.V.) b 3 1 U C.G.J.H.Z.C.G.Z.R i q : y V C.F.H.G.A.V.) b 3 5 s S.G.J.J.C.S.F.Z.R t q : ",
"A.A.F.S.C.C.C.V.) l @ 3 ! G.H.J.H.Z.C.C.C.] R b i _ A.F.Z.Z.C.V.V.) l # 3 V G.J.J.J.C.C.C.C.] R c y ",
"J.J.J.S.C.V.V.V.] j + : V F.F.F.S.C.V.V.V.V.] x j A.J.J.F.C.V.V.V.) j + = V F.F.F.S.C.V.V.V.V.V.c - ",
"J.J.J.H.S.C.V.V.) j + : N ] C.C.C.V.V.V.V.C.] x & A.J.J.H.F.V.V.V.] j + : N C.C.C.C.V.C.V.C.V.V.z O ",
"J.F.Z.Z.Z.V.V.V.) k + : N ] F.F.F.Z.C.S.H.S.V.l & A.G.C.Z.C.V.V.] ) j + : N C.S.G.F.C.C.F.F.Z.V.z o ",
"J.G.Z.V.V.V.V.W B * + : b ^ S.H.J.S.Z.G.F.S.V.x & A.G.C.V.V.V.V.) B * + : c ^ S.G.H.S.S.G.G.S.C.l o ",
"J.J.G.C.V.V.) B % O + : w i / S.J.H.S.C.C.V.) j & A.J.G.C.V.] ] B & O + : q i / F.G.H.F.C.V.V.V.k o ",
"Z.Z.Z.V.V.V.m * O + ; 4 5 5 b ^ C.S.Z.C.V.E l % % V.S.Z.V.V.] v * O + = 5 5 6 d E S.S.Z.V.V.E x % o ",
"E ) V.V.W B * O . e u s s 9 q c T T T T R U q 3 y Q { | { ] B *   + e d p s 9 w c B B T B E v O O + ",
"u M ] V.B % O @ : n ) / / ^ i ; % % % J 2.w.w.w.2.i.s.s.p.9.G @ @ = b / / / ^ i ; % @ % % % @ O # : ",
"5 w z x * O + ; n _ F.F.Z.) Y t $ - G w.r.p.e.i.c.I.B.j.h.s.r.X.q n ) F.Z.Z.) N k $ # > k l x k r q ",
"7 = . . . . 2 d ) F.J.H.F.C.] Y y P k.k.k.h.e.c.~.K.f.=.0.2.p.w.o._ F.J.J.F.C.V.N i : c V.C.C.V.N r ",
"3 4 < < < < 1 s ) F.H.J.H.F.C.] ' Y.W.T.T.L.a.c.f.&.n.u.8...@.w.2.~ S.J.J.J.G.C.) B > z S.G.H.G.[ / ",
"n u 1 7 7 7 s Y Z.G.H.G.F.F.] ] 7.x.x.z.v.q.j.8.-.L.W.l.h.w.+.+.<.;.H.J.F.F.S.C.C.) > j C.F.F.F.C.C.",
"] N w 5 7 7 ! C.H.J.H.C.V.C.] { e.p.p.p.9.u.i.;.P.W.^.q.&.r.e...X.<.5.H.Z.] V.V.V.W * j V.C.C.V.V.V.",
"V.) Y u 5 9 ' G.J.J.J.G.Z.V.V.:.w.9.3.w.<.e.-.g.B.M.(.d.H p.r.3.F $.>.H.H.S.V.V.V.W * j S.G.S.V.V.V.",
"V.V.) r = 6 ( G.J.H.F.F.C.C.] %.<.<.<.$.<.1.6.x.v.R.'.E.4.y.r.e.....@.} F.Z.] V.E v % l F.J.J.S.C.Z.",
"V.V.W * # q ^ S.H.Z.C.C.V.] ' $.<.<.<.$.*.@.u.N.~._.'._.Q.K.y.w.$.F @.~ C.] ] ] v % O k S.J.H.H.G.H.",
"V.V.W * + y R C.H.H.Z.V.V.W J $.*.*.<.@.@...j.s.g.E.`.U.O.y.r.3.2.S X.I V.V.) x & O @ c C.C.Z.Z.Z.Z.",
"V.V.W * X q n _ S.H.S.C.E m J <.<.<.$.@...@.j.p.e.,.).b. .r.w.2.2. . .O.C.W m % + + 3 i B ) V.C.C.Z.",
"V.V.E * X : y b ) V.V.V.x @ G <.*.<.$.@.F -.s.r.<.%./.t. .r.3.2.2.+.D H ) v + O @ = 5 2 # v C.H.H.J.",
"V.T j + X : 5 w l l l l & o D @.$.@.@.X.D 0.p.r.w.w.!.w.F 3.2.3.2.@.S  .z % o # = 5 1 < ; j v C.Z.S.",
"E j O @ * y p 4 @ + + + + + g .. . . ...S =.w.r.p.r.P.w. .2.2.2.2.@.g  .+ + @ r p p s a i $ * B E E ",
"% O + m E ) / N : ; ; = ; q G  . . . ...S #.2.2.w.w.m.e. .2.2.2.2.@.g  .: ; q N _ } D.C.) i - & % % ",
"# * v ) S.Z.C.) N t 3 3 i N K  . . . ...S X.2.2.2.2.d.w. .2.2.2.$...g  .5 u N C.G.H.G.S.C.^ c $ @ # ",
"i N C.F.H.G.C.] ) b 3 1 U C.I  . . . . .S ..2.2.3.2.1.w. .2.2.*.$. .S F 5 U C.H.J.H.S.C.G.C.E i q q ",
"C.S.G.Z.C.C.V.V.) l X 3 V G.~ H  . . . .S F *.2.2.2.1.w.F 2.$.$.$.F g D q ! G.J.J.J.Z.V.C.V.] R b : ",
"J.J.J.S.Z.V.V.V.] j + : V F.~  . . . . .S S @.2.2.2.1.w.F $.$.$.@.S S g : ! S.G.F.S.C.V.V.V.V.V.b $ ",
"J.J.J.H.S.V.V.V.) j + ; N C.` F F  .D F F g ..@.<.2.<.w. .$.$.@...f F 0 : M V.C.V.C.V.V.V.C.C.] l O ",
"H.G.Z.Z.Z.V.V.V.) k + : n C.A.S g g S g  .g D ..@.@.*.2. .$.@.X.F Z F = : n V.S.G.G.C.C.S.G.S.) l o ",
"J.G.C.C.V.V.V.W B * + : b ^ S.L S Z S S F S g ....X.$.2.F X.....g S S # : d ^ S.H.H.S.S.G.G.S.V.k o ",
"J.H.G.C.V.V.] B & O + = q i / ` S S Z g F F g S ..X.@.<.F ....F g F 0 + : q i / S.J.H.G.C.C.V.) k o ",
"S.S.C.C.V.) v * O + = 5 5 5 d ! A S S g S F S g F ....X.F ..F g S F = = 4 5 6 d ^ S.S.C.V.V.W l % o ",
"/ ) ] V.) B * + + e i s s 9 y c V g S S g F F Z f S H  .H S f S D 0 ; i p s 9 w c B R T T E v O + + ",
"y N ] ] B % O . : n / ] / Y i ; & 0 g S S S F S S f f g f g S S S q N / / / R i ; % % % % % + O # : ",
"5 w z x * O @ e n ) F.S.Z.] Y t # : g S g g S  .F S S S S g D D u M _ F.S.Z.) Y r - # > l x x x r q ",
"1 , +   . @ = d ] S.J.J.S.C.V.B i : a g g g f f F  .F D F H Z 3 d ) F.J.J.S.Z.] N i : c V.V.V.V.N q ",
"3 3 , < < < < s ] G.J.J.J.G.C.) V > x [ ` Q Q ! a h C C f 8 < 1 s ) F.J.J.H.F.Z.) R > k S.H.G.G.C.) ",
"n u 1 7 7 7 s ! C.H.H.S.F.S.Z.V.) * j A.F.F.F.C.) N u 5 7 7 7 s Y C.H.H.F.F.S.V.V.) * j A.F.F.F.C.V.",
"] N u 6 7 9 Y C.H.H.H.Z.C.V.V.V.) * * V.C.V.V.V.] V.N u 1 7 9 Y C.H.J.H.Z.C.V.V.V.E * j V.C.C.V.V.V.",
"C.) B u 1 9 ( G.H.J.J.H.Z.V.V.V.E * j A.G.F.V.V.C.] ) N u 5 9 ( H.H.J.J.G.Z.V.V.V.W * j S.G.F.V.V.V.",
"] ] W r 3 9 ( G.H.H.F.F.Z.V.V.E m & k F.J.H.S.Z.Z.V.] ) r 2 6 ( H.J.H.F.F.Z.V.V.E m % k F.J.G.Z.Z.C.",
"] V.W * # q ^ Z.H.S.C.C.] V.] v @ O k F.J.H.H.H.F.C.V.W * # q R Z.H.Z.V.V.V.V.) v + + z F.J.H.H.J.H.",
"C.] W * + q Y C.H.H.S.V.V.W x % O # z C.Z.Z.Z.Z.Z.V.V.W * + q ^ Z.H.H.S.V.V.W v & o # z V.Z.Z.Z.S.S.",
"V.] W * # q n ] H.H.S.V.E m % O X = p T W C.C.C.C.V.V.W * X : N ] S.H.S.C.W m @ O @ = i B W V.C.C.C.",
"V.] W * @ q w b W ] ] ] v @ O @ = 4 2 & m C.H.H.F.C.] E * # : q b ] V.V.) x % O X : 4 q & m C.G.G.H.",
"V.T j @ @ : 5 w l l l l &   X = 5 1 5 X e m C.S.Z.V.T j @ @ : 5 w z l l l &   X = 5 1 < = > m C.S.S.",
"] v o o @ 3 5 ,   o o o o + - 5 1 7 5 3 X * ) ] V.V.v o o @ 3 5 , . o o o o   ; 5 1 7 5 3 @ * E V.C."
};
