/* XPM */
static char *out[] = {
/* columns rows colors chars-per-pixel */
"50 50 163 2 ",
"   c #6E4B0F",
".  c #714F0F",
"X  c #6B4711",
"o  c #6E4A12",
"O  c #734D11",
"+  c #755113",
"@  c #7A5311",
"#  c #7E5A13",
"$  c #755419",
"%  c #79571B",
"&  c #7B5C1D",
"*  c #845D0E",
"=  c #805711",
"-  c #855D13",
";  c #885E11",
":  c #805D1A",
">  c #826506",
",  c #866805",
"<  c #8C6D06",
"1  c #84650A",
"2  c #8B640D",
"3  c #876A0E",
"4  c #8D6B09",
"5  c #906604",
"6  c #946E03",
"7  c #906F0E",
"8  c #986E0B",
"9  c #8D7204",
"0  c #907509",
"q  c #9C7408",
"w  c #9B790D",
"e  c #8C6313",
"r  c #8B6A13",
"t  c #82621E",
"y  c #8B661C",
"u  c #8D6A1C",
"i  c #906616",
"p  c #916B15",
"a  c #916B1A",
"s  c #927413",
"d  c #947A13",
"f  c #94711C",
"g  c #987319",
"h  c #A27400",
"j  c #A67B01",
"k  c #AB7C00",
"l  c #A57D0D",
"z  c #A37B14",
"x  c #A07C19",
"c  c #836524",
"v  c #886726",
"b  c #866A26",
"n  c #896B25",
"m  c #896E29",
"M  c #916E21",
"N  c #8D732C",
"B  c #957424",
"V  c #987624",
"C  c #91772E",
"Z  c #95792B",
"A  c #9B7C2A",
"S  c #957D31",
"D  c #A17F2D",
"F  c #A68003",
"G  c #AF8100",
"H  c #A48C04",
"J  c #AD8408",
"K  c #B28300",
"L  c #B78800",
"P  c #BC8D00",
"I  c #B68C0D",
"U  c #BF9101",
"Y  c #B79807",
"T  c #BD9C05",
"R  c #AB8311",
"E  c #A9881D",
"W  c #B48E17",
"Q  c #B89A15",
"!  c #B9941E",
"~  c #9B8122",
"^  c #9D842B",
"/  c #978034",
"(  c #9C8333",
")  c #9D8739",
"_  c #9E893A",
"`  c #A48321",
"'  c #A78825",
"]  c #A2832C",
"[  c #A68A29",
"{  c #AD9027",
"}  c #AE932D",
"|  c #B29123",
" . c #B99623",
".. c #BE9A28",
"X. c #A28634",
"o. c #A18A36",
"O. c #A88D33",
"+. c #A38D3C",
"@. c #A88D3A",
"#. c #A79137",
"$. c #AD9435",
"%. c #A5913E",
"&. c #AB923C",
"*. c #B1983D",
"=. c #BB9C3E",
"-. c #BFA131",
";. c #C29300",
":. c #C79A00",
">. c #CC9D00",
",. c #CDA301",
"<. c #CEA900",
"1. c #D3A300",
"2. c #D2AB02",
"3. c #DCAD00",
"4. c #DDB201",
"5. c #DDBA07",
"6. c #D6B70D",
"7. c #DDB00B",
"8. c #DABB0C",
"9. c #CCAF1D",
"0. c #E3B300",
"q. c #E8B700",
"w. c #E6B803",
"e. c #ECBC00",
"r. c #DFC400",
"t. c #E6C401",
"y. c #ECC400",
"u. c #E6CA05",
"i. c #EDCD06",
"p. c #E5C90E",
"a. c #EECE0E",
"s. c #F3C300",
"d. c #F5CD00",
"f. c #FCCD00",
"g. c #ECD100",
"h. c #F7D500",
"j. c #FED600",
"k. c #F6DB02",
"l. c #FBDB00",
"z. c #F3E300",
"x. c #FEE200",
"c. c #FBF40D",
"v. c #FFFC0F",
"b. c #F6E013",
"n. c #FDEE1B",
"m. c #FEF011",
"M. c #EDD922",
"N. c #EAD22C",
"B. c #FCEB38",
"V. c #A69340",
"C. c #AA9543",
"Z. c #AE9846",
"A. c #B19444",
"S. c #B19946",
"D. c #B49C4A",
"F. c #B89F4D",
"G. c #BBA04E",
"H. c #BDA250",
"J. c #EDDA41",
"K. c #F8E659",
"L. c #FCF45C",
"P. c #E9E368",
"I. c #FFFE77",
/* pixels */
"X X $ S V.V.V.( e e e i ; i X.S.H.H.F.%.g = O o X X X + S V.V.V.( i e ; i ; i X.S.H.H.D.%.V * O X X ",
"@ : m @.D.Z.C.o.A u 2 2 g A C.D.G.D.D.S.X.n = @ @ @ : m V.S.S.C.o.A a 2 5 p A C.D.H.D.D.S.X.M @ @ @ ",
"a A C.D.G.F.Z.V.#.B e < ~ &.F.H.G.Z.Z.D.Z.) a e e i A C.F.G.F.C.%.+.B 2 7 ~ C.F.H.G.Z.Z.D.C.( a e ; ",
"A.A.D.S.Z.C.V.V.+.n + 2 ] F.H.H.G.C.C.C.V.@.o.f a @.A.F.Z.C.C.C.V.%.b + 2 ] F.G.H.G.Z.C.C.C.%.) B ; ",
"H.H.G.D.C.V.V.V.+.c O ; D D.D.D.D.C.V.V.V.V.%.N v A.H.H.D.C.V.V.V.+.c O ; D D.D.D.D.C.V.V.V.V.%.B = ",
"H.H.H.H.D.V.V.V.@.c O - A V.C.C.C.V.V.C.V.V.%.b % C.H.G.G.S.V.V.V.V.c O ; A %.C.C.C.V.V.V.C.V.%.b O ",
"H.D.Z.Z.C.V.V.V.+.c O ; A V.D.D.D.C.C.D.D.S.V.b % A.F.Z.Z.C.V.V.V.@.c O = A C.D.D.D.C.C.D.D.D.V.b X ",
"H.D.C.V.V.V.V._ S & O ; B X.S.F.G.D.Z.D.G.D.V.b % A.F.C.V.V.V.V.o.S & . ; B X.D.F.G.D.Z.D.G.D.%.b X ",
"H.H.D.C.V.V.+.S $ o O ; r a X.D.G.G.D.C.C.V.+.c % A.H.F.C.V.V.@.S % o O * e a o.Z.G.G.D.C.V.V._ c X ",
"D.Z.Z.V.V.V.N & o O = 3 4 7 f X.Z.D.C.V.V._ b $ $ V.S.S.V.V.V.C & o + * 4 4 4 f X.Z.Z.C.V.V.) v $ o ",
") +.V.V.+.S & O O e f 0 d 0 r a / / / ( / C r 1 e ' } @.V._ S % X O e p s d 0 r M S S ) ) / m $ o O ",
"u A %.V.S $ o O - V +.+.o.X.a - $ $ $ $ & 2.h.e.0.q.q.q...S $ o O - Z +.o.#.( a - $ $ $ $ $ $ o @ ; ",
"4 r n n & o O : Z @.D.D.C.%.A n @ @ : b Q B.m.j.s.f.f.f.s.u o + : V @.D.D.C.+.^ n = @ : v v v m y ; ",
"< * . . . . 1 f +.D.H.G.D.C.V.^ a e M #.N.K.t.d.s.l.x.x.x.Y o * f +.D.H.H.D.C.V.A a ; M V.C.C.C.A a ",
"2 , , , , , 9 d +.D.G.H.G.D.C.%.( : n -.b.8.r.>.s.J.I.I.I.P.< , d %.D.H.H.H.D.C.@.S : n S.F.G.D.C.X.",
"V s 4 < 9 9 d ^ C.G.G.F.D.S.C.%.o.& c 9.g.M.c.y.1.i.v.v.v.c.H d ^ Z.D.H.D.D.D.C.V.+.& v C.D.D.D.C.V.",
"&.A p 4 9 9 ^ S.G.H.G.C.V.V.V.V.+.& c 6.p.L.u.s.1.3.j.j.j.j.T ] Z.F.H.F.Z.V.V.V.V.+.& & V.C.V.V.V.V.",
"%.+.A p 4 0 O.F.H.H.H.G.Z.V.V.V._ & n 5.M.n.2.y.3.1.e.s.s.s.,.#.F.H.H.H.D.Z.V.V.V._ & v A.F.S.C.V.V.",
"V.V.o.n 1 7 O.D.H.G.D.D.Z.V.V.) N % a 0.z.k.4.e.s.>.3.0.0.0.1.O.F.H.G.D.D.Z.V.V._ N % b D.H.H.Z.Z.Z.",
"V.V._ & @ e X.Z.G.Z.C.V.V.V.+.N + o f 4.z.a.7.e.s.;.1.0.0.0.2.] Z.F.D.V.C.V.%.+.m $ o b D.H.F.H.G.G.",
"V.V._ & @ e ( Z.G.G.S.V.V.+.m % o @ z 2.x.t.0.e.s.;.>.0.0.0.3.D Z.F.F.D.V.V.+.m % o @ M V.S.Z.Z.Z.Z.",
"V.V._ & O e V @.D.D.D.V._ N $ o + - R <.l.,.3.e.e.>.1.0.0.0.3.D @.D.F.D.C.) C $ o $ * a S o.V.Z.C.C.",
"V.V.) & @ ; r V +.V.V.V.m +   + * < j <.d.,.2.e.e.>.>.0.0.0.3.q Z o.V.V.@.N O X @ * 4 1 % N C.D.G.G.",
"V./ c O @ ; 2 r b b b b % X @ * < < F 2.f.w.0.0.e.>.>.3.3.3.3.q r b b b b $ X @ * 4 < , - t C C.Z.D.",
") c o $ & u s 3 + O O O O O y g d w J ,.f.s.3.0.e.>.;.P ;.;.P w 3 + O O O o O u s d d s u # & S ) ) ",
"$ o O C ) X.o.A e = = ; - e A &.S.S.! :.e.e.4.3.q.:.P ;.;.;.;.[ A ; - * ; = e ( @.=.S.&.X.a - % $ $ ",
"@ : N V.D.S.C.o.Z a 2 2 f A &.D.G.G. .:.e.0.4.0.q.;.;.P ;.;.P $.o.A u e 4 a A &.F.G.D.D.S.X.n = @ @ ",
"u A V.D.F.F.C.%.@.B 2 < ~ C.F.H.G.*.| ;.e.0.4.0.0.;.;.;.;.;.;.$.%.+.B 2 < ~ C.G.H.G.Z.Z.D.Z.X.a e ; ",
"C.D.D.Z.C.C.C.V.%.b @ 2 ] G.H.H.G.C.{ P 0.0.4.3.3.P ;.U ;.;.P @.V.%.b @ 2 ] D.H.H.G.Z.V.C.C.V./ B e ",
"H.H.H.S.C.V.V.V.%.c . - ] D.D.D.S.C.{ L 0.0.4.1.3.L ;.U ;.;.U @.V.+.c O = X.D.D.F.D.C.&.V.V.V.V.B @ ",
"H.G.H.G.D.V.V.V.+.c O ; A %.C.V.C.V.} L 1.4.3.1.1.k P P P P P %.V.+.c O ; A V.C.C.C.V.V.V.V.V.@.b o ",
"H.F.Z.Z.C.V.V.V.+.c O ; A V.D.D.D.C.$.K ;.1.3.1.>.K K G G K J %.V.@.c . ; A V.D.D.D.C.C.D.D.D.V.b X ",
"H.F.C.V.V.V.V._ S & O ; B X.A.G.G.D.*.L P :.3.:.P L k K G G R V._ S & O ; B X.S.G.G.D.S.D.D.D.V.b o ",
"H.G.F.C.V.V.%.S % o O ; i p o.S.G.G.S.I K :.1.;.L L K K K G E V.S $ o O * e a o.S.G.G.D.C.C.V.+.c X ",
"S.S.S.V.V.+.C & o . * , 4 7 f X.S.S.Z.W k ;.;.;.k L k K K G [ C & O + - 4 4 0 f X.Z.S.Z.V.V._ b $ X ",
"o.+.%.V.+.S & o O t a d d 0 i M / / / ` L G ;.K k L K K G G Z & X . t p s d s 2 M ( S / ) / N O O O ",
"i A %.%.C % o O e V o._ o.] a - $ $ $ # K k j k P G k K k l $ o O ; V %.o.#.( a - $ $ $ $ $ $ X @ ; ",
"4 u m n & o O : Z +.D.D.C.%.^ u = @ : v R L K K L j j j j e O O : V o.G.S.C.%.^ u @ @ : b b m b y e ",
"< * .   . . 1 B +.S.H.H.D.C.V.S i ; M @.&.;.L P h h h h 5 . . * f %.S.H.H.D.C.%.A a e M @.C.V.V.A i ",
"2 , , , , , < d %.D.H.H.H.D.C.@.X.: m A.F.D...' x 8 6 6 , , , < g %.D.G.H.G.G.V.@.( & v S.F.G.F.V.X.",
"V s 4 9 9 9 d [ C.G.G.D.D.S.C.V._ & c A.D.D.D.C.+.V f < 9 9 9 d ^ C.D.H.D.D.D.V.V._ & m C.D.D.D.C.V.",
"+.A u 4 9 9 ^ A.G.G.G.C.C.%.%.V.V.& & V.C.C.C.V.%.%.A i < 9 0 ^ C.H.H.H.Z.V.V.V.V._ & & V.C.C.C.V.V.",
"&.+.( p < 0 @.F.G.H.G.G.Z.V.C.%._ & c A.F.S.C.V.C.%.o.( p 4 0 O.G.G.H.H.D.Z.V.V.V._ & c Z.F.Z.C.V.V.",
"V.V.o.y 1 7 o.G.G.G.G.D.Z.V.V._ C $ v F.G.G.Z.Z.Z.V.V.o.u * 7 O.G.H.H.D.D.Z.V.V._ C $ v D.H.G.Z.Z.Z.",
"V.V._ & @ r ] S.G.S.C.V.%.%.%.N + o c D.H.G.G.G.G.C.%._ & @ r X.Z.G.S.C.V.V.%.+.m $ O c D.G.G.G.G.G.",
"V.V._ & O e A Z.G.G.S.C.C._ m % o @ M V.Z.Z.Z.Z.C.V.V._ & O i A C.G.G.D.V.V.+.m $ o @ M C.Z.Z.Z.Z.Z.",
"V.V._ & @ e A %.G.G.S.V._ C $ o + * f / %.V.C.C.C.V.V._ & O e V +.D.G.Z.C._ C $ o $ * a S _ C.C.Z.C.",
"V.V.( & + ; r B _ %.%.%.N + o . * < > % C V.D.G.G.C.%.) & @ e i V %.V.%.%.m O X @ ; 1 e % C C.F.F.G.",
"V.S c + + ; 2 r n b b b % o @ * 4 < , * : C C.D.Z.V./ c + + 2 2 2 n b b b % o @ * , < , # t C C.S.D.",
"V.N X X + 2 < >   X X X X o = 4 9 9 4 2 + & ) V.V.V.N X X + ; < >   X X X X   - 4 9 9 6 2 + & ) V.V."
};
