/* XPM */
static char *out[] = {
/* columns rows colors chars-per-pixel */
"50 50 187 2 ",
"   c #6E4B0F",
".  c #714F0F",
"X  c #76510F",
"o  c #6B4711",
"O  c #6E4A12",
"+  c #724D11",
"@  c #755113",
"#  c #7A5311",
"$  c #7F5A12",
"%  c #755419",
"&  c #79571B",
"*  c #7B5C1D",
"=  c #845D0E",
"-  c #805711",
";  c #845C13",
":  c #895E11",
">  c #805D1A",
",  c #826506",
"<  c #866806",
"1  c #8C6D05",
"2  c #84650A",
"3  c #8B640D",
"4  c #876A0E",
"5  c #8D6B09",
"6  c #936D04",
"7  c #996F03",
"8  c #91660C",
"9  c #906F0E",
"0  c #8D7204",
"q  c #9E7203",
"w  c #92740A",
"e  c #9F7508",
"r  c #8D6313",
"t  c #8B6B13",
"y  c #82621E",
"u  c #8B661C",
"i  c #8E6A1C",
"p  c #906716",
"a  c #916B15",
"s  c #916B19",
"d  c #927413",
"f  c #937A13",
"g  c #9E7816",
"h  c #94721C",
"j  c #A27403",
"k  c #A67902",
"l  c #AB7D00",
"z  c #A1760A",
"x  c #A67D0F",
"c  c #836524",
"v  c #886726",
"b  c #866A26",
"n  c #896B26",
"m  c #896E29",
"M  c #916E21",
"N  c #8D732C",
"B  c #957323",
"V  c #987624",
"C  c #9C7C24",
"Z  c #91772E",
"A  c #94792C",
"S  c #9B7C2A",
"D  c #957D32",
"F  c #A17F2D",
"G  c #AF8100",
"H  c #AD890E",
"J  c #B28300",
"K  c #B78800",
"L  c #BC8D00",
"P  c #B38B0B",
"I  c #B98F0B",
"U  c #BF9000",
"Y  c #AD8613",
"T  c #AF8A17",
"R  c #A7821B",
"E  c #AF8B19",
"W  c #B68B10",
"Q  c #BB9313",
"!  c #BF9C1D",
"~  c #9B8122",
"^  c #9D832B",
"/  c #978034",
"(  c #9C8433",
")  c #9D8739",
"_  c #9E893A",
"`  c #A88825",
"'  c #A2822C",
"]  c #B59423",
"[  c #B4992A",
"{  c #BF9A28",
"}  c #A28634",
"|  c #A18B36",
" . c #A88D34",
".. c #A38D3C",
"X. c #A88D3A",
"o. c #AD9433",
"O. c #A5913E",
"+. c #AC943C",
"@. c #B19731",
"#. c #BC9C37",
"$. c #B2993C",
"%. c #C29300",
"&. c #C79800",
"*. c #CA9B00",
"=. c #C09508",
"-. c #CEA201",
";. c #CFA50B",
":. c #D4A400",
">. c #D6A802",
",. c #DCAC00",
"<. c #D7AA0A",
"1. c #D3B100",
"2. c #DEB103",
"3. c #DCBC02",
"4. c #DBBC0B",
"5. c #C4A017",
"6. c #E3B400",
"7. c #E4BC00",
"8. c #EBBC00",
"9. c #E7BB14",
"0. c #E8BC18",
"q. c #CDA822",
"w. c #CEB92F",
"e. c #DDC002",
"r. c #E2C400",
"t. c #EEC300",
"y. c #E4CB00",
"u. c #EBCB02",
"i. c #E3C60E",
"p. c #EEC709",
"a. c #F4C400",
"s. c #F5CA00",
"d. c #FDCD00",
"f. c #EEDA0E",
"g. c #F4D301",
"h. c #FED400",
"j. c #FDDC00",
"k. c #FDDC0C",
"l. c #E7C51C",
"z. c #EBD01E",
"x. c #FCE400",
"c. c #FEEB01",
"v. c #FCE00B",
"b. c #FEF300",
"n. c #FFFB00",
"m. c #FAF60D",
"M. c #FEFB0D",
"N. c #FFF115",
"B. c #EACC28",
"V. c #FFD521",
"C. c #F8DC2E",
"Z. c #F9E42C",
"A. c #FEEA33",
"S. c #A69340",
"D. c #AA9543",
"F. c #AE9846",
"G. c #B19544",
"H. c #B19946",
"J. c #B49C4A",
"K. c #B89F4D",
"L. c #BBA04E",
"P. c #BDA351",
"I. c #D2B770",
"U. c #DFC845",
"Y. c #F8D948",
"T. c #FFDD54",
"R. c #FFE647",
"E. c #FFF441",
"W. c #FFFD42",
"Q. c #FEF149",
"!. c #D8C963",
"~. c #EEDB66",
"^. c #FBE66A",
"/. c #FEF363",
"(. c #FDFC76",
"). c #E7D597",
"_. c #FAEE84",
"`. c #FFEE8B",
"'. c #FEF98F",
"]. c #FFEA95",
"[. c #FEFA96",
"{. c #F4E6B1",
"}. c #FEF6B2",
"|. c #F2E8C8",
" X c #FFFBE6",
".X c #FEFDF6",
"XX c #FEFEFC",
/* pixels */
"o o @ D D.S.S.( t : p : r p } H.P.P.J.S.B = O o o o o @ D S.S.S.} t : : r r p } H.P.P.J.O.V = o o o ",
"# > m S.H.H.D.| S s r 8 s S +.K.P.J.H.F.} B $ # # # > m S.J.G.D.| A s 8 8 s S D.K.P.K.H.H.} M $ # # ",
"s S D.J.L.L.D.S...B 3 1 ~ +.L.P.P.D.F.J.F.( i r : p F S.J.L.K.D.S.O.B 3 1 ~ D.K.P.P.F.F.J.D.( i r r ",
"G.G.J.G.D.D.S.S...n + 3 ' K.P.P.L.F.D.F.O.O.( B s  .G.K.H.D.D.D.S.| b # 3 ' K.L.P.K.F.S.D.D...) B : ",
"P.P.P.H.F.S.S.S.O.c + : ' J.J.J.H.D.S.S.S.S.O.N v G.P.L.J.D.S.S.S...b + : F J.J.J.H.F.S.S.S.S.S.M - ",
"P.P.L.L.H.S.S.S...c + : S O.D.D.D.S.S.S.S.S.O.b & G.P.L.L.J.S.S.S.O.c O : S O.D.D.D.S.S.S.S.S.S.n O ",
"P.K.F.F.F.S.S.S...c + : S D.J.J.K.D.D.K.K.H.S.b & G.J.F.H.D.S.S.S...c + : C D.J.J.H.D.D.J.K.H.S.n o ",
"P.K.F.S.S.S.S._ D * + = B } G.L.L.H.H.K.K.H.S.b & G.J.F.S.S.S.S._ D * + ; B } J.P.P.H.H.J.P.H.S.m o ",
"P.L.K.S.S.S.S.D % + + : t s | H.L.L.J.D.S.S.| b & G.P.K.D.S.S.S.D % O . : p s } F.L.K.J.D.S.S._ c o ",
"F.H.H.S.S...N * O + ; 3 5 5 B } D.J.D.O.S.) m % % S.G.G.D.S...N * O + ; 5 5 9 h } H.F.F.S.S._ v % o ",
"_ ..S.S...D * O . y d d f w 8 n ( ( ( / ( S t 4 r ` @.@.o.| D * + + y d w f d t M D D ( ( / N % O + ",
"i A O.S.Z % + . : A | | | | s ; % % y H 4.g.j.j.s.8.8.2.7.2.I r . = V | | | ^ s > % % % % % + o # : ",
"5 t n n * + + y V X.J.J.D.O.^ u # w 7.k.Q./.b.b.x.j.d.d.a.s.d.8.P S O.F.H.D.S.S i $ # > c v m m u : ",
"0 $ . . . . 2 h ..J.P.L.J.D.O.^ H u.A.[.^.C.e.e.u.a.h.d.a.8.j.v.g.l.L.L.P.J.D.S.S s : M S.D.D.D.S s ",
"3 < < < < < 1 f ..J.L.L.L.L.S.[ u.c.Z.B.1.U.r.y.3.U &.a.a.8.B.(.(.(.!.P.P.P.J.D...D > n J.K.K.K.D.} ",
"V d 5 1 0 0 f ^ G.L.L.L.J.F.$.4.x.x.1.3.C.'.n.b.c.g.2.K ,.8.8.f.M.M.m.w.J.K.H.D.D...* v D.J.J.H.G.O.",
"+.S a 5 0 w ^ F.L.P.L.D.D.O.5.u.x.3.i./.[.[.x.4.-.h.d.a.K *.6.6.d.h.h.p.$.D.S.S.S...* * S.D.D.S.O.D.",
"O...S a 1 0 o.K.P.P.L.L.F.o.<.j.r.e.Q.W.N.}.z.r.K h.d.d.8.K >.6.6.a.a.a.q.D.S.S.S._ * v G.K.H.D.S.O.",
"S.S.| v = 9 } K.P.L.L.J.F.! 6.t.1.x.n.c.R..X_.0.J h.d.d.a.*.L ,.:.,.6.,.<.$.S.S.) N & m J.P.L.H.F.F.",
"S.S.) * # t ( H.L.F.S.+.O.;.8.*.r.M.E.`. XXXXX{.I.V.d.d.a.6.J *.:.:.6.6.6.[ O...N % O v J.L.L.L.K.K.",
"S.S._ * # r ( H.L.L.F.O.o.*.,.L x.b.j.k.~.XX].9.J d.d.d.8.8.%.L :.:.6.6.6.5.| m % O @ n D.H.F.F.H.F.",
"S.S._ * # r V X.J.L.J.S.] *.&.-.b.h.d.s.i.|.T.6.J d.d.a.8.8.,.l *.*.,.6.6.;.Z % O + 3 s D | D.D.F.D.",
"S.S.) * + : t B ..S.S.O.T &.K r.b.d.d.3.>.).C.8.J d.d.8.8.8.8.l %.&.,.6.2.:.& o # : 1 2 * Z D.J.L.L.",
"S./ c O # 3 3 t b b b b H %.K y.j.d.d.8.8.].T.6.l d.8.8.8.8.8.l K &.>.2.,.>.+ # = 5 1 , - y Z D.H.H.",
") b O % > i d 3 @ + + . l %.J 3.s.d.d.h.d.^.k.8.J 8.8.8.8.8.8.J K %.%.%.U L $ : d e f h i $ * D ) ) ",
"% O + Z ) | _ S : ; ; ; P L l ,.8.8.a.a.8.Y.j.6.K 8.8.8.8.8.2.J J &.%.%.%.U a S +.G.$.+.} M ; % % % ",
"# * m ..H.F.+.| S s 3 3 P L l -.8.8.8.8.8.0.j.7.J 8.8.8.8.6.>.l J %.U %.%.L S D.J.P.J.J.F.} M $ # @ ",
"s S D.J.L.L.F.S...B 3 5 P %.l &.6.8.8.8.8.8.j.6.J 8.8.8.,.,.>.l K %.%.U %.L +.L.P.P.F.F.J.D.( s r r ",
"D.F.L.F.F.D.S.S...n # 3 Y %.l %.,.8.8.8.8.7.j.8.l 8.6.,.,.,.*.l K %.%.%.%.I J.P.P.P.F.S.D.D.S.( h r ",
"P.L.L.J.D.S.S.S.O.c + : F %.J l :.,.8.8.8.6.j.6.K 6.,.,.,.:.L l L %.%.%.%.W J.J.J.J.D.S.S.S.S.S.B - ",
"P.P.L.L.J.S.S.S...c + : g =.K k %.-.,.8.8.6.j.6.l 6.,.,.:.*.l l %.L L L K R S.D.D.D.S.S.D.S.S...m o ",
"P.J.F.F.D.S.S.S...c + : S Q L l J *.&.*.,.,.j.6.l ,.,.:.*.%.l K %.J G J l C S.J.J.J.D.D.J.J.H.S.b o ",
"P.J.F.D.S.S.S._ D * + : B ` %.J l %.&.*.*.*.j.,.l :.&.&.*.l l L %.J J l j B } J.K.L.J.H.J.K.J.S.b o ",
"P.P.J.D.S.S.O.D % O + : p a I L l k %.*.*.*.d.:.l *.&.*.l l K %.J l J l 8 t s | G.L.L.J.D.S.S._ v o ",
"H.H.F.D.S...Z * O @ = < 5 5 g %.J l k %.&.&.:.%.K &.&.J k J L L G G J q 5 5 5 B } H.H.F.S.S._ b % o ",
"| | O.S...D * o + y a f d w p x %.K l k l %.%.%.%.K k l J K %.J J J k h w f d 5 M D ( ( D ( m % O + ",
"s S O.O.A & + + : A ..| | ( s r z L J l l k k k k l J J K U J l G k C | ..| ( s ; % % % % % % o # = ",
"5 u n m * O + y V ..J.H.F...^ u - z %.K K J J J J J J L L l l k k C X.H.J.F.O.^ v # # > b m m b u r ",
"0 =     . . 2 h ..J.P.P.H.S.S.^ s : g Q %.L K K K %.L G j q 7 6 h ..J.P.L.J.D.S.F s : B S.S.S.D.S s ",
"3 < < < < < 4 f O.J.P.P.P.K.D...( > n G.#.#.{ ] E z 7 7 6 1 < 1 f ..J.P.P.L.J.D...D > v G.L.K.K.+._ ",
"V d 5 0 0 0 f ^ D.L.L.J.J.J.D.O.) * c G.J.J.H.F.| S h 5 0 0 0 f ^ F.L.L.K.J.J.D.D.| * c D.J.J.J.F.O.",
"..S a 1 0 w ^ D.L.L.L.F.S.S.S.S.S.* * S.D.D.D.S.S.O.S t 1 0 w ^ D.L.L.L.F.S.S.S.S._ * c S.D.S.S.S.S.",
"S...^ i 1 w  .L.L.P.P.L.F.S.S.O...* c G.J.J.S.S.S.S._ ^ a 1 w  .L.L.L.L.K.F.S.S.S...* c J.J.J.S.O.S.",
"S.S._ u 2 w  .L.P.L.J.J.F.S.S._ N % v J.P.L.H.F.F.S.S._ u 3 9  .L.P.K.K.K.D.S.S.) N % v J.P.L.H.F.F.",
"S.S.) * # r ( H.L.H.D.S.S.O.O.N %   c J.L.L.L.L.J.D.S._ * # r ' F.L.F.D.D.O.O._ N % O b J.P.P.L.L.L.",
"S.S._ * # u S G.L.L.J.S.S._ m & O @ M D.F.F.F.F.F.S.S._ * @ r ( D.L.L.J.S.O.| N % O # M S.G.H.G.F.F.",
"S.S._ * # : S X.J.J.J.S._ N % O . = s D | S.D.F.D.S.S._ * + r C ..J.L.F.D._ N % O . ; i D _ S.D.F.D.",
"S.S.) * # : t B ..S.S.| N % O X r 1 2 & D D.J.L.L.S.O._ * # : p B O.S.O.O.n % O # : < r * Z D.J.L.L.",
"S.D c % + 3 3 t b b b b & O # = 5 1 , = y Z D.J.H.S.D c % + : 3 5 b b b b % O # = 5 1 < = y Z D.H.H.",
"S.m O o @ : 6 ,   o o o o   = 3 0 0 5 3 + * | O.S.S.N o o @ 3 5 , O O O o o   ; 3 0 0 1 : @ * _ O.S."
};
