/* XPM */
static char *out[] = {
/* columns rows colors chars-per-pixel */
"50 50 175 2 ",
"   c #6E4B0F",
".  c #714F0F",
"X  c #7B540F",
"o  c #6B4711",
"O  c #6E4A12",
"+  c #734E11",
"@  c #755113",
"#  c #7A5311",
"$  c #7F5A12",
"%  c #755419",
"&  c #79571B",
"*  c #7B5C1D",
"=  c #845D0E",
"-  c #805711",
";  c #845C14",
":  c #895E11",
">  c #805D1A",
",  c #826506",
"<  c #866806",
"1  c #8C6D06",
"2  c #84640B",
"3  c #8B640C",
"4  c #876A0E",
"5  c #8D6B09",
"6  c #93670E",
"7  c #926D0D",
"8  c #996D0B",
"9  c #8D7204",
"0  c #9A7704",
"q  c #907509",
"w  c #8D6312",
"e  c #8B6B14",
"r  c #82621E",
"t  c #8B661C",
"y  c #8E6A1C",
"u  c #906616",
"i  c #916B15",
"p  c #916B19",
"a  c #927412",
"s  c #937A13",
"d  c #9C7813",
"f  c #94721C",
"g  c #A67700",
"h  c #A67901",
"j  c #AB7C00",
"k  c #A37A0F",
"l  c #A37C12",
"z  c #836524",
"x  c #886726",
"c  c #866A26",
"v  c #896B25",
"b  c #896E29",
"n  c #916E21",
"m  c #8D732C",
"M  c #957323",
"N  c #987624",
"B  c #9B7A24",
"V  c #91762F",
"C  c #94792C",
"Z  c #9B7C2A",
"A  c #957D32",
"S  c #A17F2D",
"D  c #AF8100",
"F  c #AD810A",
"G  c #B28400",
"H  c #B78900",
"J  c #BB8C00",
"K  c #B48C0D",
"L  c #BF9000",
"P  c #A4811D",
"I  c #B58F16",
"U  c #B18D19",
"Y  c #BA9416",
"T  c #B8951D",
"R  c #9B8122",
"E  c #9D832B",
"W  c #978034",
"Q  c #9C8333",
"!  c #9D8739",
"~  c #9E893A",
"^  c #A2822C",
"/  c #AD9225",
"(  c #BA9620",
")  c #BA9924",
"_  c #B1982F",
"`  c #BD9B2C",
"'  c #A28633",
"]  c #A18B36",
"[  c #A88D34",
"{  c #A38D3C",
"}  c #A88D3A",
"|  c #AD9534",
" . c #A5913E",
".. c #AB933D",
"X. c #BC9B34",
"o. c #B49938",
"O. c #BB9D3D",
"+. c #C39400",
"@. c #C69900",
"#. c #CA9B00",
"$. c #C09609",
"%. c #C89D0E",
"&. c #CDA003",
"*. c #CEAB00",
"=. c #C9A608",
"-. c #D3A400",
";. c #D5AC03",
":. c #DCAC00",
">. c #DAAF0F",
",. c #D3B200",
"<. c #DFB100",
"1. c #DCBB01",
"2. c #CCA512",
"3. c #CAA319",
"4. c #C7AA1B",
"5. c #E2B300",
"6. c #E2BA01",
"7. c #EBBB00",
"8. c #F0BF00",
"9. c #DFC201",
"0. c #E3C500",
"q. c #E9C600",
"w. c #E4CA00",
"e. c #ECCD01",
"r. c #ECC009",
"t. c #F4C400",
"y. c #F8C700",
"u. c #F5CA00",
"i. c #FECD00",
"p. c #FECF0C",
"a. c #EED500",
"s. c #F3D301",
"d. c #FDD300",
"f. c #FEDB00",
"g. c #F1D109",
"h. c #F6DC0C",
"j. c #E2C316",
"k. c #ECCD16",
"l. c #FED410",
"z. c #FDE300",
"x. c #FEEC00",
"c. c #FEE40F",
"v. c #FEF300",
"b. c #FFFA00",
"n. c #FFF208",
"m. c #FEED15",
"M. c #FFF91D",
"N. c #F1D622",
"B. c #F5DC22",
"V. c #E3C239",
"C. c #F7DE39",
"Z. c #FAE62A",
"A. c #FFF428",
"S. c #FFFD39",
"D. c #A69340",
"F. c #AA9543",
"G. c #AE9846",
"H. c #B19444",
"J. c #B19946",
"K. c #B49C4A",
"L. c #B89F4C",
"P. c #BBA04E",
"I. c #BDA250",
"U. c #C1A241",
"Y. c #FEEF44",
"T. c #FFFA4A",
"R. c #FDF453",
"E. c #FEFB5D",
"W. c #F2DB6B",
"Q. c #FEF362",
"!. c #FFF56A",
"~. c #FBEA75",
"^. c #FEF57A",
"/. c #FEF69C",
"(. c #FFFE99",
/* pixels */
"o o % A D.D.D.Q w w w u : u ~ J.I.I.L.D.f : + o o o o + A D.D.D.Q u w : u : p ' K.I.I.L. .N ; + o o ",
"# > b } K.G.F.] Z y 3 3 f Z F.L.P.L.K.F.' v # # # # > b D.K.J.F.] B p 3 6 p Z ..K.P.K.K.J.' p # # # ",
"p Z F.K.P.P.F.D.{ M 3 1 R ..L.I.I.F.F.L.G.! p w w u Z F.L.P.L.F. . .M = 1 R F.L.I.I.F.F.P.F.! p w : ",
"H.H.K.J.F.F.D.D.} c @ 3 ^ L.I.U.I.G.D.F.D.} ' M p } H.L.G.F.F.F.D.{ c $ 3 ^ L.P.I.I.G.D.D...{ ! M w ",
"I.I.I.K.F.D.D.D.{ z + : S K.K.L.K.F.D.D.D.D.D.b z H.I.I.K.F.D.D.D.D.z + ; S K.L.K.K.F.D.D.D.D.D.M - ",
"I.I.L.I.K.D.D.D.} z + ; Z D.D.D.F.D.D.D.D.D.D.c & H.I.P.P.J.D.D.D.{ z O : Z ..D.D.D.D.D.D.D.D.{ c O ",
"I.L.G.G.F.D.D.D.{ z + : Z D.K.K.K.F.F.K.L.K.D.c & H.K.G.G.F.D.D.D.{ z + : B D.K.L.K.F.F.L.K.G.D.c o ",
"I.K.F.D.D.D.D.{ A * + : N ' J.L.P.K.G.L.L.G.D.z & H.L.G.D.D.D.D.{ A * + : n ] J.P.I.K.G.L.L.K.D.c o ",
"I.I.L.F.D.D.D.A % + + : e p ] J.P.P.K.F.D.D.~ c & H.I.L.F.D.D.{ A % O + : w p ] G.I.I.K.F.F.D.D.x o ",
"G.G.G.D.D.{ m * O + ; 3 5 5 N ' G.K.F.D.D.! b % % D.G.K.D.D.{ V * + + ; 5 5 7 f ! G.G.G.D.D.! c % o ",
"! { D.D.] A * O O w i s s q u p W W Q W W m $ 3 i / _ |  .~ A * o + r p a q s e n A A A A ! m O O + ",
"u C D.D.A % O + ; C { ] ] ' u ; % % & e Y 1.a.s.d.d.s.t.r.2.d @ + ; B { ] { E p ; % % % % % % O # ; ",
"5 e v v * O + r C [ K.K.G.D.E v $ 5 =.s.c.Y.!.A.v.x.x.z.f.i.y.:.l B } K.K.F. .Z y - # > x c c c t w ",
"9 = . . . . 2 f { K.I.U.K.D.D.E K q.c.Q./.~.N.w.0.0.0.q.u.f.d.i.7.2.J.U.I.K.F.D.A p : n D.F.F.D.Z u ",
"3 2 < < < < 9 s  .K.P.P.I.L.D.4.s.x.m.C.j.*.,.1.w.w.9.*.+.+.7.i.t.7.>.U.I.I.L.D.} A > v H.L.L.L.F.] ",
"N a 5 1 9 9 s E F.P.P.L.K.G.4.e.x.x.q.*.1.Z.R.M.b.v.x.f.y.5.J +.5.5.7.>.O.K.K.D.D.{ * x H.K.K.K.F.D.",
" .Z e 5 9 q E F.P.I.L.F.D.) 6.z.f.9.,.B.^.(.T.x.z.0.,.6.d.i.y.-.H -.:.7.%...D.D.D.D.& r D.F.F.D. .D.",
"D.{ E i 5 q [ L.I.I.I.L.o.;.q.z.1.,.Z.E.S.n.z.f.q.e.+.<.i.i.i.d.:.j -.:.5.( D.D.D.A * z F.L.J.D.D.D.",
"D.D.! y = 7 [ L.I.L.L.K.3.5.t.6.,.z.b.b.x.f.f.k.h.y.J 5.i.i.i.i.8.#.j -.:.&.} D.! m % x L.I.L.K.G.G.",
"D.D.! * $ w ' J.L.K.F.| ;.<.6.H s.b.v.z.z.f.g.W.p.y.J <.i.i.i.i.8.7.H +.-.-.3.D.m % o x J.I.I.P.P.L.",
"D.D.! * @ w Q F.P.L.K.T -.<.+.-.v.b.f.f.f.s.w.r.i.y.J <.i.d.i.t.7.7.-.j @.-.$.v & o $ v ..G.K.F.J.G.",
"D.D.! * # w B } K.L.K.%.@.*.G a.b.f.i.d.u.w.#.-.i.y.J 5.i.i.y.7.7.7.7.j H &.+.: O @ = p A ] D.F.F.G.",
"D.D.! * + : w N { D...#.L L J v.z.i.i.y.1.,.@.1.d.t.J 5.i.y.7.7.7.7.7.@.j +.@.6 @ : 5 2 & V D.L.P.L.",
"D.W z @ # : 5 e c c M #.L G @.v.d.d.i.y.7.7.y.V.l.8.J <.y.7.7.8.7.7.7.-.j H #.k - 6 1 < ; r V F.K.K.",
"! z O % * y q w + + $ -.J j +.a.y.i.i.i.i.i.i.j.d.t.J :.7.7.7.7.7.7.7.-.j G @.j f q s a p # & A Q ! ",
"% O O V ~ ] ~ Z w ; 6 #.J j +.q.7.7.t.y.y.t.y.0.d.7.J :.7.7.7.7.7.8.<.&.j j +.I } O.J...] p ; & % % ",
"# * m } K.G...{ B p i #.J j J 5.7.7.7.7.7.7.7.1.f.8.J :.7.7.7.7.7.:.:.+.j G #.( L.P.L.K.G.' n $ @ # ",
"p Z D.L.P.P.F. .{ N 6 +.J G G :.6.7.7.7.7.7.7.6.f.7.J :.7.7.7.5.:.:.:.+.j j @.` I.P.K.F.L.F.Q p w w ",
"..J.P.G.F.F.D.D.{ c $ J +.G j &.:.7.7.7.7.7.7.1.d.7.J :.7.7.:.:.:.:.-.G j H @.X.U.I.G.D.F.D.D.! M : ",
"I.P.P.K.F.D.D.D.{ z + j +.G g +.-.:.7.7.7.7.8.1.d.7.J -.:.:.:.:.:.-.#.g j J $.J.L.K.F.D.D.D.D.D.M $ ",
"I.I.I.P.P.D.D.D.D.z + 6 +.G j j @.#.-.5.7.5.5.1.d.7.J -.:.:.:.:.-.@.J j G +.T D.F.D.D.D.D.D.D.D.c O ",
"I.P.G.F.D.D.D.D.} z + : J +.G j H #.#.#.-.:.:.,.i.7.+.-.:.:.-.&.#.+.g j H @.| K.K.K.F.G.K.L.G.} c o ",
"I.K.G.D.D.D.D.! A * . : l +.H j j J @.@.#.#.#.,.i.5.J #.&.#.#.#.@.g j G +.K ' J.L.I.K.J.K.P.K.D.x o ",
"I.P.P.F.D.D. .A & O . : u F +.G j j J @.@.#.@.-.y.-.G #.#.@.@.+.j j G J +.i p ' G.I.P.K.F.D.D.{ x o ",
"G.G.G.D. .{ V * O . = 3 5 7 J +.G j h G +.#.#.@.&.@.J +.@.+.G g j G G +.0 5 5 N ' J.J.G.D.D.! c % o ",
"] {  .D.{ A * O @ r p s q s i H J G G j g j H +.+.+.+.J G h j D G G +.l s q a 5 n A W W W ! m O o + ",
"p Z  . .V & O + = C ~ { } Q i w j +.G j G j j j g j h h j D G G J J P ~ ] { Q p ; % % % % % + O # : ",
"5 e b v * O + > B ..J.K.F. .E y - 8 J +.H G G j G j G G G G H J j B } K.J.F. .E p # # > c b b b y w ",
"1 = . . . . 2 M { K.I.I.K.D.D.Z u : N U $.+.J J J J J J +.J h 7 N } K.I.I.P. . .A p : n D.D.D.D.Z p ",
"3 2 < < < < 1 s { K.I.I.I.L.F.{ ' > v H.L.K.X._ U j k h 9 1 < 1 s } K.I.I.P.P.D.} A > x J.P.L.L.D.] ",
"B a 5 9 9 9 s E F.P.P.K.K.K.D.D.D.* z H.K.K.K.F.{ Z f 5 9 9 9 s E F.L.I.L.K.K.D.D.{ * x G.K.K.K.F.D.",
"} Z i 5 9 9 E F.P.P.L.G.F.D.D.D.~ * * D.F.F.D.D. . .Z w 9 9 9 E G.P.I.P.G.D.D.D.D.{ * * D.D.F.D.D.D.",
"D.~ Z p 9 q [ P.P.U.I.L.G.D.D.D.~ * z H.K.K.F.D. .D.{ E i 5 q [ P.P.I.I.K.G.D.D.D.~ * x G.L.K.D.D.D.",
"D.D.{ y = q } P.P.P.L.L.G.D.D.~ m % x K.I.P.G.G.G.D.D.! t 3 7 [ P.I.P.K.K.G.D.D.~ m % x K.I.P.G.G.F.",
"D.D.~ * # w Q G.P.G.F.F.D.D.{ m + O x L.P.P.P.P.P.D.D.~ * X w Q F.P.K.D.D.D.D.{ b % O c K.I.I.L.P.P.",
"D.D.~ * @ w ^ F.P.P.K.D.D.~ b % O # n F.G.G.G.G.F.D.D.~ * # w Q F.P.P.K.D.D.{ b & O # n F.H.G.G.G.K.",
"D.D.~ * @ w Z } K.L.G.D.~ m % O @ ; i W { D.D.F.F.D.D.~ * @ w B { K.P.G.D.~ m % O + ; p A ~ F.F.F.F.",
"D.D.! * @ w w M { D.D.D.b % O @ 2 1 , & A D.P.P.P.F. .! * @ : u N  .D.D.{ m @ O # : 5 2 & V D.L.L.L.",
"D.A z % @ : 5 4 c c c c &   # = 5 1 < = > V F.J.J.D.W z + @ : 3 4 c z c c & O # = 5 1 3 $ r V D.K.K.",
"D.b O o @ : 5 ,   o o o o + - 5 1 9 5 3 @ * ! D.D.D.m O o @ 3 5 , . o o o o . ; 5 1 9 1 3 . * ' D.D."
};
