/* XPM */
static char *out[] = {
/* columns rows colors chars-per-pixel */
"50 50 222 2 ",
"   c #6E4B0F",
".  c #714F0F",
"X  c #6B4711",
"o  c #6E4A12",
"O  c #734E11",
"+  c #755113",
"@  c #7B5411",
"#  c #7D5A14",
"$  c #755419",
"%  c #7B5B1D",
"&  c #DA3100",
"*  c #DB3A02",
"=  c #825D0D",
"-  c #805711",
";  c #855C13",
":  c #885E11",
">  c #805D1A",
",  c #866805",
"<  c #8C6D06",
"1  c #846409",
"2  c #8B640D",
"3  c #8D6B09",
"4  c #926A0D",
"5  c #8D7203",
"6  c #987609",
"7  c #8D6212",
"8  c #8B6B14",
"9  c #88661D",
"0  c #906616",
"q  c #926C14",
"w  c #916B19",
"e  c #927313",
"r  c #9D7717",
"t  c #947A14",
"y  c #94711B",
"u  c #A4760A",
"i  c #AA7B0B",
"p  c #A57B14",
"a  c #836624",
"s  c #886726",
"d  c #866A26",
"f  c #896B25",
"g  c #896E29",
"h  c #916E21",
"j  c #8D732C",
"k  c #957323",
"l  c #987623",
"z  c #91762F",
"x  c #947A2D",
"c  c #9B7C2A",
"v  c #957D32",
"b  c #A17F2D",
"n  c #DD4301",
"m  c #DF4A02",
"M  c #DE5306",
"N  c #DF5608",
"B  c #E04600",
"V  c #E14D00",
"C  c #E15403",
"Z  c #E25C01",
"A  c #E15F09",
"S  c #E46203",
"D  c #E66C00",
"F  c #E56805",
"G  c #E26A0A",
"H  c #E97400",
"J  c #E77907",
"K  c #EB7A00",
"L  c #E5740B",
"P  c #F07F00",
"I  c #9B8019",
"U  c #B7890B",
"Y  c #B9980A",
"T  c #A78615",
"R  c #AD9116",
"E  c #AB9519",
"W  c #B9A71C",
"Q  c #9B8122",
"!  c #9D832D",
"~  c #978034",
"^  c #9C8434",
"/  c #9D8739",
"(  c #9E893A",
")  c #A5872B",
"_  c #B49627",
"`  c #BD9C2E",
"'  c #A28634",
"]  c #A28A35",
"[  c #A88D35",
"{  c #A38E3C",
"}  c #A5913E",
"|  c #AC9539",
" . c #B39936",
".. c #B49C3D",
"X. c #BDA02E",
"o. c #BEA633",
"O. c #BFAF36",
"+. c #B5A23C",
"@. c #CB9107",
"#. c #CC970A",
"$. c #C59A1A",
"%. c #ED8601",
"&. c #ED8C01",
"*. c #E7840E",
"=. c #E98B0E",
"-. c #EE9202",
";. c #EE9C03",
":. c #EE9D0A",
">. c #F09300",
",. c #F39B02",
"<. c #E99111",
"1. c #EB9B11",
"2. c #E39E1D",
"3. c #D5AC0E",
"4. c #D9AB18",
"5. c #CBB51D",
"6. c #EEA20B",
"7. c #E5AC0C",
"8. c #F4A302",
"9. c #F8A706",
"0. c #F4AD01",
"q. c #F8AB06",
"w. c #F4AD0A",
"e. c #ECB20D",
"r. c #EAB80A",
"t. c #F5B201",
"y. c #F8B104",
"u. c #F5BD02",
"i. c #F8BD05",
"p. c #F2B30E",
"a. c #F3BC0A",
"s. c #F8BC0E",
"d. c #E2A316",
"f. c #ECA515",
"g. c #EEAC14",
"h. c #E2AD1E",
"j. c #EAB412",
"k. c #E5BA17",
"l. c #E6B01C",
"z. c #ECB41A",
"x. c #EAB918",
"c. c #F1B412",
"v. c #F2BC13",
"b. c #C09E2B",
"n. c #C4A029",
"m. c #CCA628",
"M. c #D2AD2F",
"N. c #C9B72A",
"B. c #CBB12F",
"V. c #D3B929",
"C. c #C2AB33",
"Z. c #C9A538",
"A. c #CAB235",
"S. c #CCBC32",
"D. c #DAC71B",
"F. c #E8CC08",
"G. c #F6C702",
"H. c #F8C203",
"J. c #F7CC03",
"K. c #F8CB03",
"L. c #F5C40C",
"P. c #F8C30B",
"I. c #F6C80F",
"U. c #F8CB0C",
"Y. c #EED40E",
"T. c #F7D103",
"R. c #F8D205",
"E. c #F8D805",
"W. c #F4D60A",
"Q. c #F8D30A",
"!. c #F8DC0C",
"~. c #EBC618",
"^. c #F2C313",
"/. c #F4CC15",
"(. c #F8CC11",
"). c #F1C51B",
"_. c #F2CC1A",
"`. c #E6D31D",
"'. c #EAD71B",
"]. c #EADA1E",
"[. c #F6D315",
"{. c #F8D414",
"}. c #F6DA13",
"|. c #F8DB14",
" X c #F2D41A",
".X c #F8D618",
"XX c #F4DB1B",
"oX c #F8DB1A",
"OX c #F8E20E",
"+X c #F8E414",
"@X c #F8E817",
"#X c #F6E21D",
"$X c #F8E31B",
"%X c #F8EB1D",
"&X c #D8C727",
"*X c #CFC131",
"=X c #D7C535",
"-X c #E6CB25",
";X c #EEDD23",
":X c #E7D528",
">X c #EADE2B",
",X c #F3DE20",
"<X c #EDE225",
"1X c #F5E621",
"2X c #F8EE21",
"3X c #F0E628",
"4X c #F8F023",
"5X c #A69340",
"6X c #AA9543",
"7X c #AE9845",
"8X c #B19342",
"9X c #B19946",
"0X c #B89D42",
"qX c #B49C4A",
"wX c #B89F4D",
"eX c #BCA742",
"rX c #BBA14E",
"tX c #BDA351",
"yX c #C3A845",
"uX c #C1A44A",
"iX c #C5AC49",
"pX c #CAB640",
/* pixels */
"X X $ v 6X5X5X^ 0 2 7 7 7 0 ' 9XtXuXwX5Xl = o X X X o + v } 6X} ' 0 : 7 7 7 0 ] qXtXtXqX{ l ; O X X ",
"@ > g { 9X9X6X' x w 2 2 w b 6XqXrXqXqX7X' r i T E R T p | qX9X6X] x w 2 2 q c | qXrXqXqX7X' h @ + @ ",
"w c 6XqXrXwX7X5X{ k 2 3 Q 6XwXtXwX7X6XqX..` e.[.#X#X(.e.Z.uXwX7X5X{ k : < c 6XrXtXrX7X7XqX7X/ w 7 7 ",
"8X9XqX9X7X6X5X5X{ f + 2 ) wXrXtXrX7X6X9Xm.j.[.(.P.P.(.}.c.m...5X5X[ f + 2 ) wXrXtXrX7X5X7X6X{ ~ k : ",
"tXtXtXqX6X5X5X5X{ a O : b qXqXqXqX6X .n.k.(.{.U.H.u.U.{.(.k.b. .5X5Xa O : b qXqXqXqX6X5X5X5X5X5Xk - ",
"tXtXwXrXqX5X5X5X{ a O : c 5X6X6X6X5X` e.[.}.i.K.E.E.K.H.|.{.e.b.5X{ a o : c 5X5X5X6X5X5X5X5X5X5Xs o ",
"tXqX7X7X6X5X5X5X{ a O : c 5XqXqXqX7XC._.(.U.K.!.@X@X!.K.P.(. XC.5X5Xa O ; c 6XqXqXqX7X6XqXqXqX5Xf X ",
"tXqX7X5X5X5X5X( v % O : k ' 7XwXrX` V.3XU.u.E.@X4X4X@XE.u.I.1XV._ x % O : k ' 7XrXrXqX7XwXwX9X5Xf X ",
"tXtXqX6X5X} } v $ o + : 8 w ] qX0Xh.^.oXP.P.$X2X4X4X4X$XP.U.$X^.#.@ o O : 7 y ] 9XrXrXqX6X5X5X5Xa X ",
"qX7X7X6X5X} j % o + ; , 3 3 y ' 0X-X/.p.u.Q.2X4X4X4X4X%XQ.u.p.^.3.@ + # , 3 3 k ' 7X7X7X5X5X/ g $ X ",
"^ { 5X5X{ v % X o 7 w t t 6 7 r ` :X_.-.u.OX2X4X4X4X4X%X|.u.-./.D.q 7 y t t e 3 h v ~ ~ ~ ~ j o o O ",
"w x 5X5Xx $ o + : x ] ] ] ^ w U e.XX/.8./.2X2X4X4X4X4X%X%X(.9./..X7._ [ ] [ ! w ; $ $ $ $ $ $ o @ : ",
"3 8 f g % o + ; x [ qXqX6X[ c b.^.v.w.0.{.2X2X4X4X4X4X4X4X{.q.w.v./.M.qXqX6X{ ! f - @ > s d g s 9 7 ",
"5 # . . . . = r { 0XyXiXeX+.+.*X1X:.>.t.|.4X4X4X4X4X4X4X4X|.t.-.:.,X=XiXiXeX+.| ) 0 : h 5X5X6X5Xc 0 ",
"2 2 , , , , < t [ m.j.:X>X>X:X<X1Xw.0.K.+X4X4X4X4X4X4X4X4X+XJ.0.w.1X3X>X>X>X:Xj.$.) > s qXwXrXrX6X' ",
"l e < < 6 Y Y W N.-XI.v.v.^._./.(.i.H.!.%X4X4X4X4X4X4X4X4X%X!.H.i.(././.^.v.^.^.~.N._ _ m.eX7XqX7X5X",
"} ! 8 6 Y r. XXX,X1X_.>.%.&.8.q.q.K.!.%X2X4X4X4X4X4X4X4X4X4X2X!.K.q.q.,.-.%.-._.1X,XXX_.p.m...5X5X5X",
"} { ) N.~..Xe.:.:.w.q.8.0.H./..X.X$X%X2X4X4X4X4X4X4X4X4X4X4X4X%X$X|.{.{.u.0.8.q.w.:.:.p..X:X*X..5X5X",
"} +.B.l.v.^.0.;.:.w.s.P.Q.+X%X4X4X4X4X4X4X4X4X4X4X4X4X4X4X4X4X4X4X4X4X%X+XQ.P.s.w.6.;.w./.v.h.B.eX6X",
"} S.-XG S 8.u.W.$X1X1X2X2X2X4X4X4X4X4X4X4X4X4X4X4X4X4X4X4X4X4X4X4X4X4X2X2X%X2X1X1X$XW.u.,.S G :X=XrX",
"} *X'.A V %.u.OX2X4X4X4X4X4X4X4X4X4X4X4X4X4X4X4X4X4X4X4X4X4X4X4X4X4X4X4X4X4X4X4X4X%XOXu.%.V Z  XS.7X",
"} *X X*.S D 8.R.$X%X4X4X4X4X4X4X4X4X4X4X4X4X4X4X4X4X4X4X4X4X4X4X4X4X4X4X4X4X4X4X%X$XR.8.D S *.'.S.7X",
"} N.W. X1.V K y.R.+X2X4X4X4X4X4X4X4X4X4X4X4X4X4X4X4X4X4X4X4X4X4X4X4X4X4X4X4X2X4X@XR.y.K V 1..XW.S.wX",
"} ) Y `.f.* V K y.Q.@X%X4X4X4X4X4X4X4X4X4X4X4X4X4X4X4X4X4X4X4X4X4X4X4X4X4X4X2X@XQ.0.K V * g.>XV.C.qX",
"^ f # N.l.C * m P 0.R.@X%X4X4X4X4X4X4X4X4X4X4X4X4X4X4X4X4X4X4X4X4X4X4X4X4X2X@XR.0.K n * N d.&X[ / ~ ",
"$ o + ] B.x.S & B K y.R.@X4X4X4X4X4X4X4X4X4X4X4X4X4X4X4X4X4X4X4X4X4X4X4X4X+XR.y.P m & S z.Y q % $ $ ",
"@ % j { yX=X2.G * V K u.E.+X2X4X4X4X4X4X4X4X4X4X4X4X4X4X4X4X4X4X4X4X4X%X@XR.u.K V * G 2.=X .h @ + @ ",
"w c 6XqXrXiX=Xl.M * m ;.u.E.@X4X4X4X4X4X4X4X4X4X4X4X4X4X4X4X4X4X4X4X4X%XE.H.>.V * C z.=XyX6X{ w 0 : ",
"8X9XqX7X7X7X+.B.l.G n K ,.H.$X4X4X4X4X4X4X4X4X4X4X4X4X4X4X4X4X4X4X4X4X$XH.8.K n G l.B.+.7X5X{ ^ k 7 ",
"tXtXrXqX6X5X} o._.1.L J >.i.$X4X4X4X4X4X4X4X4X4X4X4X4X4X4X4X4X4X4X4X4X$Xi.>.H J 1._.o.5X5X5X5X{ k - ",
"tXtXrXrXqX6X} X.j._._.&.,.i.$X2X4X4X4X4X4X4X4X4X4X4X4X4X4X4X4X4X4X4X4X$Xi.>.=._./.e.o.5X5X6X5X5Xs o ",
"rXrX7X7X6X} 6X| n.-XoX,.0.R.%X4X4X4X4X4X4X4X4X4X4X4X4X4X4X4X4X4X4X4X4X$XR.0.,.oX:XZ...6XqXqXqX5Xd X ",
"tXqX7X5X5X5X5X} ` -XoX9.i.+X%X2X4X4X4X4X4X4X4X4X4X4X4X4X4X4X4X4X4X4X4X%X+Xi.9.oX:XZ.0X7XqXqXqX5Xs o ",
"tXrXrX6X5X5X( ` 7. XoXq.P.2X2X2X4X4X4X4X4X4X4X4X4X2X4X4X4X4X4X4X4X4X4X2X2XP.9..X.Xc.Z.qX7X6X5X( a X ",
"7X7X7X5X5X5Xj T F.|.$Xy./.2X4X4X4X4X4X4X4X4X4X@XOXOX@X2X4X4X4X4X4X4X4X4X2XU.y.$X+XL.C.7X5X6X( g $ X ",
"] { } 5X{ v % 6 F.|.{.i.{.2X4X4X4X4X4X4X4X2X@X!.T.T.!.%X2X4X4X4X4X4X4X4X2X{.H.{.|.Y._ ~ ~ ~ j O o O ",
"w c } } x $ . t '.P.q.K.+X2X4X4X4X4X4X2X4X@X!.G.t.t.G.!.%X4X2X4X4X4X4X4X4X+XK.q.L.`.I $ $ $ o o @ : ",
"3 8 g f % o + I ;Xs.q.!.@X4X4X4X4X4X%X+X}.I.0.%.D H %.0.I.!.+X%X4X4X4X4X4X@X|.q.s.].T % g g g g 0 7 ",
"< # . . . . 1 R ].s.q.1X4X4X4X4X2X2X+XT.t.-.H Z V V A H >.0.T.+X%X4X4X4X4X4X$Xq.s.;XR h { 6X6X5Xc w ",
"2 2 , , , , < R ].s.q.$X4X4X4X4X%XOXR.t.H m n *.).).*.* m H t.R.OX4X4X4X4X4X$Xq.s.].r s 7XrXrXqX} / ",
"l y 3 5 5 5 t W 1Xp.8.{.%X4X4X%XOXT.0.K m n L g.{.{.g.L * m K 0.T.+X%X2X4X@X}.8.p.].t a 6XqXqXqX6X5X",
"} c 8 3 5 5 ^ O.<X6.%.G.OX%X%X|.J.t.%.m n G _.^.p.e.^._.G n C %.t.J.|.2X2XOXG.%.6.`.t a 5X6X5X5X5X5X",
"} [ c q 3 5 [ A.,X<.A 0.J.!.U.t.-.F L g.z.x.^.4.` ` 4.s.v.z.g.L F -.t.U.E.U.0.Z <.`.t a 9XwXqX5X5X5X",
"5X5X{ s 1 e [ pX;XL B &.0.t.&.H S G :.XX>X-Xl.Z.6X| b.4.5.D.'.:.F S H &.t.0.%.m J :Xt d qXtXwX9X7X7X",
"5X5X( % @ : ' C.;X*.V D J H M m M g.}.F.S.yXrXrXqX6X| [ 9 T F.Y.g.M n M H J D m *.`.r s qXwXwXwXrXrX",
"5X5X( % + 0 b o.v.c.<.C m C =.f.f.L.k.N.+.7XqX7X7X5X5X( % : U r.v.g.f.<.C m C <.c.r.p g 8X9X9X9X7X7X",
"5X5X( % + 7 l _ 4.~.^.L S L ^.'.D.7.#.^ { 6X6X7X6X5X5X( % + 7 @.3.-X].^.L A L ^.~.#.u w v ( 5X6X6X7X",
"5X5X/ % + : 0 r [ 4.a._.:X_.a.#.r 6 3 @ z 6XqXtXqX6X5X/ % + : 4 p  .4.a._. X_.a.@.u 4 1 % z 6XwXrXwX",
"5Xv a $ O : 2 8 9 r i R E R U i 3 5 , = 9 z 6X9X9X5Xv a O + : 2 8 f e i R E R U i 3 < , ; > z 6X9XqX",
"5Xg o X + 2 < , X X o X X O = 2 5 5 3 : O % / 6X5X5Xj X o + 2 3 ,   X X o X O ; 3 < 5 < : @ % ( 5X} "
};
