/* XPM */
static char *out[] = {
/* columns rows colors chars-per-pixel */
"50 50 74 1 ",
"  c #6E4B0F",
". c #714F0F",
"X c #6B4711",
"o c #6E4A12",
"O c #724D12",
"+ c #755113",
"@ c #7A5311",
"# c #7F5911",
"$ c #755419",
"% c #79571B",
"& c #7B5C1D",
"* c #845D0D",
"= c #805711",
"- c #855C13",
"; c #895E11",
": c #805D1A",
"> c #826506",
", c #866805",
"< c #8C6D06",
"1 c #84650A",
"2 c #8B640C",
"3 c #876A0E",
"4 c #8D6B09",
"5 c #906F0E",
"6 c #8E7204",
"7 c #907509",
"8 c #8D6313",
"9 c #8B6B14",
"0 c #82621E",
"q c #8B661C",
"w c #8E6A1B",
"e c #916717",
"r c #906B15",
"t c #916B1A",
"y c #927413",
"u c #947A13",
"i c #94711C",
"p c #836524",
"a c #886726",
"s c #866A26",
"d c #896B26",
"f c #896E29",
"g c #916E21",
"h c #8D732C",
"j c #957324",
"k c #987624",
"l c #91772F",
"z c #94792C",
"x c #9B7C2A",
"c c #957D31",
"v c #A17F2D",
"b c #9B8122",
"n c #9D832C",
"m c #978034",
"M c #9C8334",
"N c #9D8739",
"B c #9E893A",
"V c #A2822C",
"C c #A28634",
"Z c #A18A36",
"A c #A88D34",
"S c #A38D3C",
"D c #A88D3A",
"F c #A5913E",
"G c #AC923D",
"H c #A69340",
"J c #AA9543",
"K c #AE9846",
"L c #B19544",
"P c #B19946",
"I c #B49C4A",
"U c #B89F4D",
"Y c #BBA04E",
"T c #BDA250",
/* pixels */
"XX$cHHHM888e;eNPYYYFj*oXXXX+cHHHMe8e;8eZPTTUFj*OXX",
"@:fSPPJZxe22yvGYYYIJCj@@@@:fHPPJZze24rxGUYUPKCg@@@",
"exJIUUKHSj2<xGYTYJJYJMt98evGUYUJHSj2<xGYTYJKYJMw8;",
"LLUPJKHHSs@2VUYYYKGJJFMieDLUPJJJHSs@2VYYTTKHJGFNj8",
"TTYIJHHHSpO-xUUPIJFJFHFhaLTYIJHHHSpO-vIUIPJHHHHFj=",
"TTTYIHHHFpO;xHHJJHHHJHFs%JTYUIHHHSpO;xGJJJHHHHHFso",
"TUKKJHHHSpO;xHPUYJJIYKFs%LUKJJHHHHp.;kJPUIJJIUIHsX",
"TIKHHHHBc&O;jCKTYKKYYKHs%LUJJHHHZc&O;jZPYYKIYIKHsX",
"TTUJHHSc$oO;8iZPTTUJHHSs%LYUJHHHc$o.;etZKTUUJJHSpX",
"KKKHHHh&o+-2<5iCJKJHHNf$$HLJHHHh&OO-2<5iNJIJHHNa$o",
"NSHHZc&Oo8yyu78tcmcmmhOo$cDHHBc%oO-y7u53gcmmmmh+oO",
"9xFHc$oO-zZSZCt:$$$$$$o@;8xHHc$oO-zSSAMt-$$$$$+X@;",
"49df&oO:zAIIJFnq@@:fffdq249ff&o@-zDPPJHxw@@:afsfq8",
"<*....1iSITTIGHne8gSJHHxe6#Ooo.*iFUYTIJHxt8gHJJHxe",
"22,,,,<uFIYYYYJFM:dIYUUGne1,,,,<uFITTTUJSc:dLYUUGM",
"ky<666unJYYUIPHFZ&pLIIIJSxy<666unJYTIIPJHS&aJIIIKH",
"Fxr<67nKYTYJHHHHB&pHJJHHHHx9467nKUTUJJHHHB&&HJHHHH",
"FZnt<7AUTTYUKHHHB&pLUPHHHHSnt<7AUTTTUKHHHB&sLUPJHH",
"HHSw*5DUYYUIKHHBh$aITYKKJHHBq*7AUTUUIKHHNh&aITUPKK",
"HHN&@8xKYKJJHFSh$XaITUTTUHHB&@8CKYPJHHHSh$oaITYYUU",
"HHB&@8nKYUKHHSf$X+dGPPKKKHHB&@8nKUUPHHSf$o@dJPPPPK",
"HHB&O8xDUUIJBl$o+;ixSHJJJHHB&+8kDIUIJSh$o+2tcZHJKJ",
"HHN&@;8jSHFFf+oO;<1%lHUTUHHN&.;ejSHHHfOO@-,1&lHUYY",
"HmpO@;49ssss%X@*2<,=0cHPKHmpO@829sasa$o@*4<,#0lJPP",
"Npo$&wy3OOOOOOqyuuyw@&cNNNao$&ey2+OOOo+;yuuue%&cNN",
"$o+hNCZx8--*-8xGGPGZt:%$$$O$hNZZxq-**-qxGIGGCg=%$$",
"@:hSPKJZxe22txGUTYPKCg@@@@:fHKPJZkw22yxJUYYPPCj@@@",
"wxHUTYJFSj2<bJUTTGKUKCt888xHIYYJFSj2<bJUTYPJYJMt88",
"JPYJJJJHSd+2nYYYTPJJHHMgeDPIKJJJHSf@2nYYTYGGJJSMi8",
"TTYIJHHHFp.;nKYYIGFFHHHjqPTTPKHHHSpO-nKYIIJJHHHHj@",
"TYYYIHHHFp.;xFFJJFJJHHHa%LTYTIHHHSp.*xFJJFGJJHHHso",
"YYIJJHHHSpO-xGKYYJFYULHa%LUKJJHHHSpO;xJKYYJJPUKHsX",
"TUJJHHHBc&.;jCPYYIIUUIHp%LIJHHHHBc&+;jCPYYPPUYPHsX",
"TYYJHHSc$o.;8tZPYYIHHHHs%LYUJHHFc$oO*8tZPYUUJHHSsX",
"PPKFHHl&o+*2<5iCPKPJHBf$$HKKHHFh&o@#2<4iCPPKHHBs$X",
"ZSFHZc&X+0eu7yrtcNccchoo$lHHHSm& .0tuuu2gmmmmmh+oO",
"exFFz$O.-xZSSCt-$$$++Oo@;exFFc$oO-zSZAMt-$$$$$+X@;",
"49df& .0kSIPJFxw==:afffq;29ff&oO-kDIIJFnq=@:sfffq8",
"6#....1jSPTTIJHnt;gHJJHce61.  .*iSUTTIHFxt;gSHJHxe",
"22,,,,3uFUTTYUJSc:aPUUUHVe2>,,,6uFPTTYYJDM:fPUUUGN",
"ky<666uVGYYIIIHHN&pLPUIJSxt4666unJUYIIKJHB&fKIIPJH",
"Sxe<67nJYYYJHHHHH&&HJHJHFGx9<67nKYTYKJHHHB&&HJJJHH",
"HSMt67AYYTYYKHHHS&pLUPJHHHZnt<7AYYTTIKHHHB&pKUKJHH",
"HHZq*7ZUTYYIJHFBh%aITYKKJHHZw*5AYYYUIKHHBh%aITYKKK",
"HHZ&@8VKYKHJJFSh+oaITYYTYJHB&@8MJYIHHHHSh+oaIYYYTU",
"HHB&+8nKYYIHHSf$o@dJKKKKJHHB&@8VKYYIHHSf$o@gJKKKKK",
"HHB&+8zFYIYFBl$oO*9mBJHJJHHB&+8xSIYKJBh$oO*wcBJJKJ",
"HHN&@82jSFHFf+o+2<1%cHUYYHFB&.;rjFHFSf$o@;32%lJUYT",
"Hcp++829dsss% +*<<,=0lJPPHca+O;23dssp&X@*<<,*0lJLP",
"HfoX+;<> XXXX.*2<6<2@&ZHHHfoX+84>.XXXXO*2<6<;+&ZHH"
};
